<?xml version="1.0" encoding="UTF-8"?>
<!DOCTYPE svg PUBLIC "-//W3C//DTD SVG 1.1//EN" "http://www.w3.org/Graphics/SVG/1.1/DTD/svg11.dtd">
<svg xmlns="http://www.w3.org/2000/svg" version="1.1" width="400px" height="268px" style="shape-rendering:geometricPrecision; text-rendering:geometricPrecision; image-rendering:optimizeQuality; fill-rule:evenodd; clip-rule:evenodd" xmlns:xlink="http://www.w3.org/1999/xlink">
<g><path style="opacity:0.156" fill="#eceff6" d="M 207.5,13.5 C 219.5,13.5 231.5,13.5 243.5,13.5C 243.5,14.5 243.5,15.5 243.5,16.5C 231.5,16.5 219.5,16.5 207.5,16.5C 207.5,15.5 207.5,14.5 207.5,13.5 Z"/></g>
<g><path style="opacity:0.998" fill="#fead40" d="M 147.5,25.5 C 156.816,23.6987 163.816,26.6987 168.5,34.5C 169.188,40.7268 167.855,46.3935 164.5,51.5C 161.012,57.8062 157.512,64.1395 154,70.5C 148.36,61.5528 143.527,52.2195 139.5,42.5C 139.19,38.3005 139.857,34.3005 141.5,30.5C 143.54,28.823 145.54,27.1563 147.5,25.5 Z M 151.5,33.5 C 158.648,33.4856 161.148,36.819 159,43.5C 153.559,47.5195 149.726,46.1861 147.5,39.5C 147.866,36.7441 149.2,34.7441 151.5,33.5 Z"/></g>
<g><path style="opacity:0.452" fill="#f8f2e9" d="M 168.5,34.5 C 163.816,26.6987 156.816,23.6987 147.5,25.5C 149.349,24.1634 151.516,23.4967 154,23.5C 158.015,24.0603 161.848,25.227 165.5,27C 166.781,29.4275 167.781,31.9275 168.5,34.5 Z"/></g>
<g><path style="opacity:0.624" fill="#f8f4ee" d="M 147.5,25.5 C 145.54,27.1563 143.54,28.823 141.5,30.5C 141.808,26.9909 143.808,25.3243 147.5,25.5 Z"/></g>
<g><path style="opacity:1" fill="#e5e8f6" d="M 38.5,27.5 C 47.1667,27.5 55.8333,27.5 64.5,27.5C 64.5,28.8333 64.5,30.1667 64.5,31.5C 55.8333,31.5 47.1667,31.5 38.5,31.5C 38.5,30.1667 38.5,28.8333 38.5,27.5 Z"/></g>
<g><path style="opacity:0.182" fill="#e0e7f5" d="M 346.5,44.5 C 342.151,37.4936 335.818,34.4936 327.5,35.5C 302.498,35.3334 277.498,35.5 252.5,36C 247.352,38.8358 244.019,43.0025 242.5,48.5C 242.543,40.9526 246.21,36.1192 253.5,34C 281.167,33.3333 308.833,33.3333 336.5,34C 341.986,35.5525 345.32,39.0525 346.5,44.5 Z"/></g>
<g><path style="opacity:1" fill="#3980f3" d="M 327.5,35.5 C 332.292,37.6322 335.292,41.2989 336.5,46.5C 336.832,88.0034 336.499,129.337 335.5,170.5C 334.5,170.5 333.5,170.5 332.5,170.5C 332.667,129.499 332.5,88.4986 332,47.5C 330.413,44.2441 327.913,42.0774 324.5,41C 318.843,40.5006 313.176,40.3339 307.5,40.5C 307.714,42.1439 307.38,43.6439 306.5,45C 295.167,45.6667 283.833,45.6667 272.5,45C 271.62,43.6439 271.286,42.1439 271.5,40.5C 265.824,40.3339 260.157,40.5006 254.5,41C 252.04,42.4578 249.873,44.2911 248,46.5C 247.5,77.4982 247.333,108.498 247.5,139.5C 245.833,139.5 244.167,139.5 242.5,139.5C 242.5,133.5 242.5,127.5 242.5,121.5C 242.5,97.1667 242.5,72.8333 242.5,48.5C 244.019,43.0025 247.352,38.8358 252.5,36C 277.498,35.5 302.498,35.3334 327.5,35.5 Z"/></g>
<g><path style="opacity:1" fill="#13215d" d="M 327.5,35.5 C 335.818,34.4936 342.151,37.4936 346.5,44.5C 346.5,44.8333 346.5,45.1667 346.5,45.5C 346.5,45.8333 346.5,46.1667 346.5,46.5C 346.5,88.8333 346.5,131.167 346.5,173.5C 343.417,173.084 340.417,172.417 337.5,171.5C 337.832,129.663 337.499,87.9967 336.5,46.5C 335.292,41.2989 332.292,37.6322 327.5,35.5 Z"/></g>
<g><path style="opacity:1" fill="#d8e1fe" d="M 98.5,38.5 C 108.839,38.3335 119.172,38.5002 129.5,39C 133.356,39.013 136.69,40.1797 139.5,42.5C 143.527,52.2195 148.36,61.5528 154,70.5C 157.512,64.1395 161.012,57.8062 164.5,51.5C 170.893,54.2011 176.893,57.7011 182.5,62C 188.67,67.3377 194.67,72.8377 200.5,78.5C 207.262,83.7507 212.262,90.4173 215.5,98.5C 211.651,94.8098 208.317,90.6431 205.5,86C 193.505,85.5001 181.505,85.3335 169.5,85.5C 168.867,104.069 169.534,122.402 171.5,140.5C 166.167,140.5 160.833,140.5 155.5,140.5C 156.209,139.596 157.209,139.263 158.5,139.5C 158.5,131.167 158.5,122.833 158.5,114.5C 150.5,114.5 142.5,114.5 134.5,114.5C 139.506,107.656 145.839,102.49 153.5,99C 154.582,97.6703 155.249,96.1703 155.5,94.5C 157.616,91.2111 159.949,88.0444 162.5,85C 161.956,84.2828 161.289,83.7828 160.5,83.5C 159.462,81.3723 158.129,80.3723 156.5,80.5C 155.577,79.6971 154.577,79.5304 153.5,80C 151.302,83.0228 148.969,85.8562 146.5,88.5C 145.614,87.2241 144.614,87.2241 143.5,88.5C 141.528,91.3557 141.028,94.3557 142,97.5C 138.655,100.339 134.989,102.672 131,104.5C 127.556,102.275 125.056,99.2748 123.5,95.5C 121.198,88.5314 116.531,83.8647 109.5,81.5C 108.504,81.5858 107.671,81.2524 107,80.5C 106.506,78.8659 106.34,77.1992 106.5,75.5C 106.5,74.5 106.5,73.5 106.5,72.5C 112.982,70.1152 115.315,65.4485 113.5,58.5C 114.257,54.7231 114.257,51.0565 113.5,47.5C 112.061,48.0634 110.561,48.3968 109,48.5C 105.048,46.7354 100.882,46.2354 96.5,47C 94.6776,49.8207 92.5109,52.3207 90,54.5C 89.0919,61.0184 91.5919,65.685 97.5,68.5C 98.038,73.4671 97.3713,78.1338 95.5,82.5C 91.2167,81.8061 87.2167,82.8061 83.5,85.5C 69.8333,85.5 56.1667,85.5 42.5,85.5C 42.5,88.1667 42.5,90.8333 42.5,93.5C 53.3464,93.1722 64.0131,93.5056 74.5,94.5C 72.1667,97.5 69.5,100.167 66.5,102.5C 58.5,102.5 50.5,102.5 42.5,102.5C 42.5,123.5 42.5,144.5 42.5,165.5C 38.1667,165.5 33.8333,165.5 29.5,165.5C 29.8205,160.305 29.4872,155.305 28.5,150.5C 22.8333,150.5 17.1667,150.5 11.5,150.5C 11.5,145.167 11.5,139.833 11.5,134.5C 11.8663,119.701 15.3663,105.701 22,92.5C 22.5,90.6667 23.6667,89.5 25.5,89C 25.0426,88.586 24.7093,88.086 24.5,87.5C 26.6224,85.5487 28.1224,83.2154 29,80.5C 30.1667,78.6667 31.6667,77.1667 33.5,76C 34.6596,72.3185 37.3262,69.4851 41.5,67.5C 51.1609,58.6723 61.8276,51.3389 73.5,45.5C 75.8842,42.9743 78.8842,41.4743 82.5,41C 87.7427,39.5217 93.076,38.6884 98.5,38.5 Z"/></g>
<g><path style="opacity:0.424" fill="#f1f1f4" d="M 141.5,30.5 C 139.857,34.3005 139.19,38.3005 139.5,42.5C 136.69,40.1797 133.356,39.013 129.5,39C 119.172,38.5002 108.839,38.3335 98.5,38.5C 103.731,37.7363 109.065,36.7363 114.5,35.5C 122.049,37.1572 129.715,38.1572 137.5,38.5C 137.292,34.9152 138.625,32.2485 141.5,30.5 Z"/></g>
<g><path style="opacity:1" fill="#fdfdfd" d="M 332.5,170.5 C 327.853,169.402 323.187,168.236 318.5,167C 309.473,162.487 300.473,157.987 291.5,153.5C 270.447,141.223 247.78,136.89 223.5,140.5C 223.5,140.167 223.5,139.833 223.5,139.5C 229.833,139.5 236.167,139.5 242.5,139.5C 244.167,139.5 245.833,139.5 247.5,139.5C 247.333,108.498 247.5,77.4982 248,46.5C 249.873,44.2911 252.04,42.4578 254.5,41C 260.157,40.5006 265.824,40.3339 271.5,40.5C 271.286,42.1439 271.62,43.6439 272.5,45C 283.833,45.6667 295.167,45.6667 306.5,45C 307.38,43.6439 307.714,42.1439 307.5,40.5C 313.176,40.3339 318.843,40.5006 324.5,41C 327.913,42.0774 330.413,44.2441 332,47.5C 332.5,88.4986 332.667,129.499 332.5,170.5 Z"/></g>
<g><path style="opacity:0.067" fill="#f1f2f7" d="M 364.5,34.5 C 368.342,34.3028 370.675,36.1361 371.5,40C 371.561,41.7106 370.894,43.044 369.5,44C 362.606,45.4886 359.939,42.6553 361.5,35.5C 362.791,35.7373 363.791,35.404 364.5,34.5 Z M 365.5,38.5 C 366.289,38.7828 366.956,39.2828 367.5,40C 366.184,40.5281 365.517,40.0281 365.5,38.5 Z"/></g>
<g><path style="opacity:0.056" fill="#fefefe" d="M 346.5,46.5 C 346.5,46.1667 346.5,45.8333 346.5,45.5C 347.831,53.8066 348.498,62.4733 348.5,71.5C 348.5,80.3399 348.166,89.0066 347.5,97.5C 347.83,80.3251 347.497,63.3251 346.5,46.5 Z"/></g>
<g><path style="opacity:1" fill="#222862" d="M 113.5,58.5 C 110.161,57.8899 109.828,56.7232 112.5,55C 112.167,54.5 111.833,54 111.5,53.5C 108.05,55.2242 104.383,55.8909 100.5,55.5C 101.066,60.0395 99.399,61.8728 95.5,61C 94.6433,61.6891 93.9767,62.5224 93.5,63.5C 94.5965,65.5346 96.2632,66.8679 98.5,67.5C 98.3764,68.1067 98.0431,68.44 97.5,68.5C 91.5919,65.685 89.0919,61.0184 90,54.5C 92.5109,52.3207 94.6776,49.8207 96.5,47C 100.882,46.2354 105.048,46.7354 109,48.5C 110.561,48.3968 112.061,48.0634 113.5,47.5C 114.257,51.0565 114.257,54.7231 113.5,58.5 Z"/></g>
<g><path style="opacity:1" fill="#285cbb" d="M 336.5,46.5 C 337.499,87.9967 337.832,129.663 337.5,171.5C 336.508,171.672 335.842,171.338 335.5,170.5C 336.499,129.337 336.832,88.0034 336.5,46.5 Z"/></g>
<g><path style="opacity:0.335" fill="#f6f4f3" d="M 168.5,34.5 C 169.353,38.9585 169.686,43.4585 169.5,48C 168.692,48.3076 168.025,48.8076 167.5,49.5C 177.712,56.5415 187.545,64.2082 197,72.5C 198.421,74.4048 199.588,76.4048 200.5,78.5C 194.67,72.8377 188.67,67.3377 182.5,62C 176.893,57.7011 170.893,54.2011 164.5,51.5C 167.855,46.3935 169.188,40.7268 168.5,34.5 Z"/></g>
<g><path style="opacity:0.221" fill="#f4f5f8" d="M 73.5,45.5 C 61.8276,51.3389 51.1609,58.6723 41.5,67.5C 43.7722,63.5586 46.7722,60.2253 50.5,57.5C 54.1832,55.6591 57.5165,53.3258 60.5,50.5C 64.5328,47.9809 68.8661,46.3142 73.5,45.5 Z"/></g>
<g><path style="opacity:1" fill="#f4ae89" d="M 113.5,58.5 C 115.315,65.4485 112.982,70.1152 106.5,72.5C 102.94,72.7175 102.94,73.7175 106.5,75.5C 106.34,77.1992 106.506,78.8659 107,80.5C 107.671,81.2524 108.504,81.5858 109.5,81.5C 109.5,82.5 109.5,83.5 109.5,84.5C 104.396,86.3424 99.7289,85.6757 95.5,82.5C 97.3713,78.1338 98.038,73.4671 97.5,68.5C 98.0431,68.44 98.3764,68.1067 98.5,67.5C 96.2632,66.8679 94.5965,65.5346 93.5,63.5C 93.9767,62.5224 94.6433,61.6891 95.5,61C 99.399,61.8728 101.066,60.0395 100.5,55.5C 104.383,55.8909 108.05,55.2242 111.5,53.5C 111.833,54 112.167,54.5 112.5,55C 109.828,56.7232 110.161,57.8899 113.5,58.5 Z"/></g>
<g><path style="opacity:1" fill="#fead41" d="M 314.5,74.5 C 311.763,79.638 308.763,84.638 305.5,89.5C 303.392,85.5995 301.059,81.9328 298.5,78.5C 298.34,76.847 297.674,75.5137 296.5,74.5C 293.972,63.5277 298.305,58.6944 309.5,60C 315.296,63.3309 316.963,68.1643 314.5,74.5 Z"/></g>
<g><path style="opacity:1" fill="#fff8ef" d="M 303.5,64.5 C 309.75,64.8821 311.417,67.7154 308.5,73C 301.421,73.5273 299.754,70.694 303.5,64.5 Z"/></g>
<g><path style="opacity:0.992" fill="#e5e8f6" d="M 217.5,68.5 C 224.497,67.2147 226.83,69.8813 224.5,76.5C 219.887,78.5889 216.887,77.2556 215.5,72.5C 215.803,70.8857 216.47,69.5523 217.5,68.5 Z M 219.5,71.5 C 221.465,71.9483 221.798,72.9483 220.5,74.5C 219.614,73.675 219.281,72.675 219.5,71.5 Z"/></g>
<g><path style="opacity:1" fill="#202023" d="M 106.5,72.5 C 106.5,73.5 106.5,74.5 106.5,75.5C 102.94,73.7175 102.94,72.7175 106.5,72.5 Z"/></g>
<g><path style="opacity:1" fill="#d8e0fe" d="M 314.5,74.5 C 319.167,74.5 323.833,74.5 328.5,74.5C 328.5,93.8333 328.5,113.167 328.5,132.5C 320.472,132.831 312.472,132.498 304.5,131.5C 311.692,125.808 319.025,120.308 326.5,115C 327.554,113.612 327.72,112.112 327,110.5C 317.743,117.546 308.576,124.713 299.5,132C 295.789,132.825 292.122,132.659 288.5,131.5C 291.885,129.619 293.885,126.786 294.5,123C 293.067,119.641 291.567,116.474 290,113.5C 303.134,104.354 315.634,94.5206 327.5,84C 327.167,83.5 326.833,83 326.5,82.5C 313.756,92.2882 300.923,101.955 288,111.5C 284.094,106.596 280.594,101.43 277.5,96C 278.439,94.0561 279.773,92.3894 281.5,91C 287.196,86.8241 292.863,82.6574 298.5,78.5C 301.059,81.9328 303.392,85.5995 305.5,89.5C 308.763,84.638 311.763,79.638 314.5,74.5 Z"/></g>
<g><path style="opacity:1" fill="#f9f8f7" d="M 156.5,80.5 C 157.262,82.2624 158.596,83.2624 160.5,83.5C 157.425,88.6434 154.092,93.6434 150.5,98.5C 145.598,96.735 144.265,93.4017 146.5,88.5C 148.969,85.8562 151.302,83.0228 153.5,80C 154.577,79.5304 155.577,79.6971 156.5,80.5 Z"/></g>
<g><path style="opacity:1" fill="#4c4d4e" d="M 160.5,83.5 C 158.596,83.2624 157.262,82.2624 156.5,80.5C 158.129,80.3723 159.462,81.3723 160.5,83.5 Z"/></g>
<g><path style="opacity:1" fill="#367ef2" d="M 95.5,82.5 C 99.7289,85.6757 104.396,86.3424 109.5,84.5C 109.5,83.5 109.5,82.5 109.5,81.5C 116.531,83.8647 121.198,88.5314 123.5,95.5C 120.781,97.2193 118.781,99.5526 117.5,102.5C 116.833,110.167 116.167,117.833 115.5,125.5C 110.167,125.5 104.833,125.5 99.5,125.5C 99.5858,124.504 99.2524,123.671 98.5,123C 95.293,122.428 93.6263,120.595 93.5,117.5C 91.4862,117.392 89.8195,118.058 88.5,119.5C 87.8335,113.986 87.1668,108.319 86.5,102.5C 85.5,103.167 84.5,103.833 83.5,104.5C 82.8182,103.757 82.1515,103.091 81.5,102.5C 79.5,99.8333 77.5,97.1667 75.5,94.5C 77.4593,90.8739 80.126,87.8739 83.5,85.5C 87.2167,82.8061 91.2167,81.8061 95.5,82.5 Z"/></g>
<g><path style="opacity:1" fill="#c6d1fe" d="M 83.5,85.5 C 80.126,87.8739 77.4593,90.8739 75.5,94.5C 75.1667,94.5 74.8333,94.5 74.5,94.5C 64.0131,93.5056 53.3464,93.1722 42.5,93.5C 42.5,90.8333 42.5,88.1667 42.5,85.5C 56.1667,85.5 69.8333,85.5 83.5,85.5 Z"/></g>
<g><path style="opacity:1" fill="#c0ccfc" d="M 215.5,98.5 C 215.685,100.196 216.519,101.529 218,102.5C 218.5,111.16 218.666,119.827 218.5,128.5C 206.167,128.5 193.833,128.5 181.5,128.5C 178.518,128.104 175.851,128.771 173.5,130.5C 172.583,133.758 172.249,137.091 172.5,140.5C 172.167,140.5 171.833,140.5 171.5,140.5C 169.534,122.402 168.867,104.069 169.5,85.5C 181.505,85.3335 193.505,85.5001 205.5,86C 208.317,90.6431 211.651,94.8098 215.5,98.5 Z"/></g>
<g><path style="opacity:1" fill="#2d2826" d="M 160.5,83.5 C 161.289,83.7828 161.956,84.2828 162.5,85C 159.949,88.0444 157.616,91.2111 155.5,94.5C 154.24,96.3671 152.573,97.7005 150.5,98.5C 154.092,93.6434 157.425,88.6434 160.5,83.5 Z"/></g>
<g><path style="opacity:1" fill="#f9b18b" d="M 74.5,94.5 C 74.8333,94.5 75.1667,94.5 75.5,94.5C 77.5,97.1667 79.5,99.8333 81.5,102.5C 80.1978,104.69 78.5311,106.69 76.5,108.5C 79.2533,113.008 82.2533,117.341 85.5,121.5C 86.7387,121.058 87.7387,120.391 88.5,119.5C 89.8195,118.058 91.4862,117.392 93.5,117.5C 93.6263,120.595 95.293,122.428 98.5,123C 99.2524,123.671 99.5858,124.504 99.5,125.5C 98.0322,126.806 96.6988,128.306 95.5,130C 93.5116,130.18 91.5116,130.014 89.5,129.5C 87.2854,128.732 84.9521,128.065 82.5,127.5C 80.1667,124.5 77.5,121.833 74.5,119.5C 73.8333,118.167 72.8333,117.167 71.5,116.5C 69.5,113.833 67.1667,111.5 64.5,109.5C 64.1658,106.812 64.8325,104.479 66.5,102.5C 69.5,100.167 72.1667,97.5 74.5,94.5 Z"/></g>
<g><path style="opacity:1" fill="#fcb38c" d="M 146.5,88.5 C 144.265,93.4017 145.598,96.735 150.5,98.5C 152.573,97.7005 154.24,96.3671 155.5,94.5C 155.249,96.1703 154.582,97.6703 153.5,99C 145.839,102.49 139.506,107.656 134.5,114.5C 132.441,117.149 129.775,117.982 126.5,117C 124.037,113.535 121.204,110.369 118,107.5C 117.506,105.866 117.34,104.199 117.5,102.5C 118.781,99.5526 120.781,97.2193 123.5,95.5C 125.056,99.2748 127.556,102.275 131,104.5C 134.989,102.672 138.655,100.339 142,97.5C 141.028,94.3557 141.528,91.3557 143.5,88.5C 144.614,87.2241 145.614,87.2241 146.5,88.5 Z"/></g>
<g><path style="opacity:0.619" fill="#e9edf7" d="M 370.5,97.5 C 377.833,97.5 385.167,97.5 392.5,97.5C 392.5,98.5 392.5,99.5 392.5,100.5C 385.167,100.5 377.833,100.5 370.5,100.5C 370.5,99.5 370.5,98.5 370.5,97.5 Z"/></g>
<g><path style="opacity:1" fill="#dae2fd" d="M 347.5,98.5 C 361.818,103.32 372.652,112.32 380,125.5C 386.3,139.15 388.633,153.817 387,169.5C 386.832,172.177 385.999,174.51 384.5,176.5C 382.935,178.509 381.935,180.843 381.5,183.5C 377.878,181.519 374.211,179.852 370.5,178.5C 371.5,178.5 372.5,178.5 373.5,178.5C 373.5,161.5 373.5,144.5 373.5,127.5C 364.833,127.5 356.167,127.5 347.5,127.5C 347.5,117.833 347.5,108.167 347.5,98.5 Z"/></g>
<g><path style="opacity:0.035" fill="#eaecf6" d="M -0.5,102.5 C 2.62018,102.874 3.95352,104.707 3.5,108C 3.60544,110.873 2.27211,112.373 -0.5,112.5C -0.5,109.167 -0.5,105.833 -0.5,102.5 Z"/></g>
<g><path style="opacity:1" fill="#c2cefc" d="M 66.5,102.5 C 64.8325,104.479 64.1658,106.812 64.5,109.5C 62.8561,109.286 61.3561,109.62 60,110.5C 59.5676,118.135 59.4009,125.468 59.5,132.5C 53.7897,131.275 49.2897,132.941 46,137.5C 45.5002,147.161 45.3335,156.828 45.5,166.5C 43.1667,166.5 40.8333,166.5 38.5,166.5C 35.1667,166.5 31.8333,166.5 28.5,166.5C 28.5,161.167 28.5,155.833 28.5,150.5C 29.4872,155.305 29.8205,160.305 29.5,165.5C 33.8333,165.5 38.1667,165.5 42.5,165.5C 42.5,144.5 42.5,123.5 42.5,102.5C 50.5,102.5 58.5,102.5 66.5,102.5 Z"/></g>
<g><path style="opacity:1" fill="#d9e1fd" d="M 215.5,98.5 C 218.872,99.7053 221.038,102.039 222,105.5C 228.131,111.805 234.964,117.138 242.5,121.5C 242.5,127.5 242.5,133.5 242.5,139.5C 236.167,139.5 229.833,139.5 223.5,139.5C 223.664,136.813 223.497,134.146 223,131.5C 221.871,129.859 220.371,128.859 218.5,128.5C 218.666,119.827 218.5,111.16 218,102.5C 216.519,101.529 215.685,100.196 215.5,98.5 Z"/></g>
<g><path style="opacity:1" fill="#a8baf3" d="M 64.5,109.5 C 64.5,118.167 64.5,126.833 64.5,135.5C 62.8869,134.308 61.2202,133.308 59.5,132.5C 59.4009,125.468 59.5676,118.135 60,110.5C 61.3561,109.62 62.8561,109.286 64.5,109.5 Z"/></g>
<g><path style="opacity:1" fill="#c5cff9" d="M 64.5,109.5 C 67.1667,111.5 69.5,113.833 71.5,116.5C 70.5035,132.992 70.1702,149.658 70.5,166.5C 68.8333,166.5 67.1667,166.5 65.5,166.5C 65.7855,156.115 65.4522,145.782 64.5,135.5C 64.5,126.833 64.5,118.167 64.5,109.5 Z"/></g>
<g><path style="opacity:1" fill="#c6d1fd" d="M 117.5,102.5 C 117.34,104.199 117.506,105.866 118,107.5C 121.204,110.369 124.037,113.535 126.5,117C 129.775,117.982 132.441,117.149 134.5,114.5C 142.5,114.5 150.5,114.5 158.5,114.5C 158.5,122.833 158.5,131.167 158.5,139.5C 157.209,139.263 156.209,139.596 155.5,140.5C 154.167,140.5 152.833,140.5 151.5,140.5C 138.846,145.325 126.513,150.991 114.5,157.5C 114.623,146.825 114.957,136.159 115.5,125.5C 116.167,117.833 116.833,110.167 117.5,102.5 Z"/></g>
<g><path style="opacity:1" fill="#b5c4f7" d="M 81.5,102.5 C 82.1515,103.091 82.8182,103.757 83.5,104.5C 84.5,103.833 85.5,103.167 86.5,102.5C 87.1668,108.319 87.8335,113.986 88.5,119.5C 87.7387,120.391 86.7387,121.058 85.5,121.5C 82.2533,117.341 79.2533,113.008 76.5,108.5C 78.5311,106.69 80.1978,104.69 81.5,102.5 Z"/></g>
<g><path style="opacity:1" fill="#d8e1fe" d="M 296.5,74.5 C 296.489,76.0174 295.823,77.1841 294.5,78C 287.732,82.4678 281.232,87.3011 275,92.5C 271.419,87.672 268.085,82.672 265,77.5C 263.759,75.5794 262.259,75.246 260.5,76.5C 264.376,82.4202 268.376,88.2535 272.5,94C 267.013,98.5758 261.347,102.909 255.5,107C 254.101,108.062 253.101,109.395 252.5,111C 252.85,112.257 253.517,112.591 254.5,112C 260.691,106.975 267.024,102.142 273.5,97.5C 277.732,102.237 281.398,107.404 284.5,113C 277.264,118.974 269.93,124.974 262.5,131C 264.635,131.635 266.635,131.301 268.5,130C 274.359,125.308 280.359,120.808 286.5,116.5C 289.657,118.784 291.157,121.784 291,125.5C 288.205,127.293 285.705,129.46 283.5,132C 272.839,132.5 262.172,132.667 251.5,132.5C 251.5,113.167 251.5,93.8333 251.5,74.5C 266.5,74.5 281.5,74.5 296.5,74.5 Z"/></g>
<g><path style="opacity:1" fill="#a9bbf4" d="M 71.5,116.5 C 72.8333,117.167 73.8333,118.167 74.5,119.5C 75.4706,135.786 75.8039,152.119 75.5,168.5C 73.9505,167.559 72.2838,166.893 70.5,166.5C 70.1702,149.658 70.5035,132.992 71.5,116.5 Z"/></g>
<g><path style="opacity:1" fill="#c7d2fd" d="M 74.5,119.5 C 77.5,121.833 80.1667,124.5 82.5,127.5C 81.5045,140.323 81.1712,153.323 81.5,166.5C 80.5,168.167 79.1667,169.5 77.5,170.5C 76.5,170.167 75.8333,169.5 75.5,168.5C 75.8039,152.119 75.4706,135.786 74.5,119.5 Z"/></g>
<g><path style="opacity:1" fill="#a5b8f3" d="M 119.5,123.5 C 122.5,123.5 125.5,123.5 128.5,123.5C 128.5,129.167 128.5,134.833 128.5,140.5C 125.5,140.5 122.5,140.5 119.5,140.5C 119.5,134.833 119.5,129.167 119.5,123.5 Z"/></g>
<g><path style="opacity:1" fill="#a6b9f3" d="M 151.5,140.5 C 148.5,140.5 145.5,140.5 142.5,140.5C 142.5,134.5 142.5,128.5 142.5,122.5C 145.5,122.5 148.5,122.5 151.5,122.5C 151.5,128.5 151.5,134.5 151.5,140.5 Z"/></g>
<g><path style="opacity:1" fill="#87bcfa" d="M 99.5,125.5 C 104.833,125.5 110.167,125.5 115.5,125.5C 114.957,136.159 114.623,146.825 114.5,157.5C 113.214,168.408 112.548,179.408 112.5,190.5C 111.513,195.305 111.179,200.305 111.5,205.5C 110.627,209.768 110.294,214.102 110.5,218.5C 110.737,219.791 110.404,220.791 109.5,221.5C 106.167,221.5 102.833,221.5 99.5,221.5C 98.5,221.5 97.5,221.5 96.5,221.5C 96.5,220.167 96.5,218.833 96.5,217.5C 97.6593,206.341 97.8259,195.008 97,183.5C 94.8328,194.504 92.6661,205.504 90.5,216.5C 90.0276,218.531 89.0276,220.198 87.5,221.5C 84.5,221.5 81.5,221.5 78.5,221.5C 78.5,222.833 78.5,224.167 78.5,225.5C 78.1667,225.5 77.8333,225.5 77.5,225.5C 77.5,215.5 77.5,205.5 77.5,195.5C 78.5375,194.07 79.2041,192.403 79.5,190.5C 80.128,182.439 81.128,174.439 82.5,166.5C 83.9327,155.5 85.4327,144.5 87,133.5C 87.1216,131.563 87.955,130.23 89.5,129.5C 91.5116,130.014 93.5116,130.18 95.5,130C 96.6988,128.306 98.0322,126.806 99.5,125.5 Z"/></g>
<g><path style="opacity:1" fill="#bcc8f7" d="M 346.5,46.5 C 347.497,63.3251 347.83,80.3251 347.5,97.5C 347.5,97.8333 347.5,98.1667 347.5,98.5C 347.5,108.167 347.5,117.833 347.5,127.5C 356.167,127.5 364.833,127.5 373.5,127.5C 373.5,144.5 373.5,161.5 373.5,178.5C 372.5,178.5 371.5,178.5 370.5,178.5C 362.39,177.345 354.39,175.678 346.5,173.5C 346.5,131.167 346.5,88.8333 346.5,46.5 Z"/></g>
<g><path style="opacity:1" fill="#a9bbf3" d="M 82.5,127.5 C 84.9521,128.065 87.2854,128.732 89.5,129.5C 87.955,130.23 87.1216,131.563 87,133.5C 85.4327,144.5 83.9327,155.5 82.5,166.5C 82.1667,166.5 81.8333,166.5 81.5,166.5C 81.1712,153.323 81.5045,140.323 82.5,127.5 Z"/></g>
<g><path style="opacity:1" fill="#090809" d="M 181.5,128.5 C 178.769,131.927 177.769,135.927 178.5,140.5C 176.5,140.5 174.5,140.5 172.5,140.5C 172.249,137.091 172.583,133.758 173.5,130.5C 175.851,128.771 178.518,128.104 181.5,128.5 Z"/></g>
<g><path style="opacity:1" fill="#202127" d="M 59.5,132.5 C 61.2202,133.308 62.8869,134.308 64.5,135.5C 65.4522,145.782 65.7855,156.115 65.5,166.5C 65.1667,166.5 64.8333,166.5 64.5,166.5C 64.6665,157.161 64.4998,147.827 64,138.5C 60.3398,134.633 55.8398,133.466 50.5,135C 49.6667,135.833 48.8333,136.667 48,137.5C 47.5002,147.161 47.3335,156.828 47.5,166.5C 46.8333,166.5 46.1667,166.5 45.5,166.5C 45.3335,156.828 45.5002,147.161 46,137.5C 49.2897,132.941 53.7897,131.275 59.5,132.5 Z"/></g>
<g><path style="opacity:1" fill="#b5c3f4" d="M 64.5,166.5 C 58.8333,166.5 53.1667,166.5 47.5,166.5C 47.3335,156.828 47.5002,147.161 48,137.5C 48.8333,136.667 49.6667,135.833 50.5,135C 55.8398,133.466 60.3398,134.633 64,138.5C 64.4998,147.827 64.6665,157.161 64.5,166.5 Z"/></g>
<g><path style="opacity:1" fill="#e38116" d="M 181.5,128.5 C 193.833,128.5 206.167,128.5 218.5,128.5C 220.371,128.859 221.871,129.859 223,131.5C 223.497,134.146 223.664,136.813 223.5,139.5C 223.5,139.833 223.5,140.167 223.5,140.5C 208.5,140.5 193.5,140.5 178.5,140.5C 177.769,135.927 178.769,131.927 181.5,128.5 Z"/></g>
<g><path style="opacity:1" fill="#2a1907" d="M 197.5,131.5 C 199.977,132.12 199.977,133.12 197.5,134.5C 198.603,134.998 199.603,135.331 200.5,135.5C 195.1,138.413 194.1,137.079 197.5,131.5 Z"/></g>
<g><path style="opacity:1" fill="#321d08" d="M 202.5,132.5 C 203.897,132.205 205.397,131.871 207,131.5C 206.333,133.5 206.333,135.5 207,137.5C 205.575,136.788 204.075,136.621 202.5,137C 205.106,135.35 205.106,133.85 202.5,132.5 Z"/></g>
<g><path style="opacity:1" fill="#221403" d="M 189.5,132.5 C 190.946,131.387 192.613,131.22 194.5,132C 192.954,133.44 192.121,135.273 192,137.5C 191.95,135.256 191.117,133.589 189.5,132.5 Z"/></g>
<g><path style="opacity:1" fill="#4a2909" d="M 209.5,131.5 C 210.693,131.97 211.36,132.97 211.5,134.5C 211.167,135.5 210.833,136.5 210.5,137.5C 209.534,135.604 209.201,133.604 209.5,131.5 Z"/></g>
<g><path style="opacity:1" fill="#faaa3c" d="M 151.5,140.5 C 152.833,140.5 154.167,140.5 155.5,140.5C 160.833,140.5 166.167,140.5 171.5,140.5C 171.833,140.5 172.167,140.5 172.5,140.5C 174.5,140.5 176.5,140.5 178.5,140.5C 193.5,140.5 208.5,140.5 223.5,140.5C 247.78,136.89 270.447,141.223 291.5,153.5C 291.443,154.609 291.11,155.609 290.5,156.5C 283.072,153.287 275.738,149.787 268.5,146C 263.675,144.105 258.675,143.272 253.5,143.5C 251.833,143.5 250.167,143.5 248.5,143.5C 244.5,143.5 240.5,143.5 236.5,143.5C 231.5,143.5 226.5,143.5 221.5,143.5C 216.5,143.5 211.5,143.5 206.5,143.5C 206.238,144.978 206.571,146.311 207.5,147.5C 220.368,154.767 233.368,161.767 246.5,168.5C 247.209,169.404 248.209,169.737 249.5,169.5C 261.279,176.226 273.279,182.726 285.5,189C 286.252,189.671 286.586,190.504 286.5,191.5C 286.5,192.833 286.5,194.167 286.5,195.5C 286.328,196.492 286.662,197.158 287.5,197.5C 292.119,198.828 297.119,199.494 302.5,199.5C 307.678,199.499 312.678,199.166 317.5,198.5C 318.468,196.393 318.802,194.059 318.5,191.5C 333.5,191.5 348.5,191.5 363.5,191.5C 363.5,192.833 363.5,194.167 363.5,195.5C 363.5,196.167 363.5,196.833 363.5,197.5C 363.953,198.458 364.619,199.292 365.5,200C 372.492,200.5 379.492,200.666 386.5,200.5C 386.5,201.833 386.5,203.167 386.5,204.5C 375.5,204.5 364.5,204.5 353.5,204.5C 353.672,203.508 353.338,202.842 352.5,202.5C 346.5,202.5 340.5,202.5 334.5,202.5C 334.5,204.167 334.5,205.833 334.5,207.5C 334.5,207.833 334.5,208.167 334.5,208.5C 333.566,207.432 333.232,206.099 333.5,204.5C 312.833,204.5 292.167,204.5 271.5,204.5C 264.365,188.513 253.031,184.346 237.5,192C 231.325,199.359 228.659,207.859 229.5,217.5C 214.833,217.5 200.167,217.5 185.5,217.5C 172.833,217.5 160.167,217.5 147.5,217.5C 145.5,217.5 143.5,217.5 141.5,217.5C 142.756,205.177 138.09,196.011 127.5,190C 122.416,189.222 117.416,189.389 112.5,190.5C 112.548,179.408 113.214,168.408 114.5,157.5C 126.513,150.991 138.846,145.325 151.5,140.5 Z"/></g>
<g><path style="opacity:1" fill="#030201" d="M 228.5,168.5 C 215.5,168.5 202.5,168.5 189.5,168.5C 179.06,162.108 168.393,155.941 157.5,150C 155.308,148.933 153.642,147.433 152.5,145.5C 165.446,143.048 178.446,142.882 191.5,145C 203.833,151.833 216.167,158.667 228.5,165.5C 229.776,166.614 229.776,167.614 228.5,168.5 Z"/></g>
<g><path style="opacity:1" fill="#070503" d="M 221.5,143.5 C 235.5,151.833 249.5,160.167 263.5,168.5C 257.833,168.5 252.167,168.5 246.5,168.5C 233.368,161.767 220.368,154.767 207.5,147.5C 206.571,146.311 206.238,144.978 206.5,143.5C 211.5,143.5 216.5,143.5 221.5,143.5 Z"/></g>
<g><path style="opacity:1" fill="#5b5b5b" d="M 221.5,143.5 C 226.5,143.5 231.5,143.5 236.5,143.5C 250.5,151.833 264.5,160.167 278.5,168.5C 273.5,168.5 268.5,168.5 263.5,168.5C 249.5,160.167 235.5,151.833 221.5,143.5 Z"/></g>
<g><path style="opacity:1" fill="#050505" d="M 236.5,143.5 C 240.5,143.5 244.5,143.5 248.5,143.5C 262.669,152.086 277.003,160.419 291.5,168.5C 287.167,168.5 282.833,168.5 278.5,168.5C 264.5,160.167 250.5,151.833 236.5,143.5 Z"/></g>
<g><path style="opacity:1" fill="#090705" d="M 253.5,143.5 C 258.675,143.272 263.675,144.105 268.5,146C 275.738,149.787 283.072,153.287 290.5,156.5C 298.041,160.437 305.707,164.104 313.5,167.5C 307.69,168.49 301.69,168.823 295.5,168.5C 281.5,160.167 267.5,151.833 253.5,143.5 Z"/></g>
<g><path style="opacity:1" fill="#5c5c5c" d="M 152.5,145.5 C 153.642,147.433 155.308,148.933 157.5,150C 168.393,155.941 179.06,162.108 189.5,168.5C 183.31,168.177 177.31,168.51 171.5,169.5C 167.936,168.577 164.269,168.244 160.5,168.5C 152.667,164.084 145,159.418 137.5,154.5C 142.299,151.263 147.299,148.263 152.5,145.5 Z"/></g>
<g><path style="opacity:1" fill="#a4b7f3" d="M 11.5,150.5 C 17.1667,150.5 22.8333,150.5 28.5,150.5C 28.5,155.833 28.5,161.167 28.5,166.5C 31.8333,166.5 35.1667,166.5 38.5,166.5C 36.525,167.646 35.025,169.313 34,171.5C 33.5001,185.163 33.3334,198.829 33.5,212.5C 20.0486,194.154 12.7152,173.487 11.5,150.5 Z"/></g>
<g><path style="opacity:1" fill="#5a5a5a" d="M 248.5,143.5 C 250.167,143.5 251.833,143.5 253.5,143.5C 267.5,151.833 281.5,160.167 295.5,168.5C 294.167,168.5 292.833,168.5 291.5,168.5C 277.003,160.419 262.669,152.086 248.5,143.5 Z"/></g>
<g><path style="opacity:1" fill="#040301" d="M 137.5,154.5 C 145,159.418 152.667,164.084 160.5,168.5C 145.167,168.5 129.833,168.5 114.5,168.5C 114.369,167.624 114.702,166.957 115.5,166.5C 122.887,162.475 130.221,158.475 137.5,154.5 Z"/></g>
<g><path style="opacity:1" fill="#fac888" d="M 291.5,153.5 C 300.473,157.987 309.473,162.487 318.5,167C 323.187,168.236 327.853,169.402 332.5,170.5C 333.5,170.5 334.5,170.5 335.5,170.5C 335.842,171.338 336.508,171.672 337.5,171.5C 340.417,172.417 343.417,173.084 346.5,173.5C 354.39,175.678 362.39,177.345 370.5,178.5C 374.211,179.852 377.878,181.519 381.5,183.5C 383.385,185.053 384.385,187.053 384.5,189.5C 377.825,189.334 371.158,189.5 364.5,190C 363.944,190.383 363.611,190.883 363.5,191.5C 348.5,191.5 333.5,191.5 318.5,191.5C 318.167,191.5 317.833,191.5 317.5,191.5C 317.389,190.883 317.056,190.383 316.5,190C 307.167,189.333 297.833,189.333 288.5,190C 287.956,190.717 287.289,191.217 286.5,191.5C 286.586,190.504 286.252,189.671 285.5,189C 273.279,182.726 261.279,176.226 249.5,169.5C 271.503,169.667 293.503,169.5 315.5,169C 314.956,168.283 314.289,167.783 313.5,167.5C 305.707,164.104 298.041,160.437 290.5,156.5C 291.11,155.609 291.443,154.609 291.5,153.5 Z"/></g>
<g><path style="opacity:1" fill="#357ff3" d="M 38.5,166.5 C 40.8333,166.5 43.1667,166.5 45.5,166.5C 46.1667,166.5 46.8333,166.5 47.5,166.5C 53.1667,166.5 58.8333,166.5 64.5,166.5C 64.8333,166.5 65.1667,166.5 65.5,166.5C 67.1667,166.5 68.8333,166.5 70.5,166.5C 72.2838,166.893 73.9505,167.559 75.5,168.5C 75.8333,169.5 76.5,170.167 77.5,170.5C 77.5,171.167 77.5,171.833 77.5,172.5C 77.5,180.167 77.5,187.833 77.5,195.5C 77.5,205.5 77.5,215.5 77.5,225.5C 77.5,226.5 77.5,227.5 77.5,228.5C 75.1932,230.68 72.5265,232.014 69.5,232.5C 66.3019,231.964 63.6353,232.631 61.5,234.5C 58.1691,232.702 54.5025,232.036 50.5,232.5C 47.8333,232.5 45.1667,232.5 42.5,232.5C 38.6951,232.102 35.6951,230.435 33.5,227.5C 33.5,222.5 33.5,217.5 33.5,212.5C 33.3334,198.829 33.5001,185.163 34,171.5C 35.025,169.313 36.525,167.646 38.5,166.5 Z"/></g>
<g><path style="opacity:1" fill="#9e6d2d" d="M 171.5,169.5 C 177.31,168.51 183.31,168.177 189.5,168.5C 202.5,168.5 215.5,168.5 228.5,168.5C 228.167,169.5 227.5,170.167 226.5,170.5C 208.341,169.503 190.008,169.17 171.5,169.5 Z"/></g>
<g><path style="opacity:1" fill="#a0805a" d="M 313.5,167.5 C 314.289,167.783 314.956,168.283 315.5,169C 293.503,169.5 271.503,169.667 249.5,169.5C 248.209,169.737 247.209,169.404 246.5,168.5C 252.167,168.5 257.833,168.5 263.5,168.5C 268.5,168.5 273.5,168.5 278.5,168.5C 282.833,168.5 287.167,168.5 291.5,168.5C 292.833,168.5 294.167,168.5 295.5,168.5C 301.69,168.823 307.69,168.49 313.5,167.5 Z"/></g>
<g><path style="opacity:1" fill="#fdab3b" d="M 171.5,169.5 C 190.008,169.17 208.341,169.503 226.5,170.5C 224.292,171.894 222.792,173.894 222,176.5C 218.11,187.502 216.61,198.835 217.5,210.5C 201.167,210.5 184.833,210.5 168.5,210.5C 167.473,200.856 167.307,191.189 168,181.5C 168.267,177.202 169.434,173.202 171.5,169.5 Z"/></g>
<g><path style="opacity:1" fill="#c79f6c" d="M 257.5,171.5 C 278.511,171.167 299.511,171.5 320.5,172.5C 310,172.833 299.5,173.167 289,173.5C 278.145,173.499 267.645,172.832 257.5,171.5 Z"/></g>
<g><path style="opacity:1" fill="#ab998a" d="M 77.5,172.5 C 78.1667,178.5 78.8333,184.5 79.5,190.5C 79.2041,192.403 78.5375,194.07 77.5,195.5C 77.5,187.833 77.5,180.167 77.5,172.5 Z"/></g>
<g><path style="opacity:1" fill="#fbad3c" d="M 81.5,166.5 C 81.8333,166.5 82.1667,166.5 82.5,166.5C 81.128,174.439 80.128,182.439 79.5,190.5C 78.8333,184.5 78.1667,178.5 77.5,172.5C 77.5,171.833 77.5,171.167 77.5,170.5C 79.1667,169.5 80.5,168.167 81.5,166.5 Z"/></g>
<g><path style="opacity:1" fill="#2a60b5" d="M 40.5,176.5 C 41.4959,176.414 42.3292,176.748 43,177.5C 43.4999,192.496 43.6666,207.496 43.5,222.5C 42.5,222.5 41.5,222.5 40.5,222.5C 40.5,207.167 40.5,191.833 40.5,176.5 Z"/></g>
<g><path style="opacity:1" fill="#2d68c4" d="M 49.5,176.5 C 51.4841,191.464 52.1507,206.797 51.5,222.5C 50.5,222.5 49.5,222.5 48.5,222.5C 48.1832,207.089 48.5166,191.755 49.5,176.5 Z"/></g>
<g><path style="opacity:1" fill="#2b65be" d="M 57.5,176.5 C 58.5,176.5 59.5,176.5 60.5,176.5C 60.5,191.833 60.5,207.167 60.5,222.5C 59.5,222.5 58.5,222.5 57.5,222.5C 57.5,207.167 57.5,191.833 57.5,176.5 Z"/></g>
<g><path style="opacity:1" fill="#2a60b5" d="M 66.5,176.5 C 67.5,176.5 68.5,176.5 69.5,176.5C 69.5,191.833 69.5,207.167 69.5,222.5C 68.5,222.5 67.5,222.5 66.5,222.5C 66.5,207.167 66.5,191.833 66.5,176.5 Z"/></g>
<g><path style="opacity:1" fill="#0c0806" d="M 271.5,204.5 C 271.335,208.182 271.501,211.848 272,215.5C 273.444,217.155 275.278,217.822 277.5,217.5C 276.879,223.072 274.879,228.072 271.5,232.5C 269.999,233.752 268.332,234.752 266.5,235.5C 265.29,235.932 264.29,236.599 263.5,237.5C 260.167,237.5 256.833,237.5 253.5,237.5C 265.861,230.418 270.361,219.751 267,205.5C 261.165,190.334 251.498,187 238,195.5C 232.353,203.42 230.187,212.087 231.5,221.5C 230.063,227.591 226.73,232.258 221.5,235.5C 219.973,235.427 218.973,236.094 218.5,237.5C 212.167,237.5 205.833,237.5 199.5,237.5C 199.167,236.5 198.5,235.833 197.5,235.5C 191.133,231.472 187.133,225.806 185.5,218.5C 185.5,218.167 185.5,217.833 185.5,217.5C 200.167,217.5 214.833,217.5 229.5,217.5C 228.659,207.859 231.325,199.359 237.5,192C 253.031,184.346 264.365,188.513 271.5,204.5 Z"/></g>
<g><path style="opacity:1" fill="#fffefd" d="M 317.5,191.5 C 317.5,192.833 317.5,194.167 317.5,195.5C 307.167,195.5 296.833,195.5 286.5,195.5C 286.5,194.167 286.5,192.833 286.5,191.5C 287.289,191.217 287.956,190.717 288.5,190C 297.833,189.333 307.167,189.333 316.5,190C 317.056,190.383 317.389,190.883 317.5,191.5 Z"/></g>
<g><path style="opacity:1" fill="#10366a" d="M 112.5,190.5 C 112.369,191.239 112.536,191.906 113,192.5C 121.476,188.872 128.476,190.872 134,198.5C 140.905,211.431 139.405,223.264 129.5,234C 127.922,235.094 126.255,235.928 124.5,236.5C 124.737,235.209 124.404,234.209 123.5,233.5C 123.167,233.5 122.833,233.5 122.5,233.5C 120.365,231.929 118.032,230.596 115.5,229.5C 113.97,227.654 111.97,226.654 109.5,226.5C 109.5,226.167 109.5,225.833 109.5,225.5C 109.5,224.167 109.5,222.833 109.5,221.5C 110.404,220.791 110.737,219.791 110.5,218.5C 111.945,222.44 114.779,224.773 119,225.5C 120.07,225.472 120.903,225.139 121.5,224.5C 128,218.887 129.167,212.221 125,204.5C 124.184,203.177 123.017,202.511 121.5,202.5C 119.712,201.378 117.712,201.211 115.5,202C 114.295,203.376 112.962,204.542 111.5,205.5C 111.179,200.305 111.513,195.305 112.5,190.5 Z"/></g>
<g><path style="opacity:1" fill="#0a0808" d="M 147.5,217.5 C 147.083,225.565 143.416,231.565 136.5,235.5C 135.29,235.932 134.29,236.599 133.5,237.5C 130.5,237.5 127.5,237.5 124.5,237.5C 124.5,237.167 124.5,236.833 124.5,236.5C 126.255,235.928 127.922,235.094 129.5,234C 139.405,223.264 140.905,211.431 134,198.5C 128.476,190.872 121.476,188.872 113,192.5C 112.536,191.906 112.369,191.239 112.5,190.5C 117.416,189.389 122.416,189.222 127.5,190C 138.09,196.011 142.756,205.177 141.5,217.5C 143.5,217.5 145.5,217.5 147.5,217.5 Z"/></g>
<g><path style="opacity:1" fill="#11376a" d="M 253.5,237.5 C 251.167,237.5 248.833,237.5 246.5,237.5C 246.027,236.094 245.027,235.427 243.5,235.5C 240.925,234.432 238.758,232.765 237,230.5C 235.614,227.028 233.78,224.028 231.5,221.5C 230.187,212.087 232.353,203.42 238,195.5C 251.498,187 261.165,190.334 267,205.5C 270.361,219.751 265.861,230.418 253.5,237.5 Z"/></g>
<g><path style="opacity:1" fill="#bebab5" d="M 317.5,191.5 C 317.833,191.5 318.167,191.5 318.5,191.5C 318.802,194.059 318.468,196.393 317.5,198.5C 307.681,197.506 297.681,197.173 287.5,197.5C 286.662,197.158 286.328,196.492 286.5,195.5C 296.833,195.5 307.167,195.5 317.5,195.5C 317.5,194.167 317.5,192.833 317.5,191.5 Z"/></g>
<g><path style="opacity:1" fill="#b8b8b8" d="M 363.5,195.5 C 394.167,196.167 394.167,196.833 363.5,197.5C 363.5,196.833 363.5,196.167 363.5,195.5 Z"/></g>
<g><path style="opacity:1" fill="#fffdfc" d="M 287.5,197.5 C 297.681,197.173 307.681,197.506 317.5,198.5C 312.678,199.166 307.678,199.499 302.5,199.5C 297.119,199.494 292.119,198.828 287.5,197.5 Z"/></g>
<g><path style="opacity:0.972" fill="#fcf6ef" d="M 384.5,176.5 C 384.489,178.547 384.156,180.547 383.5,182.5C 384.43,184.606 385.596,186.606 387,188.5C 388.131,195.947 388.464,203.614 388,211.5C 387.9,215.798 385.733,218.298 381.5,219C 375.175,219.5 368.842,219.666 362.5,219.5C 362.5,218.833 362.5,218.167 362.5,217.5C 369.508,217.666 376.508,217.5 383.5,217C 384.701,216.097 385.535,214.931 386,213.5C 386.498,210.518 386.665,207.518 386.5,204.5C 386.5,203.167 386.5,201.833 386.5,200.5C 379.492,200.666 372.492,200.5 365.5,200C 364.619,199.292 363.953,198.458 363.5,197.5C 394.167,196.833 394.167,196.167 363.5,195.5C 363.5,194.167 363.5,192.833 363.5,191.5C 363.611,190.883 363.944,190.383 364.5,190C 371.158,189.5 377.825,189.334 384.5,189.5C 384.385,187.053 383.385,185.053 381.5,183.5C 381.935,180.843 382.935,178.509 384.5,176.5 Z"/></g>
<g><path style="opacity:0.439" fill="#f1f3f7" d="M 11.5,134.5 C 11.5,139.833 11.5,145.167 11.5,150.5C 12.7152,173.487 20.0486,194.154 33.5,212.5C 33.5,217.5 33.5,222.5 33.5,227.5C 31.7149,222.933 30.8816,217.933 31,212.5C 14.5262,189.273 8.02625,163.273 11.5,134.5 Z"/></g>
<g><path style="opacity:1" fill="#c3832e" d="M 322.5,198.5 C 334.518,198.168 346.518,198.501 358.5,199.5C 352.5,199.833 346.5,200.167 340.5,200.5C 334.128,200.496 328.128,199.829 322.5,198.5 Z"/></g>
<g><path style="opacity:1" fill="#fafbfc" d="M 121.5,202.5 C 123.017,202.511 124.184,203.177 125,204.5C 129.167,212.221 128,218.887 121.5,224.5C 119.61,224.703 118.11,224.037 117,222.5C 114.211,216.953 113.878,211.287 116,205.5C 117.264,203.393 119.097,202.393 121.5,202.5 Z"/></g>
<g><path style="opacity:1" fill="#f9fafb" d="M 251.5,202.5 C 255.498,204.474 257.498,207.808 257.5,212.5C 257.578,217.632 255.578,221.632 251.5,224.5C 249.61,224.703 248.11,224.037 247,222.5C 244.135,216.983 243.802,211.317 246,205.5C 247.264,203.393 249.097,202.393 251.5,202.5 Z"/></g>
<g><path style="opacity:1" fill="#fffefe" d="M 352.5,202.5 C 352.5,204.167 352.5,205.833 352.5,207.5C 346.5,207.5 340.5,207.5 334.5,207.5C 334.5,205.833 334.5,204.167 334.5,202.5C 340.5,202.5 346.5,202.5 352.5,202.5 Z"/></g>
<g><path style="opacity:1" fill="#b6b7c4" d="M 121.5,202.5 C 119.097,202.393 117.264,203.393 116,205.5C 113.878,211.287 114.211,216.953 117,222.5C 118.11,224.037 119.61,224.703 121.5,224.5C 120.903,225.139 120.07,225.472 119,225.5C 114.779,224.773 111.945,222.44 110.5,218.5C 110.294,214.102 110.627,209.768 111.5,205.5C 112.962,204.542 114.295,203.376 115.5,202C 117.712,201.211 119.712,201.378 121.5,202.5 Z"/></g>
<g><path style="opacity:1" fill="#b7b8c5" d="M 251.5,202.5 C 249.097,202.393 247.264,203.393 246,205.5C 243.802,211.317 244.135,216.983 247,222.5C 248.11,224.037 249.61,224.703 251.5,224.5C 243.572,225.402 239.905,221.569 240.5,213C 239.995,208.344 241.662,204.677 245.5,202C 247.712,201.211 249.712,201.378 251.5,202.5 Z"/></g>
<g><path style="opacity:1" fill="#e79134" d="M 96.5,217.5 C 94.2646,217.795 92.2646,217.461 90.5,216.5C 92.6661,205.504 94.8328,194.504 97,183.5C 97.8259,195.008 97.6593,206.341 96.5,217.5 Z"/></g>
<g><path style="opacity:1" fill="#e68112" d="M 271.5,204.5 C 292.167,204.5 312.833,204.5 333.5,204.5C 333.232,206.099 333.566,207.432 334.5,208.5C 340.833,208.5 347.167,208.5 353.5,208.5C 353.5,207.167 353.5,205.833 353.5,204.5C 364.5,204.5 375.5,204.5 386.5,204.5C 386.665,207.518 386.498,210.518 386,213.5C 385.535,214.931 384.701,216.097 383.5,217C 376.508,217.5 369.508,217.666 362.5,217.5C 346.833,217.5 331.167,217.5 315.5,217.5C 302.833,217.5 290.167,217.5 277.5,217.5C 275.278,217.822 273.444,217.155 272,215.5C 271.501,211.848 271.335,208.182 271.5,204.5 Z"/></g>
<g><path style="opacity:1" fill="#f3c593" d="M 352.5,202.5 C 353.338,202.842 353.672,203.508 353.5,204.5C 353.5,205.833 353.5,207.167 353.5,208.5C 347.167,208.5 340.833,208.5 334.5,208.5C 334.5,208.167 334.5,207.833 334.5,207.5C 340.5,207.5 346.5,207.5 352.5,207.5C 352.5,205.833 352.5,204.167 352.5,202.5 Z"/></g>
<g><path style="opacity:1" fill="#9e6a25" d="M 114.5,168.5 C 129.833,168.5 145.167,168.5 160.5,168.5C 164.269,168.244 167.936,168.577 171.5,169.5C 169.434,173.202 168.267,177.202 168,181.5C 167.307,191.189 167.473,200.856 168.5,210.5C 184.833,210.5 201.167,210.5 217.5,210.5C 216.61,198.835 218.11,187.502 222,176.5C 222.792,173.894 224.292,171.894 226.5,170.5C 220.178,183.352 217.512,197.019 218.5,211.5C 194.833,211.5 171.167,211.5 147.5,211.5C 147.063,204.794 145.563,198.461 143,192.5C 146.687,197.909 148.52,203.909 148.5,210.5C 154.5,210.5 160.5,210.5 166.5,210.5C 166.333,199.828 166.5,189.161 167,178.5C 167.532,175.736 168.366,173.07 169.5,170.5C 151.512,169.5 133.512,169.167 115.5,169.5C 115.5,173.167 115.5,176.833 115.5,180.5C 123.11,180.208 130.11,182.042 136.5,186C 133.265,185.071 129.932,184.071 126.5,183C 122.514,182.501 118.514,182.334 114.5,182.5C 114.5,177.833 114.5,173.167 114.5,168.5 Z"/></g>
<g><path style="opacity:1" fill="#110b04" d="M 174.5,172.5 C 177.833,172.5 181.167,172.5 184.5,172.5C 184.5,173.5 184.5,174.5 184.5,175.5C 181.167,175.5 177.833,175.5 174.5,175.5C 174.5,174.5 174.5,173.5 174.5,172.5 Z"/></g>
<g><path style="opacity:1" fill="#110b04" d="M 121.5,172.5 C 124.833,172.5 128.167,172.5 131.5,172.5C 131.5,173.5 131.5,174.5 131.5,175.5C 128.167,175.5 124.833,175.5 121.5,175.5C 121.5,174.5 121.5,173.5 121.5,172.5 Z"/></g>
<g><path style="opacity:1" fill="#fcfaf7" d="M 277.5,217.5 C 290.167,217.5 302.833,217.5 315.5,217.5C 316.494,223.153 318.827,228.153 322.5,232.5C 305.5,232.5 288.5,232.5 271.5,232.5C 274.879,228.072 276.879,223.072 277.5,217.5 Z"/></g>
<g><path style="opacity:1" fill="#0b0603" d="M 315.5,217.5 C 331.167,217.5 346.833,217.5 362.5,217.5C 362.5,218.167 362.5,218.833 362.5,219.5C 360.849,226.109 357.182,231.442 351.5,235.5C 349.973,235.427 348.973,236.094 348.5,237.5C 342.167,237.5 335.833,237.5 329.5,237.5C 329.167,236.5 328.5,235.833 327.5,235.5C 325.668,234.752 324.001,233.752 322.5,232.5C 318.827,228.153 316.494,223.153 315.5,217.5 Z"/></g>
<g><path style="opacity:1" fill="#c5cdf2" d="M 90.5,216.5 C 92.2646,217.461 94.2646,217.795 96.5,217.5C 96.5,218.833 96.5,220.167 96.5,221.5C 97.5,221.5 98.5,221.5 99.5,221.5C 99.5,222.833 99.5,224.167 99.5,225.5C 98.6993,227.042 98.366,228.708 98.5,230.5C 95.8344,230.067 93.1677,229.567 90.5,229C 91.6956,228.346 91.6956,227.846 90.5,227.5C 89.8333,227.833 89.1667,228.167 88.5,228.5C 88.407,227.528 88.0736,226.528 87.5,225.5C 87.5,224.167 87.5,222.833 87.5,221.5C 89.0276,220.198 90.0276,218.531 90.5,216.5 Z"/></g>
<g><path style="opacity:1" fill="#c6cdf3" d="M 147.5,217.5 C 160.167,217.5 172.833,217.5 185.5,217.5C 185.5,217.833 185.5,218.167 185.5,218.5C 180.167,218.5 174.833,218.5 169.5,218.5C 165.833,218.5 162.167,218.5 158.5,218.5C 158.5,224.5 158.5,230.5 158.5,236.5C 150.981,236.825 143.648,236.492 136.5,235.5C 143.416,231.565 147.083,225.565 147.5,217.5 Z"/></g>
<g><path style="opacity:1" fill="#a6b9f4" d="M 169.5,218.5 C 169.5,224.5 169.5,230.5 169.5,236.5C 165.833,236.5 162.167,236.5 158.5,236.5C 158.5,230.5 158.5,224.5 158.5,218.5C 162.167,218.5 165.833,218.5 169.5,218.5 Z"/></g>
<g><path style="opacity:1" fill="#c5d1fd" d="M 169.5,218.5 C 174.833,218.5 180.167,218.5 185.5,218.5C 187.133,225.806 191.133,231.472 197.5,235.5C 188.348,236.494 179.015,236.827 169.5,236.5C 169.5,230.5 169.5,224.5 169.5,218.5 Z"/></g>
<g><path style="opacity:1" fill="#fdb38a" d="M 87.5,221.5 C 87.5,222.833 87.5,224.167 87.5,225.5C 84.5,225.5 81.5,225.5 78.5,225.5C 78.5,224.167 78.5,222.833 78.5,221.5C 81.5,221.5 84.5,221.5 87.5,221.5 Z"/></g>
<g><path style="opacity:1" fill="#f4af8a" d="M 99.5,221.5 C 102.833,221.5 106.167,221.5 109.5,221.5C 109.5,222.833 109.5,224.167 109.5,225.5C 106.167,225.5 102.833,225.5 99.5,225.5C 99.5,224.167 99.5,222.833 99.5,221.5 Z"/></g>
<g><path style="opacity:1" fill="#a3b6f1" d="M 231.5,221.5 C 233.78,224.028 235.614,227.028 237,230.5C 238.758,232.765 240.925,234.432 243.5,235.5C 236.167,236.833 228.833,236.833 221.5,235.5C 226.73,232.258 230.063,227.591 231.5,221.5 Z"/></g>
<g><path style="opacity:1" fill="#0e0d0e" d="M 77.5,225.5 C 77.8333,225.5 78.1667,225.5 78.5,225.5C 81.5,225.5 84.5,225.5 87.5,225.5C 88.0736,226.528 88.407,227.528 88.5,228.5C 89.1667,228.167 89.8333,227.833 90.5,227.5C 91.6956,227.846 91.6956,228.346 90.5,229C 93.1677,229.567 95.8344,230.067 98.5,230.5C 98.366,228.708 98.6993,227.042 99.5,225.5C 102.833,225.5 106.167,225.5 109.5,225.5C 109.5,225.833 109.5,226.167 109.5,226.5C 109.389,227.117 109.056,227.617 108.5,228C 110.076,228.44 111.41,229.273 112.5,230.5C 113.417,229.873 114.417,229.539 115.5,229.5C 118.032,230.596 120.365,231.929 122.5,233.5C 107.167,233.5 91.8333,233.5 76.5,233.5C 76.6287,231.784 76.962,230.117 77.5,228.5C 77.5,227.5 77.5,226.5 77.5,225.5 Z"/></g>
<g><path style="opacity:1" fill="#6c6e72" d="M 109.5,226.5 C 111.97,226.654 113.97,227.654 115.5,229.5C 114.417,229.539 113.417,229.873 112.5,230.5C 111.41,229.273 110.076,228.44 108.5,228C 109.056,227.617 109.389,227.117 109.5,226.5 Z"/></g>
<g><path style="opacity:0.392" fill="#e4e4e4" d="M 362.5,219.5 C 362.982,220.416 363.315,221.416 363.5,222.5C 361.899,225.481 360.399,228.481 359,231.5C 356.672,232.664 354.838,234.33 353.5,236.5C 352.508,236.672 351.842,236.338 351.5,235.5C 357.182,231.442 360.849,226.109 362.5,219.5 Z"/></g>
<g><path style="opacity:1" fill="#0d0d0f" d="M 69.5,232.5 C 69.7373,233.791 69.404,234.791 68.5,235.5C 67.6618,235.842 67.3284,236.508 67.5,237.5C 65.8333,237.5 64.1667,237.5 62.5,237.5C 62.6716,236.508 62.3382,235.842 61.5,235.5C 61.5,235.167 61.5,234.833 61.5,234.5C 63.6353,232.631 66.3019,231.964 69.5,232.5 Z"/></g>
<g><path style="opacity:1" fill="#c5d1fc" d="M 77.5,228.5 C 76.962,230.117 76.6287,231.784 76.5,233.5C 76.5,234.5 76.5,235.5 76.5,236.5C 73.6146,236.806 70.9479,236.473 68.5,235.5C 69.404,234.791 69.7373,233.791 69.5,232.5C 72.5265,232.014 75.1932,230.68 77.5,228.5 Z"/></g>
<g><path style="opacity:1" fill="#090808" d="M 42.5,232.5 C 45.1667,232.5 47.8333,232.5 50.5,232.5C 50.4431,233.609 50.1098,234.609 49.5,235.5C 48.6618,235.842 48.3284,236.508 48.5,237.5C 44.6509,237.981 42.6509,236.314 42.5,232.5 Z"/></g>
<g><path style="opacity:1" fill="#d1daf9" d="M 50.5,232.5 C 54.5025,232.036 58.1691,232.702 61.5,234.5C 61.5,234.833 61.5,235.167 61.5,235.5C 57.5,236.833 53.5,236.833 49.5,235.5C 50.1098,234.609 50.4431,233.609 50.5,232.5 Z"/></g>
<g><path style="opacity:1" fill="#f3f3f3" d="M 76.5,233.5 C 91.8333,233.5 107.167,233.5 122.5,233.5C 122.833,233.5 123.167,233.5 123.5,233.5C 123.5,234.5 123.5,235.5 123.5,236.5C 107.833,236.5 92.1667,236.5 76.5,236.5C 76.5,235.5 76.5,234.5 76.5,233.5 Z"/></g>
<g><path style="opacity:1" fill="#3d83f5" d="M 271.5,232.5 C 288.5,232.5 305.5,232.5 322.5,232.5C 324.001,233.752 325.668,234.752 327.5,235.5C 307.167,236.833 286.833,236.833 266.5,235.5C 268.332,234.752 269.999,233.752 271.5,232.5 Z"/></g>
<g><path style="opacity:1" fill="#8a8c92" d="M 123.5,233.5 C 124.404,234.209 124.737,235.209 124.5,236.5C 124.5,236.833 124.5,237.167 124.5,237.5C 105.5,237.5 86.5,237.5 67.5,237.5C 67.3284,236.508 67.6618,235.842 68.5,235.5C 70.9479,236.473 73.6146,236.806 76.5,236.5C 92.1667,236.5 107.833,236.5 123.5,236.5C 123.5,235.5 123.5,234.5 123.5,233.5 Z"/></g>
<g><path style="opacity:0.475" fill="#bfbfbe" d="M 33.5,227.5 C 35.6951,230.435 38.6951,232.102 42.5,232.5C 42.6509,236.314 44.6509,237.981 48.5,237.5C 53.1667,237.5 57.8333,237.5 62.5,237.5C 64.1667,237.5 65.8333,237.5 67.5,237.5C 86.5,237.5 105.5,237.5 124.5,237.5C 127.5,237.5 130.5,237.5 133.5,237.5C 155.5,237.5 177.5,237.5 199.5,237.5C 205.833,237.5 212.167,237.5 218.5,237.5C 227.833,237.5 237.167,237.5 246.5,237.5C 248.833,237.5 251.167,237.5 253.5,237.5C 256.833,237.5 260.167,237.5 263.5,237.5C 285.5,237.5 307.5,237.5 329.5,237.5C 335.833,237.5 342.167,237.5 348.5,237.5C 363.676,237.829 378.676,237.496 393.5,236.5C 394.42,235.933 394.754,236.599 394.5,238.5C 264.5,238.5 134.5,238.5 4.5,238.5C 4.28099,237.325 4.61432,236.325 5.5,235.5C 17.4494,236.479 29.4494,236.813 41.5,236.5C 41.5,235.5 41.5,234.5 41.5,233.5C 37.7135,233.607 34.7135,232.107 32.5,229C 33.056,228.617 33.3893,228.117 33.5,227.5 Z"/></g>
<g><path style="opacity:0.514" fill="#323232" d="M 351.5,235.5 C 351.842,236.338 352.508,236.672 353.5,236.5C 366.833,236.5 380.167,236.5 393.5,236.5C 378.676,237.496 363.676,237.829 348.5,237.5C 348.973,236.094 349.973,235.427 351.5,235.5 Z"/></g>
<g><path style="opacity:1" fill="#234986" d="M 266.5,235.5 C 286.833,236.833 307.167,236.833 327.5,235.5C 328.5,235.833 329.167,236.5 329.5,237.5C 307.5,237.5 285.5,237.5 263.5,237.5C 264.29,236.599 265.29,235.932 266.5,235.5 Z"/></g>
<g><path style="opacity:1" fill="#626d8c" d="M 221.5,235.5 C 228.833,236.833 236.167,236.833 243.5,235.5C 245.027,235.427 246.027,236.094 246.5,237.5C 237.167,237.5 227.833,237.5 218.5,237.5C 218.973,236.094 219.973,235.427 221.5,235.5 Z"/></g>
<g><path style="opacity:1" fill="#71788f" d="M 136.5,235.5 C 143.648,236.492 150.981,236.825 158.5,236.5C 162.167,236.5 165.833,236.5 169.5,236.5C 179.015,236.827 188.348,236.494 197.5,235.5C 198.5,235.833 199.167,236.5 199.5,237.5C 177.5,237.5 155.5,237.5 133.5,237.5C 134.29,236.599 135.29,235.932 136.5,235.5 Z"/></g>
<g><path style="opacity:1" fill="#686c7c" d="M 49.5,235.5 C 53.5,236.833 57.5,236.833 61.5,235.5C 62.3382,235.842 62.6716,236.508 62.5,237.5C 57.8333,237.5 53.1667,237.5 48.5,237.5C 48.3284,236.508 48.6618,235.842 49.5,235.5 Z"/></g>
</svg>
