<?xml version="1.0" encoding="UTF-8"?>
<!DOCTYPE svg PUBLIC "-//W3C//DTD SVG 1.1//EN" "http://www.w3.org/Graphics/SVG/1.1/DTD/svg11.dtd">
<svg xmlns="http://www.w3.org/2000/svg" version="1.1" width="400px" height="259px" style="shape-rendering:geometricPrecision; text-rendering:geometricPrecision; image-rendering:optimizeQuality; fill-rule:evenodd; clip-rule:evenodd" xmlns:xlink="http://www.w3.org/1999/xlink">
<g><path style="opacity:0.999" fill="#eaf1f8" d="M 389.5,188.5 C 386.021,187.962 382.521,187.629 379,187.5C 377.278,187.611 377.112,188.111 378.5,189C 376.782,189.346 375.115,189.846 373.5,190.5C 371.997,189.948 370.331,189.948 368.5,190.5C 368.5,188.5 368.5,186.5 368.5,184.5C 368.5,183.833 368.5,183.167 368.5,182.5C 368.5,181.5 368.5,180.5 368.5,179.5C 370.433,180.642 371.933,182.308 373,184.5C 373.49,185.793 373.657,187.127 373.5,188.5C 374.675,188.719 375.675,188.386 376.5,187.5C 374.506,184.85 373.506,181.85 373.5,178.5C 374.778,170.961 374.612,163.295 373,155.5C 372.623,154.058 371.79,153.058 370.5,152.5C 369.869,148.196 369.369,143.863 369,139.5C 363.855,135.625 358.855,135.958 354,140.5C 353.51,141.793 353.343,143.127 353.5,144.5C 354.241,147.634 355.241,150.634 356.5,153.5C 355.041,153.433 353.708,153.766 352.5,154.5C 351.504,154.414 350.671,154.748 350,155.5C 349.903,161.353 349.736,167.02 349.5,172.5C 348.35,177.316 348.184,182.316 349,187.5C 349.671,188.252 350.504,188.586 351.5,188.5C 352.401,196.374 354.234,204.04 357,211.5C 357.498,214.817 357.665,218.15 357.5,221.5C 357.5,224.167 357.5,226.833 357.5,229.5C 355.517,230.471 353.517,231.471 351.5,232.5C 349.5,232.5 347.5,232.5 345.5,232.5C 345.5,218.167 345.5,203.833 345.5,189.5C 344.5,189.5 343.5,189.5 342.5,189.5C 342.5,188.5 342.5,187.5 342.5,186.5C 342.5,185.167 342.5,183.833 342.5,182.5C 342.5,181.167 342.5,179.833 342.5,178.5C 343.5,178.5 344.5,178.5 345.5,178.5C 345.5,173.5 345.5,168.5 345.5,163.5C 344.5,163.5 343.5,163.5 342.5,163.5C 342.5,159.833 342.5,156.167 342.5,152.5C 338.958,152.187 335.625,152.521 332.5,153.5C 331.5,153.5 330.5,153.5 329.5,153.5C 329.167,140.167 328.833,140.167 328.5,153.5C 320.186,154.941 311.853,156.274 303.5,157.5C 303.167,156.833 302.833,156.167 302.5,155.5C 302.5,140.167 302.5,124.833 302.5,109.5C 296.5,109.5 290.5,109.5 284.5,109.5C 284.5,104.5 284.5,99.5 284.5,94.5C 283.167,94.5 281.833,94.5 280.5,94.5C 280.5,86.5 280.5,78.5 280.5,70.5C 272.5,70.5 264.5,70.5 256.5,70.5C 256.5,78.5 256.5,86.5 256.5,94.5C 249.5,94.5 242.5,94.5 235.5,94.5C 235.821,83.252 235.487,72.0854 234.5,61C 227.049,58.4609 219.716,55.6276 212.5,52.5C 211.502,61.8096 211.168,71.1429 211.5,80.5C 209.833,80.5 208.167,80.5 206.5,80.5C 206.5,68.1667 206.5,55.8333 206.5,43.5C 198.366,45.4341 190.366,47.7674 182.5,50.5C 182.5,69.5 182.5,88.5 182.5,107.5C 172.5,107.5 162.5,107.5 152.5,107.5C 152.5,118.833 152.5,130.167 152.5,141.5C 148.833,141.5 145.167,141.5 141.5,141.5C 141.5,144.5 141.5,147.5 141.5,150.5C 137.5,150.5 133.5,150.5 129.5,150.5C 129.5,145.5 129.5,140.5 129.5,135.5C 122.167,135.5 114.833,135.5 107.5,135.5C 107.5,122.167 107.5,108.833 107.5,95.5C 100.5,95.5 93.5,95.5 86.5,95.5C 85.1667,95.5 83.8333,95.5 82.5,95.5C 82.5,107.833 82.5,120.167 82.5,132.5C 82.5,142.167 82.5,151.833 82.5,161.5C 64.2025,163.431 46.5358,167.931 29.5,175C 23.8557,176.052 18.189,176.885 12.5,177.5C 11.3812,156.022 17.7145,137.189 31.5,121C 39.5657,114.549 48.0657,108.716 57,103.5C 59.0591,99.3234 60.7258,94.9901 62,90.5C 65.0646,75.5748 69.0646,60.9081 74,46.5C 84.7538,18.2106 104.254,9.71063 132.5,21C 140.819,24.8249 148.819,29.1582 156.5,34C 166.595,37.234 176.928,38.234 187.5,37C 207.931,33.1425 228.264,28.8092 248.5,24C 271.853,19.2286 293.853,22.5619 314.5,34C 329.998,45.1597 337.998,60.3264 338.5,79.5C 337.476,89.5983 335.809,99.5983 333.5,109.5C 333.594,111.923 334.094,114.256 335,116.5C 338.081,119.293 341.581,121.46 345.5,123C 378.188,132.503 392.855,154.337 389.5,188.5 Z"/></g>
<g><path style="opacity:1" fill="#cfdff1" d="M 302.5,155.5 C 301.662,155.158 301.328,154.492 301.5,153.5C 301.666,147.824 301.499,142.157 301,136.5C 298.772,134.887 296.272,134.22 293.5,134.5C 292.833,134.833 292.167,135.167 291.5,135.5C 291.167,135.5 290.833,135.5 290.5,135.5C 289.659,133.621 289.325,131.621 289.5,129.5C 292.086,126.707 292.086,123.874 289.5,121C 286.518,120.502 283.518,120.335 280.5,120.5C 280.216,122.415 280.549,124.081 281.5,125.5C 281.337,127.857 281.503,130.19 282,132.5C 283.892,133.617 284.725,135.284 284.5,137.5C 278.173,144.603 270.173,147.603 260.5,146.5C 253.971,148.659 254.305,150.159 261.5,151C 266.489,151.499 271.489,151.666 276.5,151.5C 276.174,159.684 276.508,167.684 277.5,175.5C 277.5,177.167 277.5,178.833 277.5,180.5C 277.917,183.079 277.25,185.246 275.5,187C 262.993,191.669 250.326,195.836 237.5,199.5C 237.5,210.5 237.5,221.5 237.5,232.5C 225.988,232.828 214.654,232.495 203.5,231.5C 208.5,229.833 211.833,226.5 213.5,221.5C 214.5,221.5 215.5,221.5 216.5,221.5C 216.586,222.496 216.252,223.329 215.5,224C 221.825,224.5 228.158,224.666 234.5,224.5C 234.539,216.626 233.872,208.96 232.5,201.5C 231.011,197.847 228.344,195.347 224.5,194C 216.65,191.204 208.65,189.038 200.5,187.5C 190.216,186.038 179.883,185.038 169.5,184.5C 169.167,183.5 168.5,182.833 167.5,182.5C 158.4,177.616 149.067,173.283 139.5,169.5C 130.223,165.352 120.556,162.519 110.5,161C 109.5,158.667 108.5,156.333 107.5,154C 105.19,153.503 102.857,153.337 100.5,153.5C 100.5,154.5 100.5,155.5 100.5,156.5C 100.5,158.167 100.5,159.833 100.5,161.5C 94.5,161.5 88.5,161.5 82.5,161.5C 82.5,151.833 82.5,142.167 82.5,132.5C 88.5,132.5 94.5,132.5 100.5,132.5C 100.5,133.5 100.5,134.5 100.5,135.5C 102.5,135.5 104.5,135.5 106.5,135.5C 106.5,122.5 106.5,109.5 106.5,96.5C 99.6457,96.824 92.979,96.4907 86.5,95.5C 93.5,95.5 100.5,95.5 107.5,95.5C 107.5,108.833 107.5,122.167 107.5,135.5C 114.833,135.5 122.167,135.5 129.5,135.5C 129.5,140.5 129.5,145.5 129.5,150.5C 133.5,150.5 137.5,150.5 141.5,150.5C 141.5,147.5 141.5,144.5 141.5,141.5C 145.167,141.5 148.833,141.5 152.5,141.5C 152.5,130.167 152.5,118.833 152.5,107.5C 162.5,107.5 172.5,107.5 182.5,107.5C 182.5,88.5 182.5,69.5 182.5,50.5C 190.366,47.7674 198.366,45.4341 206.5,43.5C 206.5,55.8333 206.5,68.1667 206.5,80.5C 208.167,80.5 209.833,80.5 211.5,80.5C 211.168,71.1429 211.502,61.8096 212.5,52.5C 219.716,55.6276 227.049,58.4609 234.5,61C 235.487,72.0854 235.821,83.252 235.5,94.5C 242.5,94.5 249.5,94.5 256.5,94.5C 256.5,86.5 256.5,78.5 256.5,70.5C 264.5,70.5 272.5,70.5 280.5,70.5C 280.5,78.5 280.5,86.5 280.5,94.5C 281.833,94.5 283.167,94.5 284.5,94.5C 284.5,99.5 284.5,104.5 284.5,109.5C 290.5,109.5 296.5,109.5 302.5,109.5C 302.5,124.833 302.5,140.167 302.5,155.5 Z"/></g>
<g><path style="opacity:1" fill="#c5d6ec" d="M 86.5,95.5 C 92.979,96.4907 99.6457,96.824 106.5,96.5C 106.5,109.5 106.5,122.5 106.5,135.5C 104.5,135.5 102.5,135.5 100.5,135.5C 100.5,134.5 100.5,133.5 100.5,132.5C 94.5,132.5 88.5,132.5 82.5,132.5C 82.5,120.167 82.5,107.833 82.5,95.5C 83.8333,95.5 85.1667,95.5 86.5,95.5 Z"/></g>
<g><path style="opacity:1" fill="#252872" d="M 289.5,129.5 C 288.01,126.108 285.343,124.774 281.5,125.5C 280.549,124.081 280.216,122.415 280.5,120.5C 283.518,120.335 286.518,120.502 289.5,121C 292.086,123.874 292.086,126.707 289.5,129.5 Z"/></g>
<g><path style="opacity:1" fill="#a2551b" d="M 281.5,125.5 C 285.343,124.774 288.01,126.108 289.5,129.5C 289.325,131.621 289.659,133.621 290.5,135.5C 288.703,136.73 286.703,137.396 284.5,137.5C 284.725,135.284 283.892,133.617 282,132.5C 281.503,130.19 281.337,127.857 281.5,125.5 Z"/></g>
<g><path style="opacity:1" fill="#252770" d="M 293.5,134.5 C 296.272,134.22 298.772,134.887 301,136.5C 301.499,142.157 301.666,147.824 301.5,153.5C 299.917,151.337 298.584,149.004 297.5,146.5C 297.665,143.482 297.498,140.482 297,137.5C 295.855,136.364 294.688,135.364 293.5,134.5 Z"/></g>
<g><path style="opacity:1" fill="#2e2d73" d="M 370.5,152.5 C 367.904,151.735 365.237,151.401 362.5,151.5C 361.27,149.703 360.604,147.703 360.5,145.5C 358.027,145.264 356.36,143.931 355.5,141.5C 354.824,142.602 354.158,143.602 353.5,144.5C 353.343,143.127 353.51,141.793 354,140.5C 358.855,135.958 363.855,135.625 369,139.5C 369.369,143.863 369.869,148.196 370.5,152.5 Z"/></g>
<g><path style="opacity:1" fill="#ad2d19" d="M 290.5,135.5 C 290.833,135.5 291.167,135.5 291.5,135.5C 289.572,137.247 287.406,138.913 285,140.5C 283.85,147.19 284.85,153.524 288,159.5C 289.739,161.741 291.906,163.408 294.5,164.5C 295.386,165.325 295.719,166.325 295.5,167.5C 295.5,169.167 295.5,170.833 295.5,172.5C 290.819,174.88 285.819,175.88 280.5,175.5C 279.5,175.5 278.5,175.5 277.5,175.5C 276.508,167.684 276.174,159.684 276.5,151.5C 271.489,151.666 266.489,151.499 261.5,151C 254.305,150.159 253.971,148.659 260.5,146.5C 270.173,147.603 278.173,144.603 284.5,137.5C 286.703,137.396 288.703,136.73 290.5,135.5 Z"/></g>
<g><path style="opacity:1" fill="#2f1b44" d="M 293.5,134.5 C 294.688,135.364 295.855,136.364 297,137.5C 297.498,140.482 297.665,143.482 297.5,146.5C 295.602,144.75 294.269,142.584 293.5,140C 290.975,139.104 288.808,139.604 287,141.5C 285.791,147.886 286.791,153.886 290,159.5C 293.172,163.508 295.172,163.174 296,158.5C 297.646,160.609 298.812,162.943 299.5,165.5C 298.395,166.6 297.062,167.267 295.5,167.5C 295.719,166.325 295.386,165.325 294.5,164.5C 291.906,163.408 289.739,161.741 288,159.5C 284.85,153.524 283.85,147.19 285,140.5C 287.406,138.913 289.572,137.247 291.5,135.5C 292.167,135.167 292.833,134.833 293.5,134.5 Z"/></g>
<g><path style="opacity:1" fill="#ae301a" d="M 297.5,146.5 C 298.584,149.004 299.917,151.337 301.5,153.5C 301.328,154.492 301.662,155.158 302.5,155.5C 302.833,156.167 303.167,156.833 303.5,157.5C 303.875,159.698 304.542,161.698 305.5,163.5C 305.5,167.5 305.5,171.5 305.5,175.5C 304.5,175.5 303.5,175.5 302.5,175.5C 302.076,171.988 301.076,168.655 299.5,165.5C 298.812,162.943 297.646,160.609 296,158.5C 295.172,163.174 293.172,163.508 290,159.5C 286.791,153.886 285.791,147.886 287,141.5C 288.808,139.604 290.975,139.104 293.5,140C 294.269,142.584 295.602,144.75 297.5,146.5 Z"/></g>
<g><path style="opacity:1" fill="#d5e4f4" d="M 332.5,153.5 C 332.5,156.167 332.5,158.833 332.5,161.5C 330.585,161.216 328.919,161.549 327.5,162.5C 326.5,163.167 325.5,163.833 324.5,164.5C 318.256,163.542 311.923,163.209 305.5,163.5C 304.542,161.698 303.875,159.698 303.5,157.5C 311.853,156.274 320.186,154.941 328.5,153.5C 328.833,140.167 329.167,140.167 329.5,153.5C 330.5,153.5 331.5,153.5 332.5,153.5 Z"/></g>
<g><path style="opacity:1" fill="#e6955c" d="M 362.5,151.5 C 361.957,151.56 361.624,151.893 361.5,152.5C 362.376,153.251 363.376,153.751 364.5,154C 363.601,155.652 362.601,157.152 361.5,158.5C 361.44,157.957 361.107,157.624 360.5,157.5C 357.823,158.074 355.157,158.741 352.5,159.5C 352,160.5 351.5,161.5 351,162.5C 350.572,159.678 351.072,157.012 352.5,154.5C 353.708,153.766 355.041,153.433 356.5,153.5C 355.241,150.634 354.241,147.634 353.5,144.5C 354.158,143.602 354.824,142.602 355.5,141.5C 356.36,143.931 358.027,145.264 360.5,145.5C 360.604,147.703 361.27,149.703 362.5,151.5 Z"/></g>
<g><path style="opacity:1" fill="#c2d3e9" d="M 342.5,182.5 C 341.5,181.833 340.5,181.167 339.5,180.5C 338.626,178.31 336.959,177.31 334.5,177.5C 334.167,177.5 333.833,177.5 333.5,177.5C 333.158,176.662 332.492,176.328 331.5,176.5C 331.5,175.833 331.5,175.167 331.5,174.5C 336.887,171.459 337.553,167.625 333.5,163C 331.527,162.505 329.527,162.338 327.5,162.5C 328.919,161.549 330.585,161.216 332.5,161.5C 332.5,158.833 332.5,156.167 332.5,153.5C 335.625,152.521 338.958,152.187 342.5,152.5C 342.5,156.167 342.5,159.833 342.5,163.5C 343.5,163.5 344.5,163.5 345.5,163.5C 345.5,168.5 345.5,173.5 345.5,178.5C 344.5,178.5 343.5,178.5 342.5,178.5C 342.5,179.833 342.5,181.167 342.5,182.5 Z"/></g>
<g><path style="opacity:1" fill="#221a3d" d="M 100.5,156.5 C 103.833,155.833 105.833,157.167 106.5,160.5C 104.604,161.466 102.604,161.799 100.5,161.5C 100.5,159.833 100.5,158.167 100.5,156.5 Z"/></g>
<g><path style="opacity:1" fill="#282a72" d="M 352.5,154.5 C 351.072,157.012 350.572,159.678 351,162.5C 351.5,161.5 352,160.5 352.5,159.5C 355.157,158.741 357.823,158.074 360.5,157.5C 361.107,157.624 361.44,157.957 361.5,158.5C 360.167,162.167 360.167,165.833 361.5,169.5C 361.031,175.483 363.365,179.817 368.5,182.5C 368.5,183.167 368.5,183.833 368.5,184.5C 367.167,184.5 365.833,184.5 364.5,184.5C 364.649,183.448 364.483,182.448 364,181.5C 363.092,183.439 361.592,184.439 359.5,184.5C 356.833,184.5 354.167,184.5 351.5,184.5C 349.657,180.813 348.99,176.813 349.5,172.5C 349.736,167.02 349.903,161.353 350,155.5C 350.671,154.748 351.504,154.414 352.5,154.5 Z"/></g>
<g><path style="opacity:1" fill="#292971" d="M 327.5,162.5 C 329.527,162.338 331.527,162.505 333.5,163C 337.553,167.625 336.887,171.459 331.5,174.5C 331.414,173.504 331.748,172.671 332.5,172C 330.845,170.556 330.178,168.722 330.5,166.5C 326.5,165.833 324.833,167.5 325.5,171.5C 324.532,169.393 324.198,167.059 324.5,164.5C 325.5,163.833 326.5,163.167 327.5,162.5 Z"/></g>
<g><path style="opacity:1" fill="#ee942c" d="M 139.5,169.5 C 146.992,174.415 154.659,179.081 162.5,183.5C 164.607,184.468 166.941,184.802 169.5,184.5C 179.883,185.038 190.216,186.038 200.5,187.5C 209.183,190.678 217.183,195.178 224.5,201C 227.146,201.497 229.813,201.664 232.5,201.5C 233.872,208.96 234.539,216.626 234.5,224.5C 228.158,224.666 221.825,224.5 215.5,224C 216.252,223.329 216.586,222.496 216.5,221.5C 219.969,204.297 212.969,194.631 195.5,192.5C 183.086,193.747 176.086,200.581 174.5,213C 174.489,216.116 175.155,218.949 176.5,221.5C 176.5,222.167 176.5,222.833 176.5,223.5C 138.833,224.833 101.167,224.833 63.5,223.5C 63.8333,222.833 64.1667,222.167 64.5,221.5C 67.95,204.463 61.1166,194.796 44,192.5C 26.8834,194.796 20.05,204.463 23.5,221.5C 23.8039,222.15 24.1373,222.817 24.5,223.5C 21.9135,224.48 19.2469,224.813 16.5,224.5C 10.4665,223.646 6.29982,220.312 4,214.5C 2.02804,209.313 1.36137,203.98 2,198.5C 2.41691,197.244 3.25025,196.577 4.5,196.5C 5.16667,196.5 5.83333,196.5 6.5,196.5C 8.39037,196.703 9.89037,196.037 11,194.5C 13.5876,190.324 16.4209,186.324 19.5,182.5C 19.2907,181.914 18.9574,181.414 18.5,181C 14.5138,180.501 10.5138,180.334 6.5,180.5C 7.44753,179.022 8.78086,178.022 10.5,177.5C 11.1667,177.5 11.8333,177.5 12.5,177.5C 18.189,176.885 23.8557,176.052 29.5,175C 46.5358,167.931 64.2025,163.431 82.5,161.5C 88.5,161.5 94.5,161.5 100.5,161.5C 102.604,161.799 104.604,161.466 106.5,160.5C 105.833,157.167 103.833,155.833 100.5,156.5C 100.5,155.5 100.5,154.5 100.5,153.5C 102.857,153.337 105.19,153.503 107.5,154C 108.5,156.333 109.5,158.667 110.5,161C 120.556,162.519 130.223,165.352 139.5,169.5 Z"/></g>
<g><path style="opacity:1" fill="#11143e" d="M 74.5,164.5 C 79.5111,164.334 84.5111,164.501 89.5,165C 92.7241,170.511 95.0574,176.345 96.5,182.5C 86.8276,182.666 77.1609,182.5 67.5,182C 64.086,181.703 60.7527,181.036 57.5,180C 54.7348,177.034 55.0682,174.367 58.5,172C 63.6146,168.807 68.9479,166.307 74.5,164.5 Z"/></g>
<g><path style="opacity:1" fill="#10143e" d="M 92.5,164.5 C 107.517,161.565 121.85,163.732 135.5,171C 142.436,174.94 149.103,179.273 155.5,184C 137.834,184.104 120.167,183.771 102.5,183C 98.7422,176.979 95.4088,170.812 92.5,164.5 Z"/></g>
<g><path style="opacity:1" fill="#c4d3e9" d="M 305.5,163.5 C 311.923,163.209 318.256,163.542 324.5,164.5C 324.198,167.059 324.532,169.393 325.5,171.5C 326.167,173.167 326.833,174.833 327.5,176.5C 321.562,178.044 319.562,181.711 321.5,187.5C 321.5,188.167 321.5,188.833 321.5,189.5C 319.648,188.911 317.815,188.244 316,187.5C 314.667,184.167 313.333,180.833 312,177.5C 308.163,174.915 307.829,175.249 311,178.5C 312.167,181.5 313.333,184.5 314.5,187.5C 314,187.833 313.5,188.167 313,188.5C 309.872,187.796 306.706,187.296 303.5,187C 302.874,186.25 302.374,185.416 302,184.5C 301.316,185.784 301.483,186.951 302.5,188C 301.263,188.232 300.263,188.732 299.5,189.5C 298.833,189.167 298.167,188.833 297.5,188.5C 296.031,183.284 295.365,177.95 295.5,172.5C 295.5,170.833 295.5,169.167 295.5,167.5C 297.062,167.267 298.395,166.6 299.5,165.5C 301.076,168.655 302.076,171.988 302.5,175.5C 303.5,175.5 304.5,175.5 305.5,175.5C 305.5,171.5 305.5,167.5 305.5,163.5 Z"/></g>
<g><path style="opacity:1" fill="#e8852b" d="M 362.5,151.5 C 365.237,151.401 367.904,151.735 370.5,152.5C 371.79,153.058 372.623,154.058 373,155.5C 374.612,163.295 374.778,170.961 373.5,178.5C 371.928,175.785 370.928,172.785 370.5,169.5C 370.397,164.196 369.231,159.196 367,154.5C 362.16,158.899 361.327,163.899 364.5,169.5C 365.551,170.222 366.218,171.222 366.5,172.5C 364.589,171.925 362.922,170.925 361.5,169.5C 360.167,165.833 360.167,162.167 361.5,158.5C 362.601,157.152 363.601,155.652 364.5,154C 363.376,153.751 362.376,153.251 361.5,152.5C 361.624,151.893 361.957,151.56 362.5,151.5 Z"/></g>
<g><path style="opacity:1" fill="#2d286b" d="M 370.5,169.5 C 368.5,169.5 366.5,169.5 364.5,169.5C 361.327,163.899 362.16,158.899 367,154.5C 369.231,159.196 370.397,164.196 370.5,169.5 Z"/></g>
<g><path style="opacity:1" fill="#a7581f" d="M 331.5,174.5 C 331.5,175.167 331.5,175.833 331.5,176.5C 330.167,177.833 328.833,177.833 327.5,176.5C 326.833,174.833 326.167,173.167 325.5,171.5C 324.833,167.5 326.5,165.833 330.5,166.5C 330.178,168.722 330.845,170.556 332.5,172C 331.748,172.671 331.414,173.504 331.5,174.5 Z"/></g>
<g><path style="opacity:1" fill="#201a44" d="M 361.5,169.5 C 362.922,170.925 364.589,171.925 366.5,172.5C 366.767,174.965 367.434,177.299 368.5,179.5C 368.5,180.5 368.5,181.5 368.5,182.5C 363.365,179.817 361.031,175.483 361.5,169.5 Z"/></g>
<g><path style="opacity:1" fill="#f8a05b" d="M 364.5,169.5 C 366.5,169.5 368.5,169.5 370.5,169.5C 370.928,172.785 371.928,175.785 373.5,178.5C 373.506,181.85 374.506,184.85 376.5,187.5C 375.675,188.386 374.675,188.719 373.5,188.5C 373.657,187.127 373.49,185.793 373,184.5C 371.933,182.308 370.433,180.642 368.5,179.5C 367.434,177.299 366.767,174.965 366.5,172.5C 366.218,171.222 365.551,170.222 364.5,169.5 Z"/></g>
<g><path style="opacity:1" fill="#252871" d="M 295.5,172.5 C 295.365,177.95 296.031,183.284 297.5,188.5C 295.856,189.316 294.69,190.65 294,192.5C 294.427,197.661 294.26,202.661 293.5,207.5C 293.107,205.716 292.441,204.05 291.5,202.5C 287,193.834 283.334,184.834 280.5,175.5C 285.819,175.88 290.819,174.88 295.5,172.5 Z"/></g>
<g><path style="opacity:1" fill="#1c1844" d="M 277.5,175.5 C 278.5,175.5 279.5,175.5 280.5,175.5C 283.334,184.834 287,193.834 291.5,202.5C 290.833,204.167 290.167,205.833 289.5,207.5C 286.069,201.627 282.402,195.96 278.5,190.5C 278.813,186.958 278.479,183.625 277.5,180.5C 277.5,178.833 277.5,177.167 277.5,175.5 Z"/></g>
<g><path style="opacity:1" fill="#ec902a" d="M 327.5,176.5 C 328.833,177.833 330.167,177.833 331.5,176.5C 332.492,176.328 333.158,176.662 333.5,177.5C 331.738,178.262 330.738,179.596 330.5,181.5C 329.083,184.34 329.416,187.007 331.5,189.5C 333.025,192.563 335.025,195.23 337.5,197.5C 337.5,198.5 337.5,199.5 337.5,200.5C 333.833,200.5 330.167,200.5 326.5,200.5C 325.417,200.461 324.417,200.127 323.5,199.5C 322.833,195.353 322.166,191.353 321.5,187.5C 319.562,181.711 321.562,178.044 327.5,176.5 Z"/></g>
<g><path style="opacity:1" fill="#ec9028" d="M 334.5,177.5 C 336.959,177.31 338.626,178.31 339.5,180.5C 339.833,181.833 340.167,183.167 340.5,184.5C 338.167,186.498 335.5,187.832 332.5,188.5C 332.5,185.833 332.5,183.167 332.5,180.5C 333.167,179.5 333.833,178.5 334.5,177.5 Z"/></g>
<g><path style="opacity:1" fill="#e6a477" d="M 349.5,172.5 C 348.99,176.813 349.657,180.813 351.5,184.5C 351.5,185.833 351.5,187.167 351.5,188.5C 350.504,188.586 349.671,188.252 349,187.5C 348.184,182.316 348.35,177.316 349.5,172.5 Z"/></g>
<g><path style="opacity:1" fill="#181941" d="M 139.5,169.5 C 149.067,173.283 158.4,177.616 167.5,182.5C 166.081,183.451 164.415,183.784 162.5,183.5C 154.659,179.081 146.992,174.415 139.5,169.5 Z"/></g>
<g><path style="opacity:1" fill="#b5311a" d="M 6.5,180.5 C 10.5138,180.334 14.5138,180.501 18.5,181C 18.9574,181.414 19.2907,181.914 19.5,182.5C 16.4209,186.324 13.5876,190.324 11,194.5C 9.89037,196.037 8.39037,196.703 6.5,196.5C 6.5,191.167 6.5,185.833 6.5,180.5 Z"/></g>
<g><path style="opacity:0.165" fill="#e2a897" d="M 10.5,177.5 C 8.78086,178.022 7.44753,179.022 6.5,180.5C 6.5,185.833 6.5,191.167 6.5,196.5C 5.83333,196.5 5.16667,196.5 4.5,196.5C 5.45783,190.256 5.79116,183.923 5.5,177.5C 7.16667,177.5 8.83333,177.5 10.5,177.5 Z"/></g>
<g><path style="opacity:1" fill="#60433c" d="M 167.5,182.5 C 168.5,182.833 169.167,183.5 169.5,184.5C 166.941,184.802 164.607,184.468 162.5,183.5C 164.415,183.784 166.081,183.451 167.5,182.5 Z"/></g>
<g><path style="opacity:1" fill="#141041" d="M 333.5,177.5 C 333.833,177.5 334.167,177.5 334.5,177.5C 333.833,178.5 333.167,179.5 332.5,180.5C 331.698,181.952 331.198,183.618 331,185.5C 330.51,184.207 330.343,182.873 330.5,181.5C 330.738,179.596 331.738,178.262 333.5,177.5 Z"/></g>
<g><path style="opacity:1" fill="#6e6984" d="M 339.5,180.5 C 340.5,181.167 341.5,181.833 342.5,182.5C 342.5,183.833 342.5,185.167 342.5,186.5C 342.167,186.5 341.833,186.5 341.5,186.5C 341.167,185.833 340.833,185.167 340.5,184.5C 340.167,183.167 339.833,181.833 339.5,180.5 Z"/></g>
<g><path style="opacity:1" fill="#9d4a0f" d="M 332.5,180.5 C 332.5,183.167 332.5,185.833 332.5,188.5C 335.5,187.832 338.167,186.498 340.5,184.5C 340.833,185.167 341.167,185.833 341.5,186.5C 341.5,188.167 341.5,189.833 341.5,191.5C 339.234,191.141 337.401,191.808 336,193.5C 335.124,191.365 333.624,190.031 331.5,189.5C 329.416,187.007 329.083,184.34 330.5,181.5C 330.343,182.873 330.51,184.207 331,185.5C 331.198,183.618 331.698,181.952 332.5,180.5 Z"/></g>
<g><path style="opacity:1" fill="#4770cb" d="M 351.5,184.5 C 354.167,184.5 356.833,184.5 359.5,184.5C 358.791,185.404 357.791,185.737 356.5,185.5C 357.642,197.686 359.642,209.686 362.5,221.5C 361.167,221.5 359.833,221.5 358.5,221.5C 358.167,221.5 357.833,221.5 357.5,221.5C 357.665,218.15 357.498,214.817 357,211.5C 354.234,204.04 352.401,196.374 351.5,188.5C 351.5,187.167 351.5,185.833 351.5,184.5 Z"/></g>
<g><path style="opacity:1" fill="#2e233c" d="M 59.5,186.5 C 63.5546,186.176 67.5546,186.509 71.5,187.5C 69.5,187.833 67.5,188.167 65.5,188.5C 63.0478,188.461 61.0478,187.794 59.5,186.5 Z"/></g>
<g><path style="opacity:1" fill="#2e233c" d="M 103.5,186.5 C 107.555,186.176 111.555,186.509 115.5,187.5C 113.5,187.833 111.5,188.167 109.5,188.5C 107.048,188.461 105.048,187.794 103.5,186.5 Z"/></g>
<g><path style="opacity:1" fill="#6c87ea" d="M 321.5,189.5 C 322.033,200.826 322.366,212.159 322.5,223.5C 321.539,225.265 321.205,227.265 321.5,229.5C 316.821,229.666 312.155,229.499 307.5,229C 306.584,228.626 305.75,228.126 305,227.5C 303.24,216.577 301.74,205.577 300.5,194.5C 300.39,192.626 301.056,191.126 302.5,190C 301.552,189.517 300.552,189.351 299.5,189.5C 300.263,188.732 301.263,188.232 302.5,188C 301.483,186.951 301.316,185.784 302,184.5C 302.374,185.416 302.874,186.25 303.5,187C 306.706,187.296 309.872,187.796 313,188.5C 313.5,188.167 314,187.833 314.5,187.5C 313.333,184.5 312.167,181.5 311,178.5C 307.829,175.249 308.163,174.915 312,177.5C 313.333,180.833 314.667,184.167 316,187.5C 317.815,188.244 319.648,188.911 321.5,189.5 Z"/></g>
<g><path style="opacity:1" fill="#b12f1b" d="M 389.5,188.5 C 389.232,190.099 389.566,191.432 390.5,192.5C 391.11,193.391 391.443,194.391 391.5,195.5C 391.567,196.959 391.234,198.292 390.5,199.5C 382.356,200.206 374.356,201.539 366.5,203.5C 364.856,203.714 363.356,203.38 362,202.5C 361.333,199.167 361.333,195.833 362,192.5C 364.087,191.603 366.254,190.936 368.5,190.5C 370.331,189.948 371.997,189.948 373.5,190.5C 375.115,189.846 376.782,189.346 378.5,189C 377.112,188.111 377.278,187.611 379,187.5C 382.521,187.629 386.021,187.962 389.5,188.5 Z"/></g>
<g><path style="opacity:1" fill="#446ec9" d="M 297.5,188.5 C 298.167,188.833 298.833,189.167 299.5,189.5C 300.552,189.351 301.552,189.517 302.5,190C 301.056,191.126 300.39,192.626 300.5,194.5C 301.74,205.577 303.24,216.577 305,227.5C 305.75,228.126 306.584,228.626 307.5,229C 312.155,229.499 316.821,229.666 321.5,229.5C 321.5,229.833 321.5,230.167 321.5,230.5C 317.818,230.335 314.152,230.501 310.5,231C 309.748,231.671 309.414,232.504 309.5,233.5C 307.012,233.317 305.012,232.317 303.5,230.5C 300.675,230.919 298.509,229.919 297,227.5C 296.333,221.5 295.667,215.5 295,209.5C 294.283,208.956 293.783,208.289 293.5,207.5C 294.26,202.661 294.427,197.661 294,192.5C 294.69,190.65 295.856,189.316 297.5,188.5 Z"/></g>
<g><path style="opacity:1" fill="#d0dff1" d="M 341.5,186.5 C 341.833,186.5 342.167,186.5 342.5,186.5C 342.5,187.5 342.5,188.5 342.5,189.5C 343.5,189.5 344.5,189.5 345.5,189.5C 345.5,203.833 345.5,218.167 345.5,232.5C 342.615,232.806 339.948,232.473 337.5,231.5C 338.796,221.295 338.796,210.961 337.5,200.5C 337.5,199.5 337.5,198.5 337.5,197.5C 339.316,195.882 340.649,193.882 341.5,191.5C 341.5,189.833 341.5,188.167 341.5,186.5 Z"/></g>
<g><path style="opacity:0.722" fill="#e4afa4" d="M 389.5,188.5 C 390.249,189.531 390.915,190.698 391.5,192C 391.272,192.399 390.938,192.565 390.5,192.5C 389.566,191.432 389.232,190.099 389.5,188.5 Z"/></g>
<g><path style="opacity:1" fill="#3e243c" d="M 331.5,189.5 C 333.624,190.031 335.124,191.365 336,193.5C 337.401,191.808 339.234,191.141 341.5,191.5C 340.649,193.882 339.316,195.882 337.5,197.5C 335.025,195.23 333.025,192.563 331.5,189.5 Z"/></g>
<g><path style="opacity:1" fill="#b7381e" d="M 200.5,187.5 C 208.65,189.038 216.65,191.204 224.5,194C 228.344,195.347 231.011,197.847 232.5,201.5C 229.813,201.664 227.146,201.497 224.5,201C 217.183,195.178 209.183,190.678 200.5,187.5 Z"/></g>
<g><path style="opacity:1" fill="#242872" d="M 278.5,190.5 C 282.402,195.96 286.069,201.627 289.5,207.5C 289.041,214.589 288.041,221.589 286.5,228.5C 285.833,228.5 285.5,228.833 285.5,229.5C 284.041,229.567 282.708,229.234 281.5,228.5C 280.69,215.861 279.69,203.194 278.5,190.5 Z"/></g>
<g><path style="opacity:1" fill="#261c41" d="M 61.5,221.5 C 59.1667,225.833 55.8333,229.167 51.5,231.5C 50.1667,231.833 48.8333,232.167 47.5,232.5C 44.8707,233.714 42.204,233.714 39.5,232.5C 38.391,232.443 37.391,232.11 36.5,231.5C 31.5222,229.856 28.1889,226.522 26.5,221.5C 22.6446,211.232 25.3113,203.066 34.5,197C 46.7957,192.65 55.9624,196.15 62,207.5C 62.7168,212.22 62.5502,216.886 61.5,221.5 Z"/></g>
<g><path style="opacity:1" fill="#261c41" d="M 213.5,221.5 C 211.833,226.5 208.5,229.833 203.5,231.5C 202.391,231.557 201.391,231.89 200.5,232.5C 197.535,233.734 194.535,233.734 191.5,232.5C 190.609,231.89 189.609,231.557 188.5,231.5C 184.167,229.167 180.833,225.833 178.5,221.5C 174.663,206.489 180.33,197.823 195.5,195.5C 207.786,195.62 214.453,201.787 215.5,214C 215.59,216.744 214.923,219.244 213.5,221.5 Z"/></g>
<g><path style="opacity:1" fill="#df7816" d="M 160.5,195.5 C 147.163,195.333 133.829,195.5 120.5,196C 123.036,196.186 125.369,196.686 127.5,197.5C 125.5,197.5 123.5,197.5 121.5,197.5C 120.539,199.265 120.205,201.265 120.5,203.5C 118.5,203.5 116.5,203.5 114.5,203.5C 114.795,201.265 114.461,199.265 113.5,197.5C 111.5,197.5 109.5,197.5 107.5,197.5C 107.5,199.5 107.5,201.5 107.5,203.5C 107.5,203.833 107.5,204.167 107.5,204.5C 105.167,204.5 102.833,204.5 100.5,204.5C 100.5,204.167 100.5,203.833 100.5,203.5C 100.5,201.5 100.5,199.5 100.5,197.5C 98.5,197.5 96.5,197.5 94.5,197.5C 94.1667,197.5 93.8333,197.5 93.5,197.5C 88.4144,195.983 83.081,195.15 77.5,195C 105.336,194.17 133.003,194.336 160.5,195.5 Z"/></g>
<g><path style="opacity:1" fill="#da6a05" d="M 160.5,195.5 C 163.139,196.706 163.972,198.706 163,201.5C 160.873,205.589 158.373,209.423 155.5,213C 154.167,213.667 152.833,213.667 151.5,213C 144.893,208.614 137.726,205.448 130,203.5C 129.098,203.743 128.265,204.077 127.5,204.5C 127.5,204.167 127.5,203.833 127.5,203.5C 127.5,201.5 127.5,199.5 127.5,197.5C 125.369,196.686 123.036,196.186 120.5,196C 133.829,195.5 147.163,195.333 160.5,195.5 Z"/></g>
<g><path style="opacity:1" fill="#160822" d="M 64.5,221.5 C 63.5,221.5 62.5,221.5 61.5,221.5C 62.5502,216.886 62.7168,212.22 62,207.5C 55.9624,196.15 46.7957,192.65 34.5,197C 25.3113,203.066 22.6446,211.232 26.5,221.5C 25.5,221.5 24.5,221.5 23.5,221.5C 20.05,204.463 26.8834,194.796 44,192.5C 61.1166,194.796 67.95,204.463 64.5,221.5 Z"/></g>
<g><path style="opacity:0.016" fill="#f3dcd7" d="M 391.5,195.5 C 392.124,195.917 392.457,196.584 392.5,197.5C 392.253,198.713 391.586,199.38 390.5,199.5C 391.234,198.292 391.567,196.959 391.5,195.5 Z"/></g>
<g><path style="opacity:1" fill="#0a123f" d="M 94.5,197.5 C 96.5,197.5 98.5,197.5 100.5,197.5C 100.5,199.5 100.5,201.5 100.5,203.5C 98.5,203.5 96.5,203.5 94.5,203.5C 94.5,201.5 94.5,199.5 94.5,197.5 Z"/></g>
<g><path style="opacity:1" fill="#0c133f" d="M 113.5,197.5 C 113.5,199.5 113.5,201.5 113.5,203.5C 111.5,203.5 109.5,203.5 107.5,203.5C 107.5,201.5 107.5,199.5 107.5,197.5C 109.5,197.5 111.5,197.5 113.5,197.5 Z"/></g>
<g><path style="opacity:1" fill="#0a123f" d="M 121.5,197.5 C 123.5,197.5 125.5,197.5 127.5,197.5C 127.5,199.5 127.5,201.5 127.5,203.5C 125.5,203.5 123.5,203.5 121.5,203.5C 121.5,201.5 121.5,199.5 121.5,197.5 Z"/></g>
<g><path style="opacity:1" fill="#160822" d="M 216.5,221.5 C 215.5,221.5 214.5,221.5 213.5,221.5C 214.923,219.244 215.59,216.744 215.5,214C 214.453,201.787 207.786,195.62 195.5,195.5C 180.33,197.823 174.663,206.489 178.5,221.5C 177.833,221.5 177.167,221.5 176.5,221.5C 175.155,218.949 174.489,216.116 174.5,213C 176.086,200.581 183.086,193.747 195.5,192.5C 212.969,194.631 219.969,204.297 216.5,221.5 Z"/></g>
<g><path style="opacity:1" fill="#c5d7ec" d="M 277.5,180.5 C 278.479,183.625 278.813,186.958 278.5,190.5C 279.69,203.194 280.69,215.861 281.5,228.5C 280.025,230.69 278.025,232.023 275.5,232.5C 275.167,232.5 274.833,232.5 274.5,232.5C 262.167,232.5 249.833,232.5 237.5,232.5C 237.5,221.5 237.5,210.5 237.5,199.5C 250.326,195.836 262.993,191.669 275.5,187C 277.25,185.246 277.917,183.079 277.5,180.5 Z"/></g>
<g><path style="opacity:1" fill="#93190a" d="M 321.5,187.5 C 322.166,191.353 322.833,195.353 323.5,199.5C 324.417,200.127 325.417,200.461 326.5,200.5C 328.694,208.646 330.36,216.98 331.5,225.5C 331.167,225.5 330.833,225.5 330.5,225.5C 330.649,224.448 330.483,223.448 330,222.5C 329.187,224.436 328.687,226.436 328.5,228.5C 327.833,229.5 327.167,230.5 326.5,231.5C 325.167,231.5 323.833,231.5 322.5,231.5C 322.5,228.833 322.5,226.167 322.5,223.5C 322.366,212.159 322.033,200.826 321.5,189.5C 321.5,188.833 321.5,188.167 321.5,187.5 Z"/></g>
<g><path style="opacity:0.998" fill="#ebeff6" d="M 390.5,199.5 C 389.469,200.249 388.302,200.915 387,201.5C 385.415,208.002 382.748,214.002 379,219.5C 375.25,224.072 371.417,228.406 367.5,232.5C 367.167,232.5 366.833,232.5 366.5,232.5C 366.5,231.5 366.5,230.5 366.5,229.5C 366.779,226.882 367.446,224.382 368.5,222C 368.272,221.601 367.938,221.435 367.5,221.5C 368.086,219.757 368.419,217.924 368.5,216C 367.38,211.918 366.713,207.752 366.5,203.5C 374.356,201.539 382.356,200.206 390.5,199.5 Z"/></g>
<g><path style="opacity:1" fill="#b4311b" d="M 326.5,200.5 C 330.167,200.5 333.833,200.5 337.5,200.5C 338.796,210.961 338.796,221.295 337.5,231.5C 337.167,231.5 336.833,231.5 336.5,231.5C 334.833,231.5 333.167,231.5 331.5,231.5C 331.5,229.5 331.5,227.5 331.5,225.5C 330.36,216.98 328.694,208.646 326.5,200.5 Z"/></g>
<g><path style="opacity:1" fill="#4f3939" d="M 93.5,197.5 C 93.8333,197.5 94.1667,197.5 94.5,197.5C 94.5,199.5 94.5,201.5 94.5,203.5C 96.5,203.5 98.5,203.5 100.5,203.5C 100.5,203.833 100.5,204.167 100.5,204.5C 98.1667,204.5 95.8333,204.5 93.5,204.5C 93.5,202.167 93.5,199.833 93.5,197.5 Z"/></g>
<g><path style="opacity:1" fill="#7088ec" d="M 368.5,184.5 C 368.5,186.5 368.5,188.5 368.5,190.5C 366.254,190.936 364.087,191.603 362,192.5C 361.333,195.833 361.333,199.167 362,202.5C 363.356,203.38 364.856,203.714 366.5,203.5C 366.713,207.752 367.38,211.918 368.5,216C 368.419,217.924 368.086,219.757 367.5,221.5C 367.167,221.5 366.833,221.5 366.5,221.5C 365.167,221.5 363.833,221.5 362.5,221.5C 359.642,209.686 357.642,197.686 356.5,185.5C 357.791,185.737 358.791,185.404 359.5,184.5C 361.592,184.439 363.092,183.439 364,181.5C 364.483,182.448 364.649,183.448 364.5,184.5C 365.833,184.5 367.167,184.5 368.5,184.5 Z"/></g>
<g><path style="opacity:1" fill="#6f4a36" d="M 113.5,197.5 C 114.461,199.265 114.795,201.265 114.5,203.5C 116.5,203.5 118.5,203.5 120.5,203.5C 120.205,201.265 120.539,199.265 121.5,197.5C 121.5,199.5 121.5,201.5 121.5,203.5C 123.5,203.5 125.5,203.5 127.5,203.5C 127.5,203.833 127.5,204.167 127.5,204.5C 125.5,204.5 123.5,204.5 121.5,204.5C 121.5,206.833 121.5,209.167 121.5,211.5C 118.941,211.802 116.607,211.468 114.5,210.5C 116.5,210.5 118.5,210.5 120.5,210.5C 120.5,208.5 120.5,206.5 120.5,204.5C 118.5,204.5 116.5,204.5 114.5,204.5C 112.167,204.5 109.833,204.5 107.5,204.5C 107.5,204.167 107.5,203.833 107.5,203.5C 109.5,203.5 111.5,203.5 113.5,203.5C 113.5,201.5 113.5,199.5 113.5,197.5 Z"/></g>
<g><path style="opacity:1" fill="#1b173e" d="M 100.5,204.5 C 102.833,204.5 105.167,204.5 107.5,204.5C 107.5,206.833 107.5,209.167 107.5,211.5C 105.167,211.5 102.833,211.5 100.5,211.5C 100.5,209.167 100.5,206.833 100.5,204.5 Z"/></g>
<g><path style="opacity:1" fill="#040e3f" d="M 114.5,204.5 C 116.5,204.5 118.5,204.5 120.5,204.5C 120.5,206.5 120.5,208.5 120.5,210.5C 118.5,210.5 116.5,210.5 114.5,210.5C 114.5,208.5 114.5,206.5 114.5,204.5 Z"/></g>
<g><path style="opacity:1" fill="#8da9e6" d="M 191.5,202.5 C 199.54,200.935 205.04,203.935 208,211.5C 208.136,222.699 202.636,227.199 191.5,225C 185.703,222.24 183.537,217.74 185,211.5C 185.251,213.433 185.751,215.266 186.5,217C 189.657,217.217 190.824,215.717 190,212.5C 188.414,211.624 186.914,210.624 185.5,209.5C 186.833,206.507 188.833,204.173 191.5,202.5 Z"/></g>
<g><path style="opacity:1" fill="#271d43" d="M 194.5,211.5 C 198.161,211.35 199.161,212.85 197.5,216C 193.707,216.487 192.707,214.987 194.5,211.5 Z"/></g>
<g><path style="opacity:1" fill="#251c41" d="M 204.5,210.5 C 205.725,211.152 206.392,212.319 206.5,214C 205.654,218.286 204.32,218.286 202.5,214C 202.862,212.566 203.528,211.399 204.5,210.5 Z"/></g>
<g><path style="opacity:1" fill="#271d43" d="M 190.5,204.5 C 191.833,204.5 193.167,204.5 194.5,204.5C 194.49,210.004 192.49,210.837 188.5,207C 189.381,206.292 190.047,205.458 190.5,204.5 Z"/></g>
<g><path style="opacity:1" fill="#24193e" d="M 198.5,204.5 C 203.526,205.098 204.192,206.764 200.5,209.5C 198.783,208.332 198.116,206.665 198.5,204.5 Z"/></g>
<g><path style="opacity:1" fill="#cdddf0" d="M 291.5,202.5 C 292.441,204.05 293.107,205.716 293.5,207.5C 293.783,208.289 294.283,208.956 295,209.5C 295.667,215.5 296.333,221.5 297,227.5C 298.509,229.919 300.675,230.919 303.5,230.5C 303.167,231.5 302.5,232.167 301.5,232.5C 296.5,232.5 291.5,232.5 286.5,232.5C 286.5,231.167 286.5,229.833 286.5,228.5C 288.041,221.589 289.041,214.589 289.5,207.5C 290.167,205.833 290.833,204.167 291.5,202.5 Z"/></g>
<g><path style="opacity:1" fill="#8eaae8" d="M 36.5,222.5 C 34.8267,221.657 33.66,220.324 33,218.5C 31.8867,205.28 37.72,200.447 50.5,204C 55.645,208.598 56.8117,214.098 54,220.5C 49.8604,225.211 44.6938,226.711 38.5,225C 37.6195,224.292 36.9528,223.458 36.5,222.5 Z"/></g>
<g><path style="opacity:1" fill="#271d43" d="M 42.5,211.5 C 46.1612,211.35 47.1612,212.85 45.5,216C 41.7071,216.487 40.7071,214.987 42.5,211.5 Z"/></g>
<g><path style="opacity:1" fill="#261d42" d="M 33.5,210.5 C 35.8444,210.506 37.1777,211.673 37.5,214C 37.2906,215.871 36.2906,217.038 34.5,217.5C 33.5258,215.257 33.1924,212.924 33.5,210.5 Z"/></g>
<g><path style="opacity:1" fill="#281f45" d="M 45.5,204.5 C 47.8421,204.504 49.8421,205.337 51.5,207C 47.6027,210.756 45.6027,209.923 45.5,204.5 Z"/></g>
<g><path style="opacity:1" fill="#2c234b" d="M 40.5,203.5 C 41.6491,203.791 42.3158,204.624 42.5,206C 41.0941,210.039 39.0941,210.372 36.5,207C 37.7305,205.595 39.0639,204.429 40.5,203.5 Z"/></g>
<g><path style="opacity:1" fill="#2b2349" d="M 51.5,210.5 C 53.7224,210.559 54.7224,211.725 54.5,214C 53.4091,218.475 51.7424,218.641 49.5,214.5C 49.7517,212.927 50.4183,211.594 51.5,210.5 Z"/></g>
<g><path style="opacity:1" fill="#2d254d" d="M 36.5,222.5 C 38.2142,217.463 40.2142,217.297 42.5,222C 42.1667,222.833 41.8333,223.667 41.5,224.5C 39.9246,223.544 38.258,222.877 36.5,222.5 Z"/></g>
<g><path style="opacity:1" fill="#271d43" d="M 191.5,218.5 C 194.267,219.754 194.933,221.754 193.5,224.5C 191.483,223.826 189.817,222.659 188.5,221C 189.571,220.148 190.571,219.315 191.5,218.5 Z"/></g>
<g><path style="opacity:1" fill="#2e274e" d="M 199.5,218.5 C 201.384,218.712 202.717,219.712 203.5,221.5C 201.929,223.415 199.929,224.415 197.5,224.5C 197.259,222.114 197.925,220.114 199.5,218.5 Z"/></g>
<g><path style="opacity:1" fill="#261c42" d="M 47.5,218.5 C 52.5235,220.625 52.1902,222.625 46.5,224.5C 45.2291,222.194 45.5624,220.194 47.5,218.5 Z"/></g>
<g><path style="opacity:1" fill="#fda562" d="M 366.5,221.5 C 366.833,221.5 367.167,221.5 367.5,221.5C 367.938,221.435 368.272,221.601 368.5,222C 367.446,224.382 366.779,226.882 366.5,229.5C 365.5,229.5 364.5,229.5 363.5,229.5C 363.5,227.167 363.5,224.833 363.5,222.5C 364.791,222.737 365.791,222.404 366.5,221.5 Z"/></g>
<g><path style="opacity:1" fill="#cecbc9" d="M 63.5,223.5 C 101.167,224.833 138.833,224.833 176.5,223.5C 177.043,223.56 177.376,223.893 177.5,224.5C 155.177,225.5 132.843,225.833 110.5,225.5C 94.4861,225.833 78.4861,225.499 62.5,224.5C 62.6236,223.893 62.9569,223.56 63.5,223.5 Z"/></g>
<g><path style="opacity:0.998" fill="#eaeff5" d="M 23.5,221.5 C 24.5,221.5 25.5,221.5 26.5,221.5C 28.1889,226.522 31.5222,229.856 36.5,231.5C 32.03,232.486 27.3633,232.819 22.5,232.5C 21.4336,230.299 20.767,227.965 20.5,225.5C 18.901,225.768 17.5676,225.434 16.5,224.5C 19.2469,224.813 21.9135,224.48 24.5,223.5C 24.1373,222.817 23.8039,222.15 23.5,221.5 Z"/></g>
<g><path style="opacity:1" fill="#c2d4eb" d="M 176.5,221.5 C 177.167,221.5 177.833,221.5 178.5,221.5C 180.833,225.833 184.167,229.167 188.5,231.5C 162.672,232.498 136.672,232.831 110.5,232.5C 110.5,230.167 110.5,227.833 110.5,225.5C 132.843,225.833 155.177,225.5 177.5,224.5C 177.376,223.893 177.043,223.56 176.5,223.5C 176.5,222.833 176.5,222.167 176.5,221.5 Z"/></g>
<g><path style="opacity:1" fill="#6673c9" d="M 330.5,225.5 C 330.573,227.027 329.906,228.027 328.5,228.5C 328.687,226.436 329.187,224.436 330,222.5C 330.483,223.448 330.649,224.448 330.5,225.5 Z"/></g>
<g><path style="opacity:1" fill="#d7e6f7" d="M 61.5,221.5 C 62.5,221.5 63.5,221.5 64.5,221.5C 64.1667,222.167 63.8333,222.833 63.5,223.5C 62.9569,223.56 62.6236,223.893 62.5,224.5C 78.4861,225.499 94.4861,225.833 110.5,225.5C 110.5,227.833 110.5,230.167 110.5,232.5C 90.6596,232.83 70.9929,232.497 51.5,231.5C 55.8333,229.167 59.1667,225.833 61.5,221.5 Z"/></g>
<g><path style="opacity:1" fill="#faa769" d="M 357.5,221.5 C 357.833,221.5 358.167,221.5 358.5,221.5C 359.209,222.404 360.209,222.737 361.5,222.5C 360.908,225.127 360.575,227.794 360.5,230.5C 359.609,229.89 358.609,229.557 357.5,229.5C 357.5,226.833 357.5,224.167 357.5,221.5 Z"/></g>
<g><path style="opacity:1" fill="#e6d8d4" d="M 358.5,221.5 C 359.833,221.5 361.167,221.5 362.5,221.5C 363.833,221.5 365.167,221.5 366.5,221.5C 365.791,222.404 364.791,222.737 363.5,222.5C 363.5,224.833 363.5,227.167 363.5,229.5C 362.609,230.11 361.609,230.443 360.5,230.5C 360.575,227.794 360.908,225.127 361.5,222.5C 360.209,222.737 359.209,222.404 358.5,221.5 Z"/></g>
<g><path style="opacity:1" fill="#1b163f" d="M 281.5,228.5 C 282.708,229.234 284.041,229.567 285.5,229.5C 285.5,230.833 285.5,232.167 285.5,233.5C 281.958,233.813 278.625,233.479 275.5,232.5C 278.025,232.023 280.025,230.69 281.5,228.5 Z"/></g>
<g><path style="opacity:1" fill="#c4c5d5" d="M 330.5,225.5 C 330.833,225.5 331.167,225.5 331.5,225.5C 331.5,227.5 331.5,229.5 331.5,231.5C 331.209,232.649 330.376,233.316 329,233.5C 327.624,233.316 326.791,232.649 326.5,231.5C 327.167,230.5 327.833,229.5 328.5,228.5C 329.906,228.027 330.573,227.027 330.5,225.5 Z"/></g>
<g><path style="opacity:1" fill="#cd6417" d="M 357.5,229.5 C 358.609,229.557 359.609,229.89 360.5,230.5C 361.609,230.443 362.609,230.11 363.5,229.5C 364.5,229.5 365.5,229.5 366.5,229.5C 366.5,230.5 366.5,231.5 366.5,232.5C 361.695,233.487 356.695,233.821 351.5,233.5C 351.5,233.167 351.5,232.833 351.5,232.5C 353.517,231.471 355.517,230.471 357.5,229.5 Z"/></g>
<g><path style="opacity:1" fill="#9591a1" d="M 36.5,231.5 C 37.391,232.11 38.391,232.443 39.5,232.5C 33.8333,233.833 28.1667,233.833 22.5,232.5C 27.3633,232.819 32.03,232.486 36.5,231.5 Z"/></g>
<g><path style="opacity:1" fill="#80829a" d="M 51.5,231.5 C 70.9929,232.497 90.6596,232.83 110.5,232.5C 136.672,232.831 162.672,232.498 188.5,231.5C 189.609,231.557 190.609,231.89 191.5,232.5C 143.5,233.833 95.5,233.833 47.5,232.5C 48.8333,232.167 50.1667,231.833 51.5,231.5 Z"/></g>
<g><path style="opacity:1" fill="#7f819a" d="M 203.5,231.5 C 214.654,232.495 225.988,232.828 237.5,232.5C 249.833,232.5 262.167,232.5 274.5,232.5C 249.833,233.833 225.167,233.833 200.5,232.5C 201.391,231.89 202.391,231.557 203.5,231.5 Z"/></g>
<g><path style="opacity:1" fill="#8689a0" d="M 286.5,228.5 C 286.5,229.833 286.5,231.167 286.5,232.5C 291.5,232.5 296.5,232.5 301.5,232.5C 296.36,233.488 291.026,233.821 285.5,233.5C 285.5,232.167 285.5,230.833 285.5,229.5C 285.5,228.833 285.833,228.5 286.5,228.5 Z"/></g>
<g><path style="opacity:1" fill="#86869b" d="M 336.5,231.5 C 336.833,231.5 337.167,231.5 337.5,231.5C 339.948,232.473 342.615,232.806 345.5,232.5C 347.5,232.5 349.5,232.5 351.5,232.5C 351.5,232.833 351.5,233.167 351.5,233.5C 346.056,234.108 341.056,233.442 336.5,231.5 Z"/></g>
<g><path style="opacity:0.682" fill="#49394d" d="M 322.5,223.5 C 322.5,226.167 322.5,228.833 322.5,231.5C 323.833,231.5 325.167,231.5 326.5,231.5C 326.791,232.649 327.624,233.316 329,233.5C 330.376,233.316 331.209,232.649 331.5,231.5C 333.167,231.5 334.833,231.5 336.5,231.5C 341.056,233.442 346.056,234.108 351.5,233.5C 356.695,233.821 361.695,233.487 366.5,232.5C 366.833,232.5 367.167,232.5 367.5,232.5C 378.167,232.5 388.833,232.5 399.5,232.5C 399.5,233.167 399.5,233.833 399.5,234.5C 266.167,234.5 132.833,234.5 -0.5,234.5C -0.5,233.833 -0.5,233.167 -0.5,232.5C 7.16667,232.5 14.8333,232.5 22.5,232.5C 28.1667,233.833 33.8333,233.833 39.5,232.5C 42.204,233.714 44.8707,233.714 47.5,232.5C 95.5,233.833 143.5,233.833 191.5,232.5C 194.535,233.734 197.535,233.734 200.5,232.5C 225.167,233.833 249.833,233.833 274.5,232.5C 274.833,232.5 275.167,232.5 275.5,232.5C 278.625,233.479 281.958,233.813 285.5,233.5C 291.026,233.821 296.36,233.488 301.5,232.5C 302.5,232.167 303.167,231.5 303.5,230.5C 305.012,232.317 307.012,233.317 309.5,233.5C 313.5,233.5 317.5,233.5 321.5,233.5C 321.5,232.5 321.5,231.5 321.5,230.5C 321.5,230.167 321.5,229.833 321.5,229.5C 321.205,227.265 321.539,225.265 322.5,223.5 Z"/></g>
<g><path style="opacity:1" fill="#beccdf" d="M 321.5,230.5 C 321.5,231.5 321.5,232.5 321.5,233.5C 317.5,233.5 313.5,233.5 309.5,233.5C 309.414,232.504 309.748,231.671 310.5,231C 314.152,230.501 317.818,230.335 321.5,230.5 Z"/></g>
</svg>
