<?xml version="1.0" encoding="UTF-8"?>
<!DOCTYPE svg PUBLIC "-//W3C//DTD SVG 1.1//EN" "http://www.w3.org/Graphics/SVG/1.1/DTD/svg11.dtd">
<svg xmlns="http://www.w3.org/2000/svg" version="1.1" width="400px" height="372px" style="shape-rendering:geometricPrecision; text-rendering:geometricPrecision; image-rendering:optimizeQuality; fill-rule:evenodd; clip-rule:evenodd" xmlns:xlink="http://www.w3.org/1999/xlink">
<g><path style="opacity:0.72" fill="#e9eef6" d="M 107.5,9.5 C 108.552,9.35055 109.552,9.51722 110.5,10C 109.663,11.0113 109.33,12.1779 109.5,13.5C 110.833,13.5 112.167,13.5 113.5,13.5C 113.5,14.5 113.5,15.5 113.5,16.5C 110.477,16.1052 109.477,17.1052 110.5,19.5C 109.675,20.3857 108.675,20.719 107.5,20.5C 107.5,19.1667 107.5,17.8333 107.5,16.5C 101.108,15.8885 101.108,14.5552 107.5,12.5C 106.209,11.4728 106.209,10.4728 107.5,9.5 Z"/></g>
<g><path style="opacity:0.004" fill="#fffefe" d="M 118.5,20.5 C 118.897,19.475 119.563,19.3083 120.5,20C 119.906,20.4643 119.239,20.631 118.5,20.5 Z"/></g>
<g><path style="opacity:1" fill="#fdfdfc" d="M 155.5,27.5 C 191.895,27.0192 228.228,27.5192 264.5,29C 269.116,31.618 272.283,35.4514 274,40.5C 274.5,55.4963 274.667,70.4963 274.5,85.5C 272.142,85.2525 270.142,85.9192 268.5,87.5C 267.671,80.3448 267.171,73.0115 267,65.5C 265.749,62.6193 263.583,60.786 260.5,60C 247.487,59.1673 234.487,59.334 221.5,60.5C 220.305,62.7513 219.305,65.0846 218.5,67.5C 231.368,74.5178 244.534,81.1844 258,87.5C 256.65,96.2396 254.65,104.906 252,113.5C 251.5,128.496 251.333,143.496 251.5,158.5C 243.5,158.5 235.5,158.5 227.5,158.5C 227.5,163.5 227.5,168.5 227.5,173.5C 236.5,173.5 245.5,173.5 254.5,173.5C 254.5,176.167 254.5,178.833 254.5,181.5C 258.833,181.5 263.167,181.5 267.5,181.5C 267.172,170.986 267.506,160.653 268.5,150.5C 270.54,152.177 272.54,153.844 274.5,155.5C 274.5,188.167 274.5,220.833 274.5,253.5C 273.415,255.582 271.915,255.916 270,254.5C 265.333,243.167 260.667,231.833 256,220.5C 254.786,218.951 253.286,217.785 251.5,217C 247.644,216.823 243.977,216.323 240.5,215.5C 249.5,215.5 258.5,215.5 267.5,215.5C 267.5,204.5 267.5,193.5 267.5,182.5C 262.833,182.5 258.167,182.5 253.5,182.5C 253.5,180.167 253.5,177.833 253.5,175.5C 244.833,175.5 236.167,175.5 227.5,175.5C 227.5,176.5 227.5,177.5 227.5,178.5C 226.833,178.5 226.5,178.833 226.5,179.5C 225.668,163.005 225.168,146.338 225,129.5C 222.705,126.203 220.038,123.203 217,120.5C 215.059,124.048 213.393,127.714 212,131.5C 209.689,133.11 207.189,134.443 204.5,135.5C 204.878,150.468 205.878,165.468 207.5,180.5C 213.358,180.178 219.025,180.511 224.5,181.5C 216.472,181.831 208.472,181.498 200.5,180.5C 198.51,170.224 196.843,159.891 195.5,149.5C 191.094,149.748 186.76,150.415 182.5,151.5C 182.5,150.5 182.5,149.5 182.5,148.5C 182.435,148.062 182.601,147.728 183,147.5C 183.388,148.428 184.055,149.095 185,149.5C 187.5,148.667 190,147.833 192.5,147C 193.288,143.924 193.788,140.758 194,137.5C 199.063,135.478 204.23,133.645 209.5,132C 211.748,128.171 213.748,124.171 215.5,120C 211.046,114.544 206.213,109.377 201,104.5C 197.717,106.891 194.217,108.891 190.5,110.5C 190.5,110.167 190.5,109.833 190.5,109.5C 194.477,107.507 198.144,105.007 201.5,102C 207.932,87.9744 213.932,73.8078 219.5,59.5C 196.434,59.031 173.434,59.531 150.5,61C 148.383,62.7309 146.883,64.8976 146,67.5C 145.83,78.0081 145.33,88.3415 144.5,98.5C 142.833,98.5 141.167,98.5 139.5,98.5C 139.333,79.4971 139.5,60.4971 140,41.5C 142.177,33.499 147.343,28.8323 155.5,27.5 Z"/></g>
<g><path style="opacity:0.598" fill="#e0e7f2" d="M 117.5,21.5 C 118.5,21.5 119.5,21.5 120.5,21.5C 120.5,23.5 120.5,25.5 120.5,27.5C 122.792,27.7564 124.959,27.4231 127,26.5C 127.374,27.4162 127.874,28.2496 128.5,29C 126.063,30.3747 123.397,30.8747 120.5,30.5C 120.5,32.8333 120.5,35.1667 120.5,37.5C 119.5,37.5 118.5,37.5 117.5,37.5C 117.5,35.1667 117.5,32.8333 117.5,30.5C 115.076,30.8076 112.743,30.4742 110.5,29.5C 110.709,28.914 111.043,28.414 111.5,28C 113.473,27.5045 115.473,27.3379 117.5,27.5C 117.5,25.5 117.5,23.5 117.5,21.5 Z"/></g>
<g><path style="opacity:0.004" fill="#fefefe" d="M 326.5,36.5 C 325.833,35.1667 325.833,35.1667 326.5,36.5 Z"/></g>
<g><path style="opacity:0.004" fill="#fefefe" d="M 339.5,35.5 C 340.833,36.1667 340.833,36.1667 339.5,35.5 Z"/></g>
<g><path style="opacity:0.004" fill="#fefefd" d="M 322.5,38.5 C 321.833,37.1667 321.833,37.1667 322.5,38.5 Z"/></g>
<g><path style="opacity:0.004" fill="#fefffd" d="M 343.5,37.5 C 344.833,38.1667 344.833,38.1667 343.5,37.5 Z"/></g>
<g><path style="opacity:0.004" fill="#fefffd" d="M 319.5,41.5 C 318.833,40.1667 318.833,40.1667 319.5,41.5 Z"/></g>
<g><path style="opacity:1" fill="#9d9ba0" d="M 247.5,41.5 C 252.943,41.2013 253.61,42.5346 249.5,45.5C 247.204,44.6317 246.537,43.2984 247.5,41.5 Z"/></g>
<g><path style="opacity:1" fill="#aaa9ad" d="M 253.5,41.5 C 255.857,41.3367 258.19,41.5034 260.5,42C 261.833,43 261.833,44 260.5,45C 258.19,45.4966 255.857,45.6633 253.5,45.5C 253.5,44.1667 253.5,42.8333 253.5,41.5 Z"/></g>
<g><path style="opacity:1" fill="#5c5c5b" d="M 258.5,25.5 C 224.167,26.1667 189.833,26.8333 155.5,27.5C 147.343,28.8323 142.177,33.499 140,41.5C 139.5,60.4971 139.333,79.4971 139.5,98.5C 131.5,99.8333 123.5,99.8333 115.5,98.5C 122.833,98.5 130.167,98.5 137.5,98.5C 137.333,79.4971 137.5,60.4971 138,41.5C 140.408,34.0908 145.242,28.9241 152.5,26C 187.832,25.5 223.165,25.3333 258.5,25.5 Z"/></g>
<g><path style="opacity:0.999" fill="#ecf0f6" d="M 339.5,36.5 C 340.514,37.6737 341.847,38.3404 343.5,38.5C 344.254,40.5053 345.421,41.172 347,40.5C 348.712,44.8492 349.879,49.3492 350.5,54C 349.672,57.0093 349.172,59.8427 349,62.5C 348.667,62.1667 348.333,61.8333 348,61.5C 346.342,64.3243 344.175,66.6576 341.5,68.5C 340.357,68.9081 339.357,69.5748 338.5,70.5C 340.163,73.6561 341.33,76.9894 342,80.5C 343.334,91.1706 344.667,101.837 346,112.5C 347.397,118.021 349.23,122.854 351.5,127C 353.42,130.965 355.42,134.798 357.5,138.5C 361.233,156.207 357.899,171.874 347.5,185.5C 344.06,184.489 340.726,183.489 337.5,182.5C 337.335,179.482 337.502,176.482 338,173.5C 340.436,170.69 342.602,167.69 344.5,164.5C 343.873,163.583 343.539,162.583 343.5,161.5C 343.5,160.5 343.5,159.5 343.5,158.5C 344.5,158.5 345.5,158.5 346.5,158.5C 345.365,150.872 340.865,146.872 333,146.5C 325.442,146.864 322.276,150.53 323.5,157.5C 323.141,162.582 324.307,167.248 327,171.5C 327.805,174.696 327.638,177.696 326.5,180.5C 321.564,180.058 316.731,179.058 312,177.5C 311.098,177.743 310.265,178.077 309.5,178.5C 300.682,170.495 291.515,162.828 282,155.5C 280.442,151.637 278.609,147.97 276.5,144.5C 276.5,141.833 276.5,139.167 276.5,136.5C 283.833,136.5 291.167,136.5 298.5,136.5C 299.833,136.5 300.5,137.167 300.5,138.5C 302.766,142.436 305.766,145.769 309.5,148.5C 310.242,151.786 312.075,153.12 315,152.5C 314.744,147.624 313.91,142.791 312.5,138C 315.083,136.405 317.083,134.238 318.5,131.5C 319.966,130.653 320.8,129.32 321,127.5C 321.667,116.167 321.667,104.833 321,93.5C 319.988,89.9916 317.822,87.6582 314.5,86.5C 313.737,85.7321 312.737,85.2321 311.5,85C 299.838,84.5001 288.171,84.3335 276.5,84.5C 276.5,78.8333 276.5,73.1667 276.5,67.5C 286.766,55.6723 299.766,50.6723 315.5,52.5C 315.792,47.8987 317.125,44.232 319.5,41.5C 320.833,40.8333 321.833,39.8333 322.5,38.5C 323.995,38.0113 325.329,37.3446 326.5,36.5C 330.833,35.1667 335.167,35.1667 339.5,36.5 Z"/></g>
<g><path style="opacity:1" fill="#fefefe" d="M 328.5,37.5 C 342.952,36.4521 349.452,43.1188 348,57.5C 346.307,63.193 342.64,66.8597 337,68.5C 332.58,61.5384 326.413,56.8718 318.5,54.5C 317.436,46.2997 320.769,40.633 328.5,37.5 Z"/></g>
<g><path style="opacity:1" fill="#f0eeec" d="M 190.5,109.5 C 186.167,102.833 181.833,96.1667 177.5,89.5C 180.842,97.0158 184.842,104.182 189.5,111C 185.615,113.725 181.615,116.225 177.5,118.5C 176.749,117.427 175.749,117.26 174.5,118C 171.888,119.889 169.055,121.389 166,122.5C 162.7,120.367 159.866,117.701 157.5,114.5C 157.167,114.833 156.833,115.167 156.5,115.5C 159.15,118.651 161.984,121.651 165,124.5C 166.158,129.118 166.992,133.784 167.5,138.5C 162.903,140.032 158.236,141.365 153.5,142.5C 153.667,130.162 153.5,117.829 153,105.5C 151.149,101.843 148.316,99.5099 144.5,98.5C 145.33,88.3415 145.83,78.0081 146,67.5C 146.883,64.8976 148.383,62.7309 150.5,61C 173.434,59.531 196.434,59.031 219.5,59.5C 213.932,73.8078 207.932,87.9744 201.5,102C 198.144,105.007 194.477,107.507 190.5,109.5 Z"/></g>
<g><path style="opacity:1" fill="#f0efed" d="M 268.5,87.5 C 268.5,87.8333 268.5,88.1667 268.5,88.5C 266.39,89.4525 265.223,91.1192 265,93.5C 264.333,105.167 264.333,116.833 265,128.5C 266.118,132.456 268.618,134.789 272.5,135.5C 273.391,136.261 274.058,137.261 274.5,138.5C 273.628,140.054 273.628,141.388 274.5,142.5C 274.631,143.239 274.464,143.906 274,144.5C 270.36,139.235 267.86,139.568 266.5,145.5C 267.174,147.195 267.841,148.862 268.5,150.5C 267.506,160.653 267.172,170.986 267.5,181.5C 263.167,181.5 258.833,181.5 254.5,181.5C 254.5,178.833 254.5,176.167 254.5,173.5C 245.5,173.5 236.5,173.5 227.5,173.5C 227.5,168.5 227.5,163.5 227.5,158.5C 235.5,158.5 243.5,158.5 251.5,158.5C 251.333,143.496 251.5,128.496 252,113.5C 254.65,104.906 256.65,96.2396 258,87.5C 244.534,81.1844 231.368,74.5178 218.5,67.5C 219.305,65.0846 220.305,62.7513 221.5,60.5C 234.487,59.334 247.487,59.1673 260.5,60C 263.583,60.786 265.749,62.6193 267,65.5C 267.171,73.0115 267.671,80.3448 268.5,87.5 Z"/></g>
<g><path style="opacity:0.004" fill="#fefffc" d="M 78.5,64.5 C 77.8333,63.1667 77.8333,63.1667 78.5,64.5 Z"/></g>
<g><path style="opacity:0.004" fill="#fefffc" d="M 70.5,66.5 C 69.8333,65.1667 69.8333,65.1667 70.5,66.5 Z"/></g>
<g><path style="opacity:0.999" fill="#e0e7f2" d="M 98.5,68.5 C 99.1894,69.7736 100.023,69.7736 101,68.5C 101.236,70.1193 102.069,71.1193 103.5,71.5C 104.5,73.1667 105.833,74.5 107.5,75.5C 110.426,80.3511 113.093,85.3511 115.5,90.5C 114.607,93.0841 114.274,95.7508 114.5,98.5C 113.5,98.5 112.5,98.5 111.5,98.5C 110.655,79.9884 100.989,69.9884 82.5,68.5C 61.4592,70.7118 51.9592,82.3784 54,103.5C 62.022,124.674 76.522,131.007 97.5,122.5C 97.5,128.5 97.5,134.5 97.5,140.5C 96.8335,135.983 96.1669,131.317 95.5,126.5C 84.2753,131.12 73.6086,130.12 63.5,123.5C 60.5342,121.201 57.8675,118.534 55.5,115.5C 54.7368,113.632 53.7368,111.965 52.5,110.5C 52.3417,108.179 51.3417,106.346 49.5,105C 50.8138,99.8639 50.8138,94.6972 49.5,89.5C 52.3309,83.8351 55.6642,78.5018 59.5,73.5C 60.5,73.1667 61.1667,72.5 61.5,71.5C 64.3786,69.5619 67.3786,67.8953 70.5,66.5C 73.3725,66.1977 76.0392,65.531 78.5,64.5C 81.4475,64.7771 84.2809,64.4438 87,63.5C 90.5562,65.6361 94.3895,67.3027 98.5,68.5 Z"/></g>
<g><path style="opacity:0.004" fill="#fdfffd" d="M 95.5,65.5 C 96.8333,66.1667 96.8333,66.1667 95.5,65.5 Z"/></g>
<g><path style="opacity:0.004" fill="#fefffc" d="M 98.5,67.5 C 99.8333,68.1667 99.8333,68.1667 98.5,67.5 Z"/></g>
<g><path style="opacity:1" fill="#8a8a89" d="M 258.5,25.5 C 266.185,27.014 271.685,31.3473 275,38.5C 276.42,48.0862 276.92,57.7529 276.5,67.5C 276.5,73.1667 276.5,78.8333 276.5,84.5C 276.158,85.3382 275.492,85.6716 274.5,85.5C 274.667,70.4963 274.5,55.4963 274,40.5C 272.283,35.4514 269.116,31.618 264.5,29C 228.228,27.5192 191.895,27.0192 155.5,27.5C 189.833,26.8333 224.167,26.1667 258.5,25.5 Z"/></g>
<g><path style="opacity:1" fill="#fefefe" d="M 111.5,98.5 C 107.349,98.0993 104.015,99.4326 101.5,102.5C 99.8267,103.343 98.66,104.676 98,106.5C 97.5006,111.823 97.334,117.156 97.5,122.5C 76.522,131.007 62.022,124.674 54,103.5C 51.9592,82.3784 61.4592,70.7118 82.5,68.5C 100.989,69.9884 110.655,79.9884 111.5,98.5 Z"/></g>
<g><path style="opacity:0.004" fill="#fefffe" d="M 341.5,68.5 C 342.833,69.1667 342.833,69.1667 341.5,68.5 Z"/></g>
<g><path style="opacity:0.004" fill="#fefffd" d="M 61.5,71.5 C 60.8333,70.1667 60.8333,70.1667 61.5,71.5 Z"/></g>
<g><path style="opacity:0.004" fill="#fdfffd" d="M 103.5,70.5 C 104.833,71.1667 104.833,71.1667 103.5,70.5 Z"/></g>
<g><path style="opacity:1" fill="#f0efed" d="M 217.5,69.5 C 226.384,74.02 235.384,78.3534 244.5,82.5C 245.051,84.4132 245.218,86.4132 245,88.5C 245.523,86.7774 246.523,85.444 248,84.5C 250.806,85.5697 253.473,86.903 256,88.5C 256.667,90.1667 256.667,91.8333 256,93.5C 254.331,99.8498 252.664,106.183 251,112.5C 250.5,127.163 250.333,141.83 250.5,156.5C 242.833,156.5 235.167,156.5 227.5,156.5C 227.666,147.494 227.5,138.494 227,129.5C 219.016,120.682 210.85,112.016 202.5,103.5C 205.87,95.4378 209.203,87.4378 212.5,79.5C 218.839,81.687 224.839,84.5203 230.5,88C 228.701,91.7246 227.534,95.5579 227,99.5C 229.372,95.3911 230.705,91.0578 231,86.5C 225.227,83.7002 219.727,80.5335 214.5,77C 215.214,74.3516 216.214,71.8516 217.5,69.5 Z"/></g>
<g><path style="opacity:0.004" fill="#fefffc" d="M 59.5,73.5 C 58.8333,72.1667 58.8333,72.1667 59.5,73.5 Z"/></g>
<g><path style="opacity:0.008" fill="#fefffd" d="M 107.5,74.5 C 108.833,75.1667 108.833,75.1667 107.5,74.5 Z"/></g>
<g><path style="opacity:0.004" fill="#fefffc" d="M 343.5,81.5 C 344.833,82.1667 344.833,82.1667 343.5,81.5 Z"/></g>
<g><path style="opacity:1" fill="#ea7d39" d="M 177.5,89.5 C 175.084,87.0097 173.418,84.0097 172.5,80.5C 173.486,76.8529 175.819,75.6862 179.5,77C 180.081,77.8926 180.415,78.8926 180.5,80C 179.778,83.3294 178.778,86.4961 177.5,89.5 Z"/></g>
<g><path style="opacity:1" fill="#f0ede9" d="M 174.5,78.5 C 175.833,78.5 177.167,78.5 178.5,78.5C 178.5,79.8333 178.5,81.1667 178.5,82.5C 175.5,82.8333 174.167,81.5 174.5,78.5 Z"/></g>
<g><path style="opacity:1" fill="#aeafb0" d="M 276.5,84.5 C 288.171,84.3335 299.838,84.5001 311.5,85C 312.737,85.2321 313.737,85.7321 314.5,86.5C 300.163,86.3334 285.829,86.5001 271.5,87C 270.756,88.0386 269.756,88.5386 268.5,88.5C 268.5,88.1667 268.5,87.8333 268.5,87.5C 270.142,85.9192 272.142,85.2525 274.5,85.5C 275.492,85.6716 276.158,85.3382 276.5,84.5 Z"/></g>
<g><path style="opacity:1" fill="#fefefd" d="M 314.5,86.5 C 316.168,88.34 317.668,90.34 319,92.5C 319.796,105.545 319.629,118.545 318.5,131.5C 316.463,133.641 313.963,134.974 311,135.5C 311.492,140.156 312.326,144.822 313.5,149.5C 313.333,150.167 313.167,150.833 313,151.5C 311.961,150.29 310.794,149.29 309.5,148.5C 307.234,144.564 304.234,141.231 300.5,138.5C 300.5,137.167 299.833,136.5 298.5,136.5C 290.016,135.507 281.349,135.174 272.5,135.5C 270.193,134.023 268.36,132.023 267,129.5C 266.333,116.833 266.333,104.167 267,91.5C 268.039,90.7562 268.539,89.7562 268.5,88.5C 269.756,88.5386 270.756,88.0386 271.5,87C 285.829,86.5001 300.163,86.3334 314.5,86.5 Z"/></g>
<g><path style="opacity:1" fill="#efba42" d="M 288.5,93.5 C 301.868,92.7119 306.368,98.7119 302,111.5C 299.401,117.089 296.401,122.423 293,127.5C 288.265,120.199 284.765,112.366 282.5,104C 282.542,102.033 283.042,100.199 284,98.5C 285.707,96.9625 287.207,95.2959 288.5,93.5 Z"/></g>
<g><path style="opacity:1" fill="#babcbf" d="M 314.5,86.5 C 317.822,87.6582 319.988,89.9916 321,93.5C 321.667,104.833 321.667,116.167 321,127.5C 320.8,129.32 319.966,130.653 318.5,131.5C 319.629,118.545 319.796,105.545 319,92.5C 317.668,90.34 316.168,88.34 314.5,86.5 Z"/></g>
<g><path style="opacity:1" fill="#b0b0af" d="M 268.5,88.5 C 268.539,89.7562 268.039,90.7562 267,91.5C 266.333,104.167 266.333,116.833 267,129.5C 268.36,132.023 270.193,134.023 272.5,135.5C 268.618,134.789 266.118,132.456 265,128.5C 264.333,116.833 264.333,105.167 265,93.5C 265.223,91.1192 266.39,89.4525 268.5,88.5 Z"/></g>
<g><path style="opacity:1" fill="#fefcf7" d="M 290.5,98.5 C 298.619,98.4687 300.619,101.969 296.5,109C 287.412,109.426 285.412,105.926 290.5,98.5 Z"/></g>
<g><path style="opacity:1" fill="#ed9056" d="M 177.5,89.5 C 181.833,96.1667 186.167,102.833 190.5,109.5C 190.5,109.833 190.5,110.167 190.5,110.5C 190.586,111.496 190.252,112.329 189.5,113C 185.25,115.374 181.084,117.874 177,120.5C 176.682,126.279 175.848,126.613 174.5,121.5C 175.188,120.145 176.188,119.145 177.5,118.5C 181.615,116.225 185.615,113.725 189.5,111C 184.842,104.182 180.842,97.0158 177.5,89.5 Z"/></g>
<g><path style="opacity:0.004" fill="#fefffc" d="M 52.5,110.5 C 51.8333,111.167 51.8333,111.167 52.5,110.5 Z"/></g>
<g><path style="opacity:0.004" fill="#fefffe" d="M 55.5,115.5 C 55.631,116.239 55.4643,116.906 55,117.5C 54.3083,116.563 54.475,115.897 55.5,115.5 Z"/></g>
<g><path style="opacity:1" fill="#f0eeec" d="M 226.5,179.5 C 226.167,180.167 225.833,180.833 225.5,181.5C 225.167,181.5 224.833,181.5 224.5,181.5C 219.025,180.511 213.358,180.178 207.5,180.5C 205.878,165.468 204.878,150.468 204.5,135.5C 207.189,134.443 209.689,133.11 212,131.5C 213.393,127.714 215.059,124.048 217,120.5C 220.038,123.203 222.705,126.203 225,129.5C 225.168,146.338 225.668,163.005 226.5,179.5 Z"/></g>
<g><path style="opacity:0.004" fill="#fefffe" d="M 63.5,123.5 C 62.8333,124.167 62.8333,124.167 63.5,123.5 Z"/></g>
<g><path style="opacity:1" fill="#898888" d="M 272.5,135.5 C 281.349,135.174 290.016,135.507 298.5,136.5C 291.167,136.5 283.833,136.5 276.5,136.5C 276.5,139.167 276.5,141.833 276.5,144.5C 275.833,143.833 275.167,143.167 274.5,142.5C 273.628,141.388 273.628,140.054 274.5,138.5C 274.058,137.261 273.391,136.261 272.5,135.5 Z"/></g>
<g><path style="opacity:1" fill="#aaabac" d="M 318.5,131.5 C 317.083,134.238 315.083,136.405 312.5,138C 313.91,142.791 314.744,147.624 315,152.5C 312.075,153.12 310.242,151.786 309.5,148.5C 310.794,149.29 311.961,150.29 313,151.5C 313.167,150.833 313.333,150.167 313.5,149.5C 312.326,144.822 311.492,140.156 311,135.5C 313.963,134.974 316.463,133.641 318.5,131.5 Z"/></g>
<g><path style="opacity:0.004" fill="#fefefd" d="M 357.5,137.5 C 358.833,138.167 358.833,138.167 357.5,137.5 Z"/></g>
<g><path style="opacity:1" fill="#a0a1a2" d="M 300.5,138.5 C 304.234,141.231 307.234,144.564 309.5,148.5C 305.766,145.769 302.766,142.436 300.5,138.5 Z"/></g>
<g><path style="opacity:1" fill="#3a313c" d="M 343.5,161.5 C 342.322,158.802 340.489,156.469 338,154.5C 334.49,156.219 330.656,157.052 326.5,157C 325.809,158.067 325.309,159.234 325,160.5C 324.768,159.263 324.268,158.263 323.5,157.5C 322.276,150.53 325.442,146.864 333,146.5C 340.865,146.872 345.365,150.872 346.5,158.5C 345.5,158.5 344.5,158.5 343.5,158.5C 343.5,159.5 343.5,160.5 343.5,161.5 Z"/></g>
<g><path style="opacity:1" fill="#ed965f" d="M 182.5,148.5 C 182.5,149.5 182.5,150.5 182.5,151.5C 186.76,150.415 191.094,149.748 195.5,149.5C 196.843,159.891 198.51,170.224 200.5,180.5C 208.472,181.498 216.472,181.831 224.5,181.5C 224.833,181.5 225.167,181.5 225.5,181.5C 225.5,182.5 225.5,183.5 225.5,184.5C 216.891,183.86 208.225,183.193 199.5,182.5C 197.184,171.938 195.518,161.272 194.5,150.5C 190.207,151.656 185.874,152.656 181.5,153.5C 179.282,144.581 177.782,135.581 177,126.5C 178.737,133.984 180.571,141.317 182.5,148.5 Z"/></g>
<g><path style="opacity:1" fill="#fbfcfd" d="M 49.5,169.5 C 40.2768,173.388 34.2768,170.554 31.5,161C 35.0768,149.666 42.0768,147.333 52.5,154C 53.7919,158.376 53.7919,162.709 52.5,167C 51.0577,167.377 50.0577,168.21 49.5,169.5 Z"/></g>
<g><path style="opacity:0.827" fill="#827d84" d="M 90.5,155.5 C 89.5041,155.414 88.6708,155.748 88,156.5C 86.9342,154.901 85.4342,153.901 83.5,153.5C 81.9291,154.309 80.2624,154.643 78.5,154.5C 82.6717,151.866 86.6717,152.2 90.5,155.5 Z"/></g>
<g><path style="opacity:0.722" fill="#a4a4a3" d="M 111.5,98.5 C 112.5,98.5 113.5,98.5 114.5,98.5C 114.833,98.5 115.167,98.5 115.5,98.5C 123.5,99.8333 131.5,99.8333 139.5,98.5C 141.167,98.5 142.833,98.5 144.5,98.5C 148.316,99.5099 151.149,101.843 153,105.5C 153.5,117.829 153.667,130.162 153.5,142.5C 151.063,148.916 146.396,151.583 139.5,150.5C 138.508,150.328 137.842,150.662 137.5,151.5C 131.824,151.334 126.157,151.501 120.5,152C 115.466,156.699 110.8,161.699 106.5,167C 105.207,167.49 103.873,167.657 102.5,167.5C 103.113,162.434 104.113,157.434 105.5,152.5C 103.511,150.402 101.345,148.402 99,146.5C 97.872,144.655 97.372,142.655 97.5,140.5C 97.5,134.5 97.5,128.5 97.5,122.5C 97.334,117.156 97.5006,111.823 98,106.5C 98.66,104.676 99.8267,103.343 101.5,102.5C 104.015,99.4326 107.349,98.0993 111.5,98.5 Z"/></g>
<g><path style="opacity:1" fill="#fefdfd" d="M 101.5,102.5 C 102.756,102.539 103.756,102.039 104.5,101C 111.5,100.833 118.5,100.667 125.5,100.5C 133.266,100.365 140.933,100.865 148.5,102C 150.049,103.214 151.215,104.714 152,106.5C 152.667,118.5 152.667,130.5 152,142.5C 151.167,146 149,148.167 145.5,149C 136.833,149.333 128.167,149.667 119.5,150C 114.667,155.5 109.833,161 105,166.5C 105.606,161.533 106.439,156.533 107.5,151.5C 104.202,149.032 101.368,146.032 99,142.5C 98.3333,130.833 98.3333,119.167 99,107.5C 100.094,105.922 100.928,104.255 101.5,102.5 Z"/></g>
<g><path style="opacity:1" fill="#efba44" d="M 120.5,107.5 C 133.367,106.533 137.867,112.199 134,124.5C 131.945,130.277 129.112,135.611 125.5,140.5C 118.62,132.751 115.12,123.751 115,113.5C 116.36,110.977 118.193,108.977 120.5,107.5 Z"/></g>
<g><path style="opacity:1" fill="#fefcf9" d="M 122.5,112.5 C 130.562,112.232 132.562,115.566 128.5,122.5C 122.197,124.363 119.364,122.03 120,115.5C 120.698,114.309 121.531,113.309 122.5,112.5 Z"/></g>
<g><path style="opacity:1" fill="#895551" d="M 274.5,142.5 C 275.167,143.167 275.833,143.833 276.5,144.5C 278.609,147.97 280.442,151.637 282,155.5C 291.515,162.828 300.682,170.495 309.5,178.5C 307.768,181.21 306.101,183.876 304.5,186.5C 295.506,176.173 286.172,166.173 276.5,156.5C 275.833,156.167 275.167,155.833 274.5,155.5C 272.54,153.844 270.54,152.177 268.5,150.5C 267.841,148.862 267.174,147.195 266.5,145.5C 267.86,139.568 270.36,139.235 274,144.5C 274.464,143.906 274.631,143.239 274.5,142.5 Z"/></g>
<g><path style="opacity:1" fill="#3e3641" d="M 90.5,155.5 C 91.4959,155.414 92.3292,155.748 93,156.5C 94.5588,158.217 95.3921,160.217 95.5,162.5C 95.5,163.833 95.5,165.167 95.5,166.5C 94.6252,164.432 93.4585,162.432 92,160.5C 90.8333,161.667 89.6667,162.833 88.5,164C 84.2594,165.704 80.0928,167.538 76,169.5C 75.7323,171.59 76.7323,172.924 79,173.5C 79.6377,174.609 80.1377,175.775 80.5,177C 79.4345,180.094 78.7678,183.26 78.5,186.5C 77.5,186.5 76.5,186.5 75.5,186.5C 69.7531,186.739 66.2531,189.739 65,195.5C 64.0482,202.136 63.5482,208.803 63.5,215.5C 62.8333,215.5 62.1667,215.5 61.5,215.5C 54.6709,213.718 51.0042,209.218 50.5,202C 50.9821,199.181 51.9821,196.681 53.5,194.5C 55.914,193.089 57.5806,191.089 58.5,188.5C 58.8333,187.833 59.1667,187.167 59.5,186.5C 61.1942,185.473 62.5275,184.139 63.5,182.5C 66.3655,179.587 67.6988,175.921 67.5,171.5C 68.9238,169.485 69.5905,167.152 69.5,164.5C 69.5,164.167 69.5,163.833 69.5,163.5C 70.9063,163.027 71.573,162.027 71.5,160.5C 72.7791,157.348 75.1125,155.348 78.5,154.5C 80.2624,154.643 81.9291,154.309 83.5,153.5C 85.4342,153.901 86.9342,154.901 88,156.5C 88.6708,155.748 89.5041,155.414 90.5,155.5 Z"/></g>
<g><path style="opacity:0.004" fill="#fdfffd" d="M 53.5,157.5 C 54.8333,158.167 54.8333,158.167 53.5,157.5 Z"/></g>
<g><path style="opacity:1" fill="#ebf0f6" d="M 276.5,156.5 C 286.172,166.173 295.506,176.173 304.5,186.5C 304.343,187.873 304.51,189.207 305,190.5C 307.36,192.86 309.694,195.194 312,197.5C 312.497,201.524 312.331,205.524 311.5,209.5C 300.36,212.309 289.027,213.642 277.5,213.5C 277.83,194.992 277.497,176.659 276.5,158.5C 276.5,157.833 276.5,157.167 276.5,156.5 Z"/></g>
<g><path style="opacity:0.349" fill="#c6c4c7" d="M 71.5,160.5 C 71.573,162.027 70.9063,163.027 69.5,163.5C 69.427,161.973 70.0937,160.973 71.5,160.5 Z"/></g>
<g><path style="opacity:1" fill="#84514d" d="M 343.5,161.5 C 343.539,162.583 343.873,163.583 344.5,164.5C 342.602,167.69 340.436,170.69 338,173.5C 337.502,176.482 337.335,179.482 337.5,182.5C 334.844,184.406 331.844,184.906 328.5,184C 327.177,183.184 326.511,182.017 326.5,180.5C 327.638,177.696 327.805,174.696 327,171.5C 324.307,167.248 323.141,162.582 323.5,157.5C 324.268,158.263 324.768,159.263 325,160.5C 325.309,159.234 325.809,158.067 326.5,157C 330.656,157.052 334.49,156.219 338,154.5C 340.489,156.469 342.322,158.802 343.5,161.5 Z"/></g>
<g><path style="opacity:0.004" fill="#fefefe" d="M 53.5,163.5 C 54.8333,164.167 54.8333,164.167 53.5,163.5 Z"/></g>
<g><path style="opacity:0.004" fill="#fdfffd" d="M 109.5,165.5 C 110.833,166.167 110.833,166.167 109.5,165.5 Z"/></g>
<g><path style="opacity:1" fill="#797979" d="M 139.5,150.5 C 139.5,185.5 139.5,220.5 139.5,255.5C 138.508,255.672 137.842,255.338 137.5,254.5C 137.5,224.833 137.5,195.167 137.5,165.5C 137.5,160.833 137.5,156.167 137.5,151.5C 137.842,150.662 138.508,150.328 139.5,150.5 Z"/></g>
<g><path style="opacity:1" fill="#f1ab8f" d="M 95.5,166.5 C 95.2924,168.92 95.6258,171.253 96.5,173.5C 94.9951,174.842 94.3285,176.508 94.5,178.5C 93.5,178.833 92.8333,179.5 92.5,180.5C 90.8333,180.5 89.1667,180.5 87.5,180.5C 87.5,181.833 87.5,183.167 87.5,184.5C 87.5,185.167 87.5,185.833 87.5,186.5C 87.3152,188.89 85.9818,189.89 83.5,189.5C 81.0582,189.714 79.3915,188.714 78.5,186.5C 78.7678,183.26 79.4345,180.094 80.5,177C 80.1377,175.775 79.6377,174.609 79,173.5C 76.7323,172.924 75.7323,171.59 76,169.5C 80.0928,167.538 84.2594,165.704 88.5,164C 89.6667,162.833 90.8333,161.667 92,160.5C 93.4585,162.432 94.6252,164.432 95.5,166.5 Z"/></g>
<g><path style="opacity:0.004" fill="#fefffc" d="M 49.5,169.5 C 50.8333,170.167 50.8333,170.167 49.5,169.5 Z"/></g>
<g><path style="opacity:0.051" fill="#f4eeec" d="M 95.5,162.5 C 96.3061,166.002 96.9728,169.669 97.5,173.5C 96.6043,175.336 95.6043,177.003 94.5,178.5C 94.3285,176.508 94.9951,174.842 96.5,173.5C 95.6258,171.253 95.2924,168.92 95.5,166.5C 95.5,165.167 95.5,163.833 95.5,162.5 Z"/></g>
<g><path style="opacity:0.643" fill="#98949a" d="M 69.5,164.5 C 69.5905,167.152 68.9238,169.485 67.5,171.5C 67.4095,168.848 68.0762,166.515 69.5,164.5 Z"/></g>
<g><path style="opacity:0.871" fill="#9f9ba1" d="M 67.5,171.5 C 67.6988,175.921 66.3655,179.587 63.5,182.5C 64.8594,178.747 66.1927,175.081 67.5,171.5 Z"/></g>
<g><path style="opacity:1" fill="#f1e2c8" d="M 326.5,180.5 C 326.511,182.017 327.177,183.184 328.5,184C 331.844,184.906 334.844,184.406 337.5,182.5C 340.726,183.489 344.06,184.489 347.5,185.5C 351.553,186.744 355.22,188.744 358.5,191.5C 358.055,194.053 358.055,196.72 358.5,199.5C 357.761,199.369 357.094,199.536 356.5,200C 354.666,202.663 352.666,205.163 350.5,207.5C 349.542,207.047 348.708,206.381 348,205.5C 346.906,217.492 345.906,229.492 345,241.5C 344.617,242.056 344.117,242.389 343.5,242.5C 331.826,242.388 320.159,242.055 308.5,241.5C 307.925,239.924 307.592,238.258 307.5,236.5C 308.916,227.503 310.249,218.503 311.5,209.5C 312.331,205.524 312.497,201.524 312,197.5C 309.694,195.194 307.36,192.86 305,190.5C 304.51,189.207 304.343,187.873 304.5,186.5C 306.101,183.876 307.768,181.21 309.5,178.5C 310.265,178.077 311.098,177.743 312,177.5C 316.731,179.058 321.564,180.058 326.5,180.5 Z"/></g>
<g><path style="opacity:1" fill="#dae2f0" d="M 21.5,191.5 C 25.5057,201.52 28.5057,211.853 30.5,222.5C 31.086,222.291 31.586,221.957 32,221.5C 33.3964,216.726 34.8964,212.059 36.5,207.5C 38.1703,207.249 39.6703,206.582 41,205.5C 42.4705,206.267 43.9705,206.933 45.5,207.5C 47.0019,210.453 48.0019,213.62 48.5,217C 45.8088,221.96 43.8088,227.127 42.5,232.5C 42.1667,232.5 41.8333,232.5 41.5,232.5C 40.3882,234.599 39.7215,236.933 39.5,239.5C 39.5,240.5 39.5,241.5 39.5,242.5C 37.5993,247.225 37.0993,252.225 38,257.5C 42.1493,253.159 46.9826,251.992 52.5,254C 53.9797,255.299 54.6464,256.966 54.5,259C 52.791,265.454 50.291,271.621 47,277.5C 45.4686,281.404 44.8019,285.404 45,289.5C 46.3876,290.554 47.8876,290.72 49.5,290C 51.8207,286.571 54.8207,285.738 58.5,287.5C 56.6893,293.76 54.1893,299.76 51,305.5C 46.7252,311.738 42.2252,317.738 37.5,323.5C 36.0379,322.529 34.7046,322.862 33.5,324.5C 31.9106,323.379 30.2439,323.546 28.5,325C 27.6634,326.011 27.33,327.178 27.5,328.5C 24.894,327.15 24.894,325.65 27.5,324C 25.2481,321.264 23.2481,318.431 21.5,315.5C 20.6493,313.118 19.316,311.118 17.5,309.5C 16.1667,307.167 16.1667,304.833 17.5,302.5C 22.4854,302.148 26.8187,303.814 30.5,307.5C 32.5341,309.939 34.7007,312.272 37,314.5C 37.3283,311.793 36.995,309.126 36,306.5C 34.5603,303.353 32.3936,300.353 29.5,297.5C 24.2553,293.263 19.5887,288.596 15.5,283.5C 13.5619,280.621 11.8953,277.621 10.5,274.5C 8.39899,263.528 12.399,260.862 22.5,266.5C 28.889,271.979 29.5557,271.646 24.5,265.5C 24.573,263.973 23.9063,262.973 22.5,262.5C 21.2141,259.883 19.5475,257.55 17.5,255.5C 13.2661,250.326 9.59944,245.993 6.5,242.5C 5.83333,241.167 4.83333,240.167 3.5,239.5C 3.31465,237.804 2.48131,236.471 1,235.5C 0.0785644,226.295 3.9119,223.962 12.5,228.5C 12.8333,228.167 13.1667,227.833 13.5,227.5C 12.3063,226.201 11.3063,224.868 10.5,223.5C 10.0679,222.29 9.40128,221.29 8.5,220.5C 5.63916,214.751 3.4725,208.751 2,202.5C 1.24861,197.016 1.74861,191.682 3.5,186.5C 4.26791,185.737 4.76791,184.737 5,183.5C 7.63648,183.545 10.4698,183.712 13.5,184C 16.6922,186.028 19.3589,188.528 21.5,191.5 Z M 24.5,265.5 C 29.5557,271.646 28.889,271.979 22.5,266.5C 23.4916,266.672 24.1583,266.338 24.5,265.5 Z"/></g>
<g><path style="opacity:1" fill="#7d7074" d="M 92.5,180.5 C 92.5,183.167 92.5,185.833 92.5,188.5C 91.5084,188.672 90.8417,188.338 90.5,187.5C 91.4614,185.735 91.7947,183.735 91.5,181.5C 90.5,181.5 89.5,181.5 88.5,181.5C 88.7373,182.791 88.404,183.791 87.5,184.5C 87.5,183.167 87.5,181.833 87.5,180.5C 89.1667,180.5 90.8333,180.5 92.5,180.5 Z"/></g>
<g><path style="opacity:0.008" fill="#fdfffd" d="M 3.5,186.5 C 2.83333,185.167 2.83333,185.167 3.5,186.5 Z"/></g>
<g><path style="opacity:0.004" fill="#fcfdfc" d="M 59.5,186.5 C 58.8333,185.167 58.8333,185.167 59.5,186.5 Z"/></g>
<g><path style="opacity:1" fill="#342c38" d="M 90.5,187.5 C 89.609,186.89 88.609,186.557 87.5,186.5C 87.5,185.833 87.5,185.167 87.5,184.5C 88.404,183.791 88.7373,182.791 88.5,181.5C 89.5,181.5 90.5,181.5 91.5,181.5C 91.7947,183.735 91.4614,185.735 90.5,187.5 Z"/></g>
<g><path style="opacity:0.422" fill="#f2f5f9" d="M 365.5,186.5 C 364.992,184.767 364.159,184.434 363,185.5C 361.403,178.904 363.903,176.071 370.5,177C 374.298,183.044 372.632,186.211 365.5,186.5 Z"/></g>
<g><path style="opacity:0.004" fill="#fefffd" d="M 365.5,186.5 C 364.833,187.167 364.833,187.167 365.5,186.5 Z"/></g>
<g><path style="opacity:1" fill="#edb840" d="M 75.5,186.5 C 78.3243,190.36 79.1577,194.693 78,199.5C 77.0654,205.848 76.0654,212.182 75,218.5C 73.9505,217.483 72.7839,217.316 71.5,218C 74.1667,218.667 74.1667,219.333 71.5,220C 74.5225,220.164 77.1891,219.164 79.5,217C 83.6678,213.664 87.6678,210.164 91.5,206.5C 92.1667,207.833 93.1667,208.833 94.5,209.5C 90.9416,217.249 85.9416,224.082 79.5,230C 71.4804,235.186 66.4804,233.019 64.5,223.5C 64.8064,220.615 64.4731,217.948 63.5,215.5C 63.5482,208.803 64.0482,202.136 65,195.5C 66.2531,189.739 69.7531,186.739 75.5,186.5 Z"/></g>
<g><path style="opacity:1" fill="#eedcc1" d="M 75.5,186.5 C 76.5,186.5 77.5,186.5 78.5,186.5C 79.3915,188.714 81.0582,189.714 83.5,189.5C 85.9818,189.89 87.3152,188.89 87.5,186.5C 88.609,186.557 89.609,186.89 90.5,187.5C 90.8417,188.338 91.5084,188.672 92.5,188.5C 93.1667,189.5 93.8333,190.5 94.5,191.5C 96.1908,194.645 96.6908,197.979 96,201.5C 94.264,203.063 92.764,204.73 91.5,206.5C 87.6678,210.164 83.6678,213.664 79.5,217C 77.1891,219.164 74.5225,220.164 71.5,220C 74.1667,219.333 74.1667,218.667 71.5,218C 72.7839,217.316 73.9505,217.483 75,218.5C 76.0654,212.182 77.0654,205.848 78,199.5C 79.1577,194.693 78.3243,190.36 75.5,186.5 Z"/></g>
<g><path style="opacity:0.004" fill="#fdfffd" d="M 21.5,190.5 C 22.8333,191.167 22.8333,191.167 21.5,190.5 Z"/></g>
<g><path style="opacity:0.639" fill="#a9a5aa" d="M 58.5,188.5 C 57.5806,191.089 55.914,193.089 53.5,194.5C 54.4194,191.911 56.086,189.911 58.5,188.5 Z"/></g>
<g><path style="opacity:1" fill="#f2f1f0" d="M 182.5,148.5 C 180.571,141.317 178.737,133.984 177,126.5C 177.782,135.581 179.282,144.581 181.5,153.5C 185.874,152.656 190.207,151.656 194.5,150.5C 195.518,161.272 197.184,171.938 199.5,182.5C 208.225,183.193 216.891,183.86 225.5,184.5C 227.563,187.973 230.063,188.306 233,185.5C 234.328,180.662 232.494,178.329 227.5,178.5C 227.5,177.5 227.5,176.5 227.5,175.5C 236.167,175.5 244.833,175.5 253.5,175.5C 253.5,177.833 253.5,180.167 253.5,182.5C 258.167,182.5 262.833,182.5 267.5,182.5C 267.5,193.5 267.5,204.5 267.5,215.5C 258.5,215.5 249.5,215.5 240.5,215.5C 237.315,210.313 233.982,205.146 230.5,200C 214.833,199.333 199.167,199.333 183.5,200C 179.649,205.37 176.316,211.037 173.5,217C 168.167,217.333 162.833,217.667 157.5,218C 156.667,218.833 155.833,219.667 155,220.5C 150.804,230.755 146.804,241.088 143,251.5C 142.502,253.544 141.335,254.878 139.5,255.5C 139.5,220.5 139.5,185.5 139.5,150.5C 146.396,151.583 151.063,148.916 153.5,142.5C 158.236,141.365 162.903,140.032 167.5,138.5C 166.992,133.784 166.158,129.118 165,124.5C 161.984,121.651 159.15,118.651 156.5,115.5C 156.833,115.167 157.167,114.833 157.5,114.5C 159.866,117.701 162.7,120.367 166,122.5C 169.055,121.389 171.888,119.889 174.5,118C 175.749,117.26 176.749,117.427 177.5,118.5C 176.188,119.145 175.188,120.145 174.5,121.5C 175.848,126.613 176.682,126.279 177,120.5C 181.084,117.874 185.25,115.374 189.5,113C 190.252,112.329 190.586,111.496 190.5,110.5C 194.217,108.891 197.717,106.891 201,104.5C 206.213,109.377 211.046,114.544 215.5,120C 213.748,124.171 211.748,128.171 209.5,132C 204.23,133.645 199.063,135.478 194,137.5C 193.788,140.758 193.288,143.924 192.5,147C 190,147.833 187.5,148.667 185,149.5C 184.055,149.095 183.388,148.428 183,147.5C 182.601,147.728 182.435,148.062 182.5,148.5 Z"/></g>
<g><path style="opacity:1" fill="#eb803e" d="M 227.5,178.5 C 232.494,178.329 234.328,180.662 233,185.5C 230.063,188.306 227.563,187.973 225.5,184.5C 225.5,183.5 225.5,182.5 225.5,181.5C 225.833,180.833 226.167,180.167 226.5,179.5C 226.5,178.833 226.833,178.5 227.5,178.5 Z"/></g>
<g><path style="opacity:1" fill="#f0e5dd" d="M 227.5,180.5 C 231.161,180.35 232.161,181.85 230.5,185C 226.707,185.487 225.707,183.987 227.5,180.5 Z"/></g>
<g><path style="opacity:1" fill="#39303a" d="M 106.5,194.5 C 105.038,195.458 103.705,196.624 102.5,198C 101.563,198.692 100.897,198.525 100.5,197.5C 103.812,194.854 106.812,191.854 109.5,188.5C 109.833,188.833 110.167,189.167 110.5,189.5C 109.143,191.186 107.81,192.852 106.5,194.5 Z"/></g>
<g><path style="opacity:1" fill="#f0ae8c" d="M 94.5,191.5 C 96.0526,193.93 98.0526,195.93 100.5,197.5C 100.897,198.525 101.563,198.692 102.5,198C 103.705,196.624 105.038,195.458 106.5,194.5C 105.752,198.582 103.752,201.915 100.5,204.5C 99.1667,205.167 98.1667,206.167 97.5,207.5C 96.2905,207.932 95.2905,208.599 94.5,209.5C 93.1667,208.833 92.1667,207.833 91.5,206.5C 92.764,204.73 94.264,203.063 96,201.5C 96.6908,197.979 96.1908,194.645 94.5,191.5 Z"/></g>
<g><path style="opacity:1" fill="#875652" d="M 358.5,199.5 C 358.5,199.833 358.5,200.167 358.5,200.5C 358.59,204.214 359.59,207.548 361.5,210.5C 361.216,212.415 361.549,214.081 362.5,215.5C 362.5,215.833 362.5,216.167 362.5,216.5C 362.765,221.899 364.098,226.899 366.5,231.5C 366.328,232.492 366.662,233.158 367.5,233.5C 367.5,234.833 367.5,236.167 367.5,237.5C 368.17,240.673 369.336,243.673 371,246.5C 373.478,248.639 375.978,250.639 378.5,252.5C 378.782,253.778 379.449,254.778 380.5,255.5C 380.5,256.167 380.5,256.833 380.5,257.5C 379.5,256.833 378.5,256.167 377.5,255.5C 374.425,253.952 371.091,252.952 367.5,252.5C 368.914,250.402 368.248,249.402 365.5,249.5C 365.662,247.473 365.495,245.473 365,243.5C 359.874,231.587 355.041,219.587 350.5,207.5C 352.666,205.163 354.666,202.663 356.5,200C 357.094,199.536 357.761,199.369 358.5,199.5 Z"/></g>
<g><path style="opacity:1" fill="#fcfbfb" d="M 350.5,207.5 C 355.041,219.587 359.874,231.587 365,243.5C 365.495,245.473 365.662,247.473 365.5,249.5C 364.833,249.5 364.167,249.5 363.5,249.5C 362.793,246.357 361.627,243.357 360,240.5C 358.186,239.24 356.353,239.24 354.5,240.5C 352.954,245.796 353.62,250.796 356.5,255.5C 356.5,255.833 356.5,256.167 356.5,256.5C 355.5,256.5 354.5,256.5 353.5,256.5C 352.833,256.5 352.5,256.833 352.5,257.5C 348.639,258.26 345.639,260.26 343.5,263.5C 343.5,258.833 343.5,254.167 343.5,249.5C 343.5,247.167 343.5,244.833 343.5,242.5C 344.117,242.389 344.617,242.056 345,241.5C 345.906,229.492 346.906,217.492 348,205.5C 348.708,206.381 349.542,207.047 350.5,207.5 Z"/></g>
<g><path style="opacity:0.004" fill="#fdfffd" d="M 36.5,207.5 C 35.8333,206.167 35.8333,206.167 36.5,207.5 Z"/></g>
<g><path style="opacity:0.004" fill="#fdfffe" d="M 45.5,206.5 C 46.8333,207.167 46.8333,207.167 45.5,206.5 Z"/></g>
<g><path style="opacity:0.086" fill="#e1d4d2" d="M 358.5,200.5 C 359.268,201.263 359.768,202.263 360,203.5C 360.654,202.304 361.154,202.304 361.5,203.5C 360.58,205.786 360.58,208.119 361.5,210.5C 359.59,207.548 358.59,204.214 358.5,200.5 Z"/></g>
<g><path style="opacity:1" fill="#fdfdfd" d="M 276.5,158.5 C 277.497,176.659 277.83,194.992 277.5,213.5C 289.027,213.642 300.36,212.309 311.5,209.5C 310.249,218.503 308.916,227.503 307.5,236.5C 307.592,238.258 307.925,239.924 308.5,241.5C 304.911,265.721 302.578,290.055 301.5,314.5C 300.517,318.298 300.183,322.298 300.5,326.5C 300.5,327.167 300.5,327.833 300.5,328.5C 302.727,330.874 303.06,333.541 301.5,336.5C 300.833,336.5 300.167,336.5 299.5,336.5C 298.508,336.328 297.842,336.662 297.5,337.5C 293.993,337.92 290.659,338.92 287.5,340.5C 286.5,340.5 285.5,340.5 284.5,340.5C 284.5,338.5 284.5,336.5 284.5,334.5C 287.313,334.975 289.313,333.975 290.5,331.5C 291.638,328.696 291.805,325.696 291,322.5C 290.093,320.391 288.593,319.058 286.5,318.5C 287.576,304.521 287.743,290.521 287,276.5C 285.741,270.146 282.574,264.979 277.5,261C 281.098,260.846 284.431,259.846 287.5,258C 291.154,252.256 289.654,248.756 283,247.5C 280.458,248.205 278.292,249.539 276.5,251.5C 276.5,220.5 276.5,189.5 276.5,158.5 Z"/></g>
<g><path style="opacity:1" fill="#f2e1c6" d="M 97.5,207.5 C 97.3294,216.282 97.9961,224.949 99.5,233.5C 98.5,237.5 97.5,241.5 96.5,245.5C 86.0131,244.506 75.3464,244.172 64.5,244.5C 65.506,237.482 65.506,230.482 64.5,223.5C 66.4804,233.019 71.4804,235.186 79.5,230C 85.9416,224.082 90.9416,217.249 94.5,209.5C 95.2905,208.599 96.2905,207.932 97.5,207.5 Z"/></g>
<g><path style="opacity:1" fill="#888988" d="M 274.5,155.5 C 275.167,155.833 275.833,156.167 276.5,156.5C 276.5,157.167 276.5,157.833 276.5,158.5C 276.5,189.5 276.5,220.5 276.5,251.5C 276.167,252.5 275.5,253.167 274.5,253.5C 274.5,220.833 274.5,188.167 274.5,155.5 Z"/></g>
<g><path style="opacity:0.725" fill="#efe8e7" d="M 361.5,210.5 C 362.339,211.641 363.006,212.974 363.5,214.5C 363.376,215.107 363.043,215.44 362.5,215.5C 361.549,214.081 361.216,212.415 361.5,210.5 Z"/></g>
<g><path style="opacity:1" fill="#efba43" d="M 100.5,204.5 C 101.497,216.501 104.83,227.834 110.5,238.5C 110.306,240.912 108.973,241.912 106.5,241.5C 104.167,238.833 101.833,236.167 99.5,233.5C 97.9961,224.949 97.3294,216.282 97.5,207.5C 98.1667,206.167 99.1667,205.167 100.5,204.5 Z"/></g>
<g><path style="opacity:1" fill="#dbe3f0" d="M 392.5,223.5 C 392.5,226.833 392.5,230.167 392.5,233.5C 391.179,235.769 390.679,238.103 391,240.5C 390.086,239.346 389.253,239.513 388.5,241C 388.833,241.333 389.167,241.667 389.5,242C 387.004,243.331 385.004,245.164 383.5,247.5C 382.194,249.473 380.527,251.139 378.5,252.5C 375.978,250.639 373.478,248.639 371,246.5C 369.336,243.673 368.17,240.673 367.5,237.5C 369.837,235.493 371.171,232.827 371.5,229.5C 372.981,225.873 374.981,222.54 377.5,219.5C 383.993,215.107 388.993,216.441 392.5,223.5 Z"/></g>
<g><path style="opacity:0.004" fill="#fefffc" d="M 377.5,219.5 C 376.833,218.167 376.833,218.167 377.5,219.5 Z"/></g>
<g><path style="opacity:0.999" fill="#ecf0f6" d="M 61.5,215.5 C 62.1667,215.5 62.8333,215.5 63.5,215.5C 64.4731,217.948 64.8064,220.615 64.5,223.5C 65.506,230.482 65.506,237.482 64.5,244.5C 65.1667,245.5 65.8333,246.5 66.5,247.5C 64.4939,260.847 61.8273,274.18 58.5,287.5C 54.8207,285.738 51.8207,286.571 49.5,290C 47.8876,290.72 46.3876,290.554 45,289.5C 44.8019,285.404 45.4686,281.404 47,277.5C 50.291,271.621 52.791,265.454 54.5,259C 54.6464,256.966 53.9797,255.299 52.5,254C 46.9826,251.992 42.1493,253.159 38,257.5C 37.0993,252.225 37.5993,247.225 39.5,242.5C 40.8333,241.5 40.8333,240.5 39.5,239.5C 39.7215,236.933 40.3882,234.599 41.5,232.5C 41.5,234.167 41.5,235.833 41.5,237.5C 42.6737,236.486 43.3404,235.153 43.5,233.5C 49.3451,227.492 55.6784,221.992 62.5,217C 61.944,216.617 61.6107,216.117 61.5,215.5 Z M 41.5,232.5 C 41.8333,232.5 42.1667,232.5 42.5,232.5C 42.5,233.167 42.8333,233.5 43.5,233.5C 43.3404,235.153 42.6737,236.486 41.5,237.5C 41.5,235.833 41.5,234.167 41.5,232.5 Z"/></g>
<g><path style="opacity:0.004" fill="#fdfffe" d="M 8.5,220.5 C 7.83333,221.167 7.83333,221.167 8.5,220.5 Z"/></g>
<g><path style="opacity:0.004" fill="#fefefd" d="M 392.5,222.5 C 393.833,223.167 393.833,223.167 392.5,222.5 Z"/></g>
<g><path style="opacity:0.004" fill="#fefffc" d="M 10.5,223.5 C 9.83333,224.167 9.83333,224.167 10.5,223.5 Z"/></g>
<g><path style="opacity:0.052" fill="#e7dcdb" d="M 362.5,216.5 C 363.506,219.489 364.673,222.489 366,225.5C 366.495,227.473 366.662,229.473 366.5,231.5C 364.098,226.899 362.765,221.899 362.5,216.5 Z"/></g>
<g><path style="opacity:0.004" fill="#fdfffe" d="M 371.5,229.5 C 370.833,228.167 370.833,228.167 371.5,229.5 Z"/></g>
<g><path style="opacity:0.004" fill="#fefffe" d="M 367.5,232.5 C 368.833,233.167 368.833,233.167 367.5,232.5 Z"/></g>
<g><path style="opacity:0.004" fill="#fefffd" d="M 392.5,233.5 C 393.833,234.167 393.833,234.167 392.5,233.5 Z"/></g>
<g><path style="opacity:1" fill="#ebf0f5" d="M 137.5,165.5 C 137.5,195.167 137.5,224.833 137.5,254.5C 134.518,249.675 130.184,247.509 124.5,248C 120.483,254.956 122.483,259.123 130.5,260.5C 132.832,259.828 135.166,259.661 137.5,260C 133.286,264.546 129.453,269.379 126,274.5C 125.382,288.178 125.549,301.845 126.5,315.5C 117.991,317.336 109.324,318.002 100.5,317.5C 99.4963,294.771 97.8296,272.105 95.5,249.5C 95.5,248.833 95.5,248.167 95.5,247.5C 95.8333,246.833 96.1667,246.167 96.5,245.5C 97.5,241.5 98.5,237.5 99.5,233.5C 101.833,236.167 104.167,238.833 106.5,241.5C 108.485,245.779 110.318,250.112 112,254.5C 112.308,253.692 112.808,253.025 113.5,252.5C 115,254.833 116.5,257.167 118,259.5C 118.667,256.833 118.667,254.167 118,251.5C 114.935,247.355 112.435,243.022 110.5,238.5C 104.83,227.834 101.497,216.501 100.5,204.5C 103.752,201.915 105.752,198.582 106.5,194.5C 107.81,192.852 109.143,191.186 110.5,189.5C 110.167,189.167 109.833,188.833 109.5,188.5C 106.812,191.854 103.812,194.854 100.5,197.5C 98.0526,195.93 96.0526,193.93 94.5,191.5C 93.8333,190.5 93.1667,189.5 92.5,188.5C 92.5,185.833 92.5,183.167 92.5,180.5C 92.8333,179.5 93.5,178.833 94.5,178.5C 94.369,179.239 94.5357,179.906 95,180.5C 105.825,166.084 119.992,161.084 137.5,165.5 Z"/></g>
<g><path style="opacity:0.004" fill="#fdfefe" d="M 3.5,239.5 C 2.83333,240.167 2.83333,240.167 3.5,239.5 Z"/></g>
<g><path style="opacity:1" fill="#d8e0ef" d="M 363.5,249.5 C 362.123,251.289 361.123,253.289 360.5,255.5C 359.167,255.5 357.833,255.5 356.5,255.5C 353.62,250.796 352.954,245.796 354.5,240.5C 356.353,239.24 358.186,239.24 360,240.5C 361.627,243.357 362.793,246.357 363.5,249.5 Z"/></g>
<g><path style="opacity:0.004" fill="#fefffc" d="M 6.5,242.5 C 5.83333,243.167 5.83333,243.167 6.5,242.5 Z"/></g>
<g><path style="opacity:1" fill="#f6b297" d="M 110.5,238.5 C 112.435,243.022 114.935,247.355 118,251.5C 118.667,254.167 118.667,256.833 118,259.5C 116.5,257.167 115,254.833 113.5,252.5C 112.808,253.025 112.308,253.692 112,254.5C 110.318,250.112 108.485,245.779 106.5,241.5C 108.973,241.912 110.306,240.912 110.5,238.5 Z"/></g>
<g><path style="opacity:1" fill="#303d88" d="M 308.5,241.5 C 320.159,242.055 331.826,242.388 343.5,242.5C 343.5,244.833 343.5,247.167 343.5,249.5C 342.761,249.369 342.094,249.536 341.5,250C 342.469,254.737 342.803,259.57 342.5,264.5C 342.5,269.167 342.5,273.833 342.5,278.5C 341.628,294.174 340.628,309.84 339.5,325.5C 336.833,325.5 334.167,325.5 331.5,325.5C 331.822,319.642 331.489,313.975 330.5,308.5C 330.396,289.022 328.729,269.688 325.5,250.5C 325.167,250.667 324.833,250.833 324.5,251C 317.275,274.974 312.608,299.474 310.5,324.5C 307.5,324.5 304.5,324.5 301.5,324.5C 301.5,321.167 301.5,317.833 301.5,314.5C 302.578,290.055 304.911,265.721 308.5,241.5 Z"/></g>
<g><path style="opacity:1" fill="#ecb949" d="M 64.5,244.5 C 75.3464,244.172 86.0131,244.506 96.5,245.5C 96.1667,246.167 95.8333,246.833 95.5,247.5C 85.8333,247.5 76.1667,247.5 66.5,247.5C 65.8333,246.5 65.1667,245.5 64.5,244.5 Z"/></g>
<g><path style="opacity:0.004" fill="#fffefe" d="M 383.5,247.5 C 384.525,247.897 384.692,248.563 384,249.5C 383.536,248.906 383.369,248.239 383.5,247.5 Z"/></g>
<g><path style="opacity:1" fill="#425398" d="M 66.5,247.5 C 76.1667,247.5 85.8333,247.5 95.5,247.5C 95.5,248.167 95.5,248.833 95.5,249.5C 92.8654,248.271 90.1987,248.271 87.5,249.5C 85.3706,257.222 83.0372,264.889 80.5,272.5C 81.2458,273.736 81.5792,275.07 81.5,276.5C 80.7784,276.082 80.2784,275.416 80,274.5C 75.5353,285.432 70.0353,295.765 63.5,305.5C 61.5879,307.657 59.9213,309.991 58.5,312.5C 53.2639,319.447 46.5972,324.447 38.5,327.5C 37.7659,326.292 37.4326,324.959 37.5,323.5C 42.2252,317.738 46.7252,311.738 51,305.5C 54.1893,299.76 56.6893,293.76 58.5,287.5C 61.8273,274.18 64.4939,260.847 66.5,247.5 Z"/></g>
<g><path style="opacity:1" fill="#313e88" d="M 95.5,249.5 C 97.8296,272.105 99.4963,294.771 100.5,317.5C 100.833,322.833 101.167,328.167 101.5,333.5C 99.9582,334.301 98.2915,334.634 96.5,334.5C 94.1799,327.918 91.8465,321.251 89.5,314.5C 86.8405,301.858 84.1738,289.191 81.5,276.5C 81.5792,275.07 81.2458,273.736 80.5,272.5C 83.0372,264.889 85.3706,257.222 87.5,249.5C 90.1987,248.271 92.8654,248.271 95.5,249.5 Z"/></g>
<g><path style="opacity:1" fill="#eb7d39" d="M 240.5,215.5 C 243.977,216.323 247.644,216.823 251.5,217C 253.286,217.785 254.786,218.951 256,220.5C 260.667,231.833 265.333,243.167 270,254.5C 271.915,255.916 273.415,255.582 274.5,253.5C 275.5,253.167 276.167,252.5 276.5,251.5C 278.292,249.539 280.458,248.205 283,247.5C 289.654,248.756 291.154,252.256 287.5,258C 284.431,259.846 281.098,260.846 277.5,261C 282.574,264.979 285.741,270.146 287,276.5C 287.743,290.521 287.576,304.521 286.5,318.5C 233.5,318.5 180.5,318.5 127.5,318.5C 127.737,317.209 127.404,316.209 126.5,315.5C 125.549,301.845 125.382,288.178 126,274.5C 129.453,269.379 133.286,264.546 137.5,260C 135.166,259.661 132.832,259.828 130.5,260.5C 122.483,259.123 120.483,254.956 124.5,248C 130.184,247.509 134.518,249.675 137.5,254.5C 137.842,255.338 138.508,255.672 139.5,255.5C 141.335,254.878 142.502,253.544 143,251.5C 146.804,241.088 150.804,230.755 155,220.5C 155.833,219.667 156.667,218.833 157.5,218C 162.833,217.667 168.167,217.333 173.5,217C 176.316,211.037 179.649,205.37 183.5,200C 199.167,199.333 214.833,199.333 230.5,200C 233.982,205.146 237.315,210.313 240.5,215.5 Z"/></g>
<g><path style="opacity:1" fill="#f0eeeb" d="M 209.5,219.5 C 222.837,219.333 236.171,219.5 249.5,220C 252.883,223.269 255.383,227.103 257,231.5C 260.29,239.881 263.456,248.214 266.5,256.5C 226.167,256.886 185.834,257.22 145.5,257.5C 148.415,246.258 152.248,235.258 157,224.5C 158.167,223.333 159.333,222.167 160.5,221C 177.005,220.831 193.338,220.331 209.5,219.5 Z"/></g>
<g><path style="opacity:1" fill="#eda87d" d="M 177.5,215.5 C 197.326,216.497 217.326,216.83 237.5,216.5C 217.329,217.828 196.996,217.828 176.5,216.5C 176.624,215.893 176.957,215.56 177.5,215.5 Z"/></g>
<g><path style="opacity:1" fill="#edecea" d="M 237.5,216.5 C 217.326,216.83 197.326,216.497 177.5,215.5C 179.936,211.469 182.269,207.302 184.5,203C 199.5,202.333 214.5,202.333 229.5,203C 232.304,207.445 234.971,211.945 237.5,216.5 Z"/></g>
<g><path style="opacity:1" fill="#4c444e" d="M 203.5,204.5 C 204.5,204.5 205.5,204.5 206.5,204.5C 206.855,207.067 207.521,209.567 208.5,212C 208.167,212.5 207.833,213 207.5,213.5C 205.564,211.022 203.564,211.022 201.5,213.5C 201.167,213.167 200.833,212.833 200.5,212.5C 201.809,209.917 202.809,207.25 203.5,204.5 Z"/></g>
<g><path style="opacity:1" fill="#534c55" d="M 218.5,204.5 C 219.765,205.514 220.431,207.014 220.5,209C 220.167,210.5 219.833,212 219.5,213.5C 218.516,210.572 218.183,207.572 218.5,204.5 Z"/></g>
<g><path style="opacity:1" fill="#433b45" d="M 214.5,204.5 C 216.688,205.536 216.688,207.036 214.5,209C 217.472,212.823 217.139,213.656 213.5,211.5C 212.522,211.977 211.689,212.643 211,213.5C 210.289,211.633 210.789,210.133 212.5,209C 209.67,206.356 210.004,205.522 213.5,206.5C 214.298,206.043 214.631,205.376 214.5,204.5 Z"/></g>
<g><path style="opacity:1" fill="#575059" d="M 193.5,204.5 C 195.924,204.192 198.257,204.526 200.5,205.5C 198.777,207.868 198.11,210.534 198.5,213.5C 197.5,213.5 196.5,213.5 195.5,213.5C 195.71,210.248 195.044,207.248 193.5,204.5 Z"/></g>
<g><path style="opacity:1" fill="#7e7d88" d="M 363.5,249.5 C 364.167,249.5 364.833,249.5 365.5,249.5C 368.248,249.402 368.914,250.402 367.5,252.5C 365.326,252.75 363.659,253.75 362.5,255.5C 362.167,255.5 361.833,255.5 361.5,255.5C 361.167,255.5 360.833,255.5 360.5,255.5C 361.123,253.289 362.123,251.289 363.5,249.5 Z"/></g>
<g><path style="opacity:1" fill="#fafafb" d="M 330.5,308.5 C 330.176,315.354 330.509,322.021 331.5,328.5C 331.5,329.167 331.833,329.5 332.5,329.5C 332.5,331.833 332.5,334.167 332.5,336.5C 331.89,337.391 331.557,338.391 331.5,339.5C 330.71,340.609 330.21,341.942 330,343.5C 323.452,341.562 316.618,340.895 309.5,341.5C 309.598,339.447 308.931,337.78 307.5,336.5C 307.279,333.721 307.612,331.054 308.5,328.5C 308.833,328.5 309.167,328.5 309.5,328.5C 310.434,327.432 310.768,326.099 310.5,324.5C 312.608,299.474 317.275,274.974 324.5,251C 324.833,250.833 325.167,250.667 325.5,250.5C 328.729,269.688 330.396,289.022 330.5,308.5 Z"/></g>
<g><path style="opacity:1" fill="#d7e0f1" d="M 367.5,252.5 C 371.091,252.952 374.425,253.952 377.5,255.5C 372.5,255.5 367.5,255.5 362.5,255.5C 363.659,253.75 365.326,252.75 367.5,252.5 Z"/></g>
<g><path style="opacity:0.004" fill="#fefffc" d="M 17.5,255.5 C 16.8333,256.167 16.8333,256.167 17.5,255.5 Z"/></g>
<g><path style="opacity:0.205" fill="#f7f5f0" d="M 383.5,255.5 C 385.527,255.338 387.527,255.505 389.5,256C 388.944,256.383 388.611,256.883 388.5,257.5C 388.167,257.5 387.833,257.5 387.5,257.5C 387.167,257.5 386.833,257.5 386.5,257.5C 385.5,256.833 384.5,256.167 383.5,255.5 Z"/></g>
<g><path style="opacity:1" fill="#eeb83f" d="M 361.5,255.5 C 361.833,255.5 362.167,255.5 362.5,255.5C 367.5,255.5 372.5,255.5 377.5,255.5C 378.5,256.167 379.5,256.833 380.5,257.5C 380.5,256.833 380.5,256.167 380.5,255.5C 381.5,255.5 382.5,255.5 383.5,255.5C 384.5,256.167 385.5,256.833 386.5,257.5C 388.672,266.423 389.005,275.423 387.5,284.5C 375.833,284.5 364.167,284.5 352.5,284.5C 351.033,275.104 351.366,265.771 353.5,256.5C 354.5,256.5 355.5,256.5 356.5,256.5C 357.239,256.369 357.906,256.536 358.5,257C 356.485,258.555 356.152,260.389 357.5,262.5C 358.979,260.289 360.312,257.956 361.5,255.5 Z"/></g>
<g><path style="opacity:1" fill="#69543c" d="M 380.5,257.5 C 383.569,258.496 384.069,260.163 382,262.5C 380.731,261.095 380.231,259.429 380.5,257.5 Z"/></g>
<g><path style="opacity:0.18" fill="#fef9f1" d="M 389.5,257.5 C 393.843,257.843 396.177,260.177 396.5,264.5C 394.5,261.833 392.167,259.5 389.5,257.5 Z"/></g>
<g><path style="opacity:1" fill="#ecba4d" d="M 352.5,257.5 C 350.507,265.68 350.007,274.013 351,282.5C 351.278,283.416 351.778,284.082 352.5,284.5C 364.167,284.5 375.833,284.5 387.5,284.5C 387.5,284.833 387.5,285.167 387.5,285.5C 382.833,285.5 378.167,285.5 373.5,285.5C 366.5,285.5 359.5,285.5 352.5,285.5C 349.813,285.664 347.146,285.497 344.5,285C 342.771,283.211 342.104,281.044 342.5,278.5C 342.5,273.833 342.5,269.167 342.5,264.5C 343.167,264.5 343.5,264.167 343.5,263.5C 345.639,260.26 348.639,258.26 352.5,257.5 Z"/></g>
<g><path style="opacity:1" fill="#7e6540" d="M 356.5,256.5 C 356.5,256.167 356.5,255.833 356.5,255.5C 357.833,255.5 359.167,255.5 360.5,255.5C 360.833,255.5 361.167,255.5 361.5,255.5C 360.312,257.956 358.979,260.289 357.5,262.5C 356.152,260.389 356.485,258.555 358.5,257C 357.906,256.536 357.239,256.369 356.5,256.5 Z"/></g>
<g><path style="opacity:1" fill="#edb944" d="M 387.5,257.5 C 387.833,257.5 388.167,257.5 388.5,257.5C 388.833,257.5 389.167,257.5 389.5,257.5C 392.167,259.5 394.5,261.833 396.5,264.5C 397.026,268.312 397.693,271.979 398.5,275.5C 398.216,277.415 398.549,279.081 399.5,280.5C 399.5,281.167 399.5,281.833 399.5,282.5C 398.833,282.5 398.167,282.5 397.5,282.5C 395.18,284.226 392.513,284.893 389.5,284.5C 389.971,275.354 389.304,266.354 387.5,257.5 Z"/></g>
<g><path style="opacity:1" fill="#949bc1" d="M 343.5,249.5 C 343.5,254.167 343.5,258.833 343.5,263.5C 343.5,264.167 343.167,264.5 342.5,264.5C 342.803,259.57 342.469,254.737 341.5,250C 342.094,249.536 342.761,249.369 343.5,249.5 Z"/></g>
<g><path style="opacity:0.004" fill="#fefffa" d="M 22.5,262.5 C 21.8333,263.167 21.8333,263.167 22.5,262.5 Z"/></g>
<g><path style="opacity:1" fill="#6b573e" d="M 386.5,257.5 C 386.833,257.5 387.167,257.5 387.5,257.5C 389.304,266.354 389.971,275.354 389.5,284.5C 388.833,284.5 388.5,284.833 388.5,285.5C 388.167,286.833 387.833,286.833 387.5,285.5C 387.5,285.167 387.5,284.833 387.5,284.5C 389.005,275.423 388.672,266.423 386.5,257.5 Z"/></g>
<g><path style="opacity:1" fill="#705a3c" d="M 353.5,256.5 C 351.366,265.771 351.033,275.104 352.5,284.5C 351.778,284.082 351.278,283.416 351,282.5C 350.007,274.013 350.507,265.68 352.5,257.5C 352.5,256.833 352.833,256.5 353.5,256.5 Z"/></g>
<g><path style="opacity:0.004" fill="#fefefe" d="M 10.5,274.5 C 9.83333,275.167 9.83333,275.167 10.5,274.5 Z"/></g>
<g><path style="opacity:0.867" fill="#fce8c2" d="M 396.5,264.5 C 398.02,266.588 399.02,268.922 399.5,271.5C 399.5,272.833 399.5,274.167 399.5,275.5C 399.167,275.5 398.833,275.5 398.5,275.5C 397.693,271.979 397.026,268.312 396.5,264.5 Z"/></g>
<g><path style="opacity:1" fill="#e8edf4" d="M 81.5,276.5 C 84.1738,289.191 86.8405,301.858 89.5,314.5C 88.7784,314.918 88.2784,315.584 88,316.5C 83.7339,314.377 79.2339,312.877 74.5,312C 70.8057,309.822 67.1391,307.655 63.5,305.5C 70.0353,295.765 75.5353,285.432 80,274.5C 80.2784,275.416 80.7784,276.082 81.5,276.5 Z"/></g>
<g><path style="opacity:1" fill="#f0edea" d="M 132.5,279.5 C 144.208,278.939 154.041,282.939 162,291.5C 162.781,292.944 162.614,294.277 161.5,295.5C 149.889,298.795 140.389,295.795 133,286.5C 131.336,284.214 131.17,281.881 132.5,279.5 Z"/></g>
<g><path style="opacity:1" fill="#f0edea" d="M 270.5,279.5 C 284.676,278.176 286.342,282.342 275.5,292C 267.981,296.418 259.981,297.585 251.5,295.5C 250.417,294.635 250.251,293.635 251,292.5C 256.561,286.49 263.061,282.156 270.5,279.5 Z"/></g>
<g><path style="opacity:0.004" fill="#fdfffe" d="M 15.5,283.5 C 14.8333,284.167 14.8333,284.167 15.5,283.5 Z"/></g>
<g><path style="opacity:1" fill="#f8f8f9" d="M 342.5,278.5 C 342.104,281.044 342.771,283.211 344.5,285C 347.146,285.497 349.813,285.664 352.5,285.5C 356.132,292.048 357.299,299.048 356,306.5C 352.205,310.455 348.372,310.455 344.5,306.5C 343.054,307.171 342.388,308.338 342.5,310C 343.854,313.877 345.354,317.71 347,321.5C 347.817,327.016 347.651,332.35 346.5,337.5C 346.167,337.5 345.833,337.5 345.5,337.5C 344.833,337.5 344.167,337.5 343.5,337.5C 343.167,337.5 342.833,337.5 342.5,337.5C 342.5,336.833 342.167,336.5 341.5,336.5C 340.5,336.5 339.5,336.5 338.5,336.5C 337.631,334.283 337.298,331.95 337.5,329.5C 339.048,329.179 339.715,328.179 339.5,326.5C 339.5,326.167 339.5,325.833 339.5,325.5C 340.628,309.84 341.628,294.174 342.5,278.5 Z"/></g>
<g><path style="opacity:0.541" fill="#fbe8c2" d="M 397.5,282.5 C 397.586,283.496 397.252,284.329 396.5,285C 393.854,285.497 391.187,285.664 388.5,285.5C 388.5,284.833 388.833,284.5 389.5,284.5C 392.513,284.893 395.18,284.226 397.5,282.5 Z"/></g>
<g><path style="opacity:1" fill="#dae2f0" d="M 352.5,285.5 C 359.5,285.5 366.5,285.5 373.5,285.5C 371.49,287.023 371.156,288.856 372.5,291C 375.395,288.985 378.562,288.152 382,288.5C 386.078,295.044 384.911,300.378 378.5,304.5C 374.069,305.591 370.402,307.924 367.5,311.5C 368.326,312.451 368.492,313.451 368,314.5C 367.346,313.304 366.846,313.304 366.5,314.5C 375.07,314.232 378.904,318.232 378,326.5C 376.269,328.617 374.102,330.117 371.5,331C 366.428,331.678 361.428,332.678 356.5,334C 353.921,335.076 352.254,336.909 351.5,339.5C 349.447,339.598 347.78,338.931 346.5,337.5C 347.651,332.35 347.817,327.016 347,321.5C 345.354,317.71 343.854,313.877 342.5,310C 342.388,308.338 343.054,307.171 344.5,306.5C 348.372,310.455 352.205,310.455 356,306.5C 357.299,299.048 356.132,292.048 352.5,285.5 Z"/></g>
<g><path style="opacity:1" fill="#f0edea" d="M 186.5,286.5 C 205.891,286.076 225.225,286.909 244.5,289C 247.07,291.718 247.07,294.385 244.5,297C 220.541,299.895 196.541,300.229 172.5,298C 170.899,297.727 169.399,297.227 168,296.5C 167.231,293.901 167.398,291.401 168.5,289C 174.659,288.25 180.659,287.417 186.5,286.5 Z"/></g>
<g><path style="opacity:0.004" fill="#fefefe" d="M 372.5,287.5 C 373.833,288.167 373.833,288.167 372.5,287.5 Z"/></g>
<g><path style="opacity:0.004" fill="#fefefe" d="M 29.5,297.5 C 28.8333,298.167 28.8333,298.167 29.5,297.5 Z"/></g>
<g><path style="opacity:0.004" fill="#fdfffc" d="M 17.5,302.5 C 16.8333,301.167 16.8333,301.167 17.5,302.5 Z"/></g>
<g><path style="opacity:0.004" fill="#fefffc" d="M 378.5,304.5 C 379.833,305.167 379.833,305.167 378.5,304.5 Z"/></g>
<g><path style="opacity:1" fill="#fdfdfe" d="M 63.5,305.5 C 67.1391,307.655 70.8057,309.822 74.5,312C 79.2339,312.877 83.7339,314.377 88,316.5C 88.2784,315.584 88.7784,314.918 89.5,314.5C 91.8465,321.251 94.1799,327.918 96.5,334.5C 96.4431,335.609 96.1098,336.609 95.5,337.5C 94.596,338.209 94.2627,339.209 94.5,340.5C 78.8067,340.668 63.14,341.335 47.5,342.5C 47.5,341.167 47.5,339.833 47.5,338.5C 48.0722,336.745 48.9055,335.078 50,333.5C 54.3679,329.467 58.3679,325.134 62,320.5C 62.6667,318.833 62.6667,317.167 62,315.5C 60.2714,315.026 59.1047,314.026 58.5,312.5C 59.9213,309.991 61.5879,307.657 63.5,305.5 Z"/></g>
<g><path style="opacity:0.004" fill="#fefffd" d="M 30.5,306.5 C 31.8333,307.167 31.8333,307.167 30.5,306.5 Z"/></g>
<g><path style="opacity:0.004" fill="#fdfffd" d="M 17.5,309.5 C 16.8333,310.167 16.8333,310.167 17.5,309.5 Z"/></g>
<g><path style="opacity:1" fill="#eff0ee" d="M 163.5,310.5 C 192.5,310.5 221.5,310.5 250.5,310.5C 250.5,311.5 250.5,312.5 250.5,313.5C 221.5,313.5 192.5,313.5 163.5,313.5C 163.5,312.5 163.5,311.5 163.5,310.5 Z"/></g>
<g><path style="opacity:1" fill="#d8e0ef" d="M 58.5,312.5 C 59.1047,314.026 60.2714,315.026 62,315.5C 62.6667,317.167 62.6667,318.833 62,320.5C 58.3679,325.134 54.3679,329.467 50,333.5C 48.9055,335.078 48.0722,336.745 47.5,338.5C 46.5655,339.568 46.2322,340.901 46.5,342.5C 43.7628,342.599 41.0961,342.265 38.5,341.5C 38.729,336.99 38.0624,332.657 36.5,328.5C 37.4916,328.672 38.1583,328.338 38.5,327.5C 46.5972,324.447 53.2639,319.447 58.5,312.5 Z"/></g>
<g><path style="opacity:0.004" fill="#fdfffd" d="M 21.5,315.5 C 20.8333,316.167 20.8333,316.167 21.5,315.5 Z"/></g>
<g><path style="opacity:1" fill="#fcfcfd" d="M 126.5,315.5 C 126.627,318.245 125.46,320.245 123,321.5C 122.192,325.027 122.359,328.36 123.5,331.5C 124.3,333.741 125.966,334.741 128.5,334.5C 128.5,336.167 128.5,337.833 128.5,339.5C 123.737,339.226 119.07,339.559 114.5,340.5C 110.376,338.606 106.043,337.606 101.5,337.5C 101.5,336.167 101.5,334.833 101.5,333.5C 101.167,328.167 100.833,322.833 100.5,317.5C 109.324,318.002 117.991,317.336 126.5,315.5 Z"/></g>
<g><path style="opacity:1" fill="#c5c2bf" d="M 126.5,315.5 C 127.404,316.209 127.737,317.209 127.5,318.5C 180.5,318.5 233.5,318.5 286.5,318.5C 288.593,319.058 290.093,320.391 291,322.5C 291.805,325.696 291.638,328.696 290.5,331.5C 290.5,330.5 290.5,329.5 290.5,328.5C 234.833,328.5 179.167,328.5 123.5,328.5C 123.5,329.5 123.5,330.5 123.5,331.5C 122.359,328.36 122.192,325.027 123,321.5C 125.46,320.245 126.627,318.245 126.5,315.5 Z"/></g>
<g><path style="opacity:1" fill="#9297bc" d="M 330.5,308.5 C 331.489,313.975 331.822,319.642 331.5,325.5C 334.167,325.5 336.833,325.5 339.5,325.5C 339.5,325.833 339.5,326.167 339.5,326.5C 336.302,325.964 333.635,326.631 331.5,328.5C 330.509,322.021 330.176,315.354 330.5,308.5 Z"/></g>
<g><path style="opacity:1" fill="#6f75a3" d="M 301.5,314.5 C 301.5,317.833 301.5,321.167 301.5,324.5C 304.5,324.5 307.5,324.5 310.5,324.5C 310.768,326.099 310.434,327.432 309.5,328.5C 307.012,326.612 304.012,325.945 300.5,326.5C 300.183,322.298 300.517,318.298 301.5,314.5 Z"/></g>
<g><path style="opacity:1" fill="#403843" d="M 33.5,324.5 C 33.7376,326.404 34.7376,327.738 36.5,328.5C 38.0624,332.657 38.729,336.99 38.5,341.5C 37.7893,343.842 36.456,344.175 34.5,342.5C 32.9138,340.33 31.5804,337.996 30.5,335.5C 30.7373,334.209 30.404,333.209 29.5,332.5C 29.3404,330.847 28.6737,329.514 27.5,328.5C 27.33,327.178 27.6634,326.011 28.5,325C 30.2439,323.546 31.9106,323.379 33.5,324.5 Z"/></g>
<g><path style="opacity:1" fill="#f4b095" d="M 37.5,323.5 C 37.4326,324.959 37.7659,326.292 38.5,327.5C 38.1583,328.338 37.4916,328.672 36.5,328.5C 34.7376,327.738 33.7376,326.404 33.5,324.5C 34.7046,322.862 36.0379,322.529 37.5,323.5 Z"/></g>
<g><path style="opacity:1" fill="#273685" d="M 300.5,326.5 C 304.012,325.945 307.012,326.612 309.5,328.5C 309.167,328.5 308.833,328.5 308.5,328.5C 305.833,328.5 303.167,328.5 300.5,328.5C 300.5,327.833 300.5,327.167 300.5,326.5 Z"/></g>
<g><path style="opacity:1" fill="#393f85" d="M 339.5,326.5 C 339.715,328.179 339.048,329.179 337.5,329.5C 335.833,329.5 334.167,329.5 332.5,329.5C 331.833,329.5 331.5,329.167 331.5,328.5C 333.635,326.631 336.302,325.964 339.5,326.5 Z"/></g>
<g><path style="opacity:1" fill="#b0b0b2" d="M 290.5,331.5 C 289.313,333.975 287.313,334.975 284.5,334.5C 277.167,334.5 269.833,334.5 262.5,334.5C 225.833,334.5 189.167,334.5 152.5,334.5C 152.167,334.5 151.833,334.5 151.5,334.5C 144.167,334.5 136.833,334.5 129.5,334.5C 129.167,334.5 128.833,334.5 128.5,334.5C 125.966,334.741 124.3,333.741 123.5,331.5C 123.5,330.5 123.5,329.5 123.5,328.5C 179.167,328.5 234.833,328.5 290.5,328.5C 290.5,329.5 290.5,330.5 290.5,331.5 Z"/></g>
<g><path style="opacity:0.165" fill="#cecccf" d="M 27.5,328.5 C 28.6737,329.514 29.3404,330.847 29.5,332.5C 27.8958,331.713 27.2291,330.38 27.5,328.5 Z"/></g>
<g><path style="opacity:1" fill="#825151" d="M 300.5,328.5 C 303.167,328.5 305.833,328.5 308.5,328.5C 307.612,331.054 307.279,333.721 307.5,336.5C 305.5,337.833 303.5,337.833 301.5,336.5C 303.06,333.541 302.727,330.874 300.5,328.5 Z"/></g>
<g><path style="opacity:1" fill="#8a5652" d="M 332.5,329.5 C 334.167,329.5 335.833,329.5 337.5,329.5C 337.298,331.95 337.631,334.283 338.5,336.5C 336.653,337.573 334.653,337.573 332.5,336.5C 332.5,334.167 332.5,331.833 332.5,329.5 Z"/></g>
<g><path style="opacity:0.004" fill="#eae9ea" d="M 29.5,332.5 C 30.404,333.209 30.7373,334.209 30.5,335.5C 29.7611,335.631 29.0944,335.464 28.5,335C 29.2524,334.329 29.5858,333.496 29.5,332.5 Z"/></g>
<g><path style="opacity:1" fill="#ecab92" d="M 101.5,333.5 C 101.5,334.833 101.5,336.167 101.5,337.5C 99.5,337.5 97.5,337.5 95.5,337.5C 96.1098,336.609 96.4431,335.609 96.5,334.5C 98.2915,334.634 99.9582,334.301 101.5,333.5 Z"/></g>
<g><path style="opacity:1" fill="#fdfdfd" d="M 152.5,334.5 C 189.167,334.5 225.833,334.5 262.5,334.5C 262.5,336.167 262.5,337.833 262.5,339.5C 225.833,339.5 189.167,339.5 152.5,339.5C 152.5,337.833 152.5,336.167 152.5,334.5 Z"/></g>
<g><path style="opacity:1" fill="#a76f3a" d="M 297.5,337.5 C 297.842,336.662 298.508,336.328 299.5,336.5C 300.49,339.839 299.823,340.172 297.5,337.5 Z"/></g>
<g><path style="opacity:1" fill="#3d3640" d="M 95.5,337.5 C 97.5,337.5 99.5,337.5 101.5,337.5C 106.043,337.606 110.376,338.606 114.5,340.5C 115.684,341.688 115.684,342.855 114.5,344C 107.842,344.5 101.175,344.666 94.5,344.5C 94.5,343.167 94.5,341.833 94.5,340.5C 94.2627,339.209 94.596,338.209 95.5,337.5 Z"/></g>
<g><path style="opacity:1" fill="#443b45" d="M 299.5,336.5 C 300.167,336.5 300.833,336.5 301.5,336.5C 303.5,337.833 305.5,337.833 307.5,336.5C 308.931,337.78 309.598,339.447 309.5,341.5C 309.5,342.5 309.5,343.5 309.5,344.5C 302.559,344.156 295.559,343.989 288.5,344C 287.663,342.989 287.33,341.822 287.5,340.5C 290.659,338.92 293.993,337.92 297.5,337.5C 299.823,340.172 300.49,339.839 299.5,336.5 Z"/></g>
<g><path style="opacity:1" fill="#38303b" d="M 332.5,336.5 C 334.653,337.573 336.653,337.573 338.5,336.5C 339.5,336.5 340.5,336.5 341.5,336.5C 340.228,339.656 340.561,339.989 342.5,337.5C 342.833,337.5 343.167,337.5 343.5,337.5C 344.167,340.167 344.833,340.167 345.5,337.5C 345.833,337.5 346.167,337.5 346.5,337.5C 347.78,338.931 349.447,339.598 351.5,339.5C 352.167,339.5 352.5,339.833 352.5,340.5C 352.5,341.5 352.5,342.5 352.5,343.5C 345.5,343.5 338.5,343.5 331.5,343.5C 331.5,342.167 331.5,340.833 331.5,339.5C 331.557,338.391 331.89,337.391 332.5,336.5 Z"/></g>
<g><path style="opacity:1" fill="#b47334" d="M 341.5,336.5 C 342.167,336.5 342.5,336.833 342.5,337.5C 340.561,339.989 340.228,339.656 341.5,336.5 Z"/></g>
<g><path style="opacity:1" fill="#a86c32" d="M 343.5,337.5 C 344.167,337.5 344.833,337.5 345.5,337.5C 344.833,340.167 344.167,340.167 343.5,337.5 Z"/></g>
<g><path style="opacity:0.993" fill="#ecf0f6" d="M 128.5,334.5 C 128.833,334.5 129.167,334.5 129.5,334.5C 127.408,343.894 131.074,347.227 140.5,344.5C 149.926,347.227 153.592,343.894 151.5,334.5C 151.833,334.5 152.167,334.5 152.5,334.5C 152.5,336.167 152.5,337.833 152.5,339.5C 189.167,339.5 225.833,339.5 262.5,339.5C 262.286,341.144 262.62,342.644 263.5,344C 270.167,344.667 276.833,344.667 283.5,344C 284.337,342.989 284.67,341.822 284.5,340.5C 285.5,340.5 286.5,340.5 287.5,340.5C 287.33,341.822 287.663,342.989 288.5,344C 295.559,343.989 302.559,344.156 309.5,344.5C 309.5,343.5 309.5,342.5 309.5,341.5C 316.618,340.895 323.452,341.562 330,343.5C 330.21,341.942 330.71,340.609 331.5,339.5C 331.5,340.833 331.5,342.167 331.5,343.5C 338.5,343.5 345.5,343.5 352.5,343.5C 352.5,342.5 352.5,341.5 352.5,340.5C 363.941,342.72 375.608,344.553 387.5,346C 388.91,346.368 389.91,347.201 390.5,348.5C 388.028,349.896 385.362,350.73 382.5,351C 343.272,354.863 303.939,356.863 264.5,357C 219.833,357.667 175.167,357.667 130.5,357C 93.1624,356.621 56.1624,354.954 19.5,352C 15.5,351.333 11.5,350.667 7.5,350C 6.02674,349.29 5.36007,348.124 5.5,346.5C 15.0852,344.607 24.7519,343.274 34.5,342.5C 36.456,344.175 37.7893,343.842 38.5,341.5C 41.0961,342.265 43.7628,342.599 46.5,342.5C 46.2322,340.901 46.5655,339.568 47.5,338.5C 47.5,339.833 47.5,341.167 47.5,342.5C 63.14,341.335 78.8067,340.668 94.5,340.5C 94.5,341.833 94.5,343.167 94.5,344.5C 101.175,344.666 107.842,344.5 114.5,344C 115.684,342.855 115.684,341.688 114.5,340.5C 119.07,339.559 123.737,339.226 128.5,339.5C 128.5,337.833 128.5,336.167 128.5,334.5 Z"/></g>
<g><path style="opacity:1" fill="#372f39" d="M 129.5,334.5 C 136.833,334.5 144.167,334.5 151.5,334.5C 153.592,343.894 149.926,347.227 140.5,344.5C 131.074,347.227 127.408,343.894 129.5,334.5 Z"/></g>
<g><path style="opacity:1" fill="#37303a" d="M 262.5,334.5 C 269.833,334.5 277.167,334.5 284.5,334.5C 284.5,336.5 284.5,338.5 284.5,340.5C 284.67,341.822 284.337,342.989 283.5,344C 276.833,344.667 270.167,344.667 263.5,344C 262.62,342.644 262.286,341.144 262.5,339.5C 262.5,337.833 262.5,336.167 262.5,334.5 Z"/></g>
<g><path style="opacity:0.004" fill="#fefefe" d="M 388.5,350.5 C 389.833,351.167 389.833,351.167 388.5,350.5 Z"/></g>
<g><path style="opacity:0.004" fill="#fefffc" d="M 15.5,352.5 C 16.8333,353.167 16.8333,353.167 15.5,352.5 Z"/></g>
</svg>
